SplineFontDB: 3.2
FontName: SeriousShannsLightItalic
FullName: Serious Shanns Light Italic
FamilyName: Serious Shanns
Weight: Light
Copyright: https://github.com/kaBeech/serious-sans/blob/main/LICENSE
Version: 6.0.0
ItalicAngle: -11.8
UnderlinePosition: 0
UnderlineWidth: 0
Ascent: 800
Descent: 200
InvalidEm: 0
sfntRevision: 0x00001999
LayerCount: 2
Layer: 0 0 "Back" 1
Layer: 1 0 "Fore" 0
XUID: [1021 329 -1817886000 6804199]
StyleMap: 0x0040
FSType: 0
OS2Version: 3
OS2_WeightWidthSlopeOnly: 0
OS2_UseTypoMetrics: 0
CreationTime: 1532631502
ModificationTime: 315532800
PfmFamily: 49
TTFWeight: 300
TTFWidth: 5
LineGap: 0
VLineGap: 0
Panose: 0 0 0 0 0 0 0 0 0 0
OS2TypoAscent: 613
OS2TypoAOffset: 0
OS2TypoDescent: -188
OS2TypoDOffset: 0
OS2TypoLinegap: 98
OS2WinAscent: 778
OS2WinAOffset: 0
OS2WinDescent: 308
OS2WinDOffset: 0
HheadAscent: 796
HheadAOffset: 0
HheadDescent: -317
HheadDOffset: 0
OS2SubXSize: 317
OS2SubYSize: 293
OS2SubXOff: 0
OS2SubYOff: 37
OS2SupXSize: 317
OS2SupYSize: 293
OS2SupXOff: 0
OS2SupYOff: 171
OS2StrikeYSize: 0
OS2StrikeYPos: 132
OS2CapHeight: 576
OS2XHeight: 485
OS2Vendor: 'NONE'
OS2CodePages: 00000001.00000000
OS2UnicodeRanges: 00000001.00000000.00000000.00000000
MarkAttachClasses: 1
DEI: 91125
LangName: 1033 "" "" "Normal" "FontForge 2.0 : Serious Shanns Light Italic : 11-6-2024" "" "Version 0.1.2"
Encoding: UnicodeBmp
Compacted: 1
UnicodeInterp: none
NameList: AGL For New Fonts
DisplaySize: -48
AntiAlias: 1
FitToEm: 0
WinInfo: 32 16 6
BeginPrivate: 8
BlueValues 32 [-39 -6 490 521 685 718 765 769]
OtherBlues 11 [-304 -292]
BlueScale 9 0.0291667
BlueShift 1 3
StdHW 4 [67]
StdVW 4 [65]
StemSnapH 23 [61 62 63 65 67 94 130]
StemSnapV 14 [40 58 65 125]
EndPrivate
BeginChars: 65537 124

StartChar: .notdef
Encoding: 65536 -1 0
Width: 570
VWidth: 886
GlyphClass: 1
Flags: HMW
HStem: 620.95 17G<289.447 563.997 289.447 289.447>
LayerCount: 2
Fore
SplineSet
274.147460938 662.599609375 m 1
 591.197265625 662.599609375 l 1
 396.546875 -180.599609375 l 1
 79.498046875 -180.599609375 l 1
 274.147460938 662.599609375 l 1
563.998046875 637.950195312 m 1
 289.447265625 637.950195312 l 1
 105.84765625 -155.950195312 l 1
 381.248046875 -155.950195312 l 1
 563.998046875 637.950195312 l 1
EndSplineSet
Validated: 524289
EndChar

StartChar: exclam
Encoding: 33 33 11
Width: 570
VWidth: 907
GlyphClass: 2
Flags: HMW
HStem: 46.25 110.5<279.36 332.91>
VStem: 250.885 111.35<80.675 125.725>
LayerCount: 2
Fore
SplineSet
379.235351562 290.200195312 m 0
 375.834960938 280 370.735351562 272.349609375 363.084960938 267.25 c 0
 355.434570312 262.150390625 348.634765625 258.75 340.985351562 258.75 c 2
 338.434570312 258.75 l 2
 330.78515625 258.75 325.684570312 261.299804688 323.134765625 265.549804688 c 0
 321.434570312 267.25 320.584960938 269.799804688 320.584960938 273.200195312 c 0
 320.584960938 276.599609375 321.434570312 281.700195312 323.134765625 288.5 c 0
 325.684570312 296.150390625 328.235351562 303.799804688 331.634765625 312.299804688 c 0
 335.03515625 320.799804688 337.584960938 327.599609375 339.28515625 333.549804688 c 0
 340.985351562 339.5 343.53515625 352.25 348.634765625 372.650390625 c 0
 353.735351562 393.049804688 358.834960938 416.849609375 363.934570312 443.200195312 c 0
 369.03515625 469.549804688 374.134765625 495.049804688 380.084960938 519.700195312 c 0
 386.03515625 544.349609375 390.28515625 561.349609375 391.985351562 569.849609375 c 0
 393.684570312 578.349609375 398.78515625 596.200195312 406.434570312 625.099609375 c 0
 414.084960938 654 418.334960938 672.700195312 420.03515625 679.5 c 0
 423.434570312 692.25 429.384765625 702.450195312 436.184570312 708.400390625 c 0
 442.985351562 714.349609375 451.485351562 717.75 459.985351562 717.75 c 2
 462.53515625 717.75 l 2
 469.334960938 717.75 474.434570312 716.049804688 476.985351562 712.650390625 c 0
 478.684570312 710.950195312 479.53515625 706.700195312 479.53515625 702.450195312 c 0
 479.53515625 698.200195312 477.834960938 693.099609375 476.985351562 688 c 0
 476.134765625 682.900390625 465.934570312 644.650390625 448.084960938 574.950195312 c 0
 430.235351562 505.25 416.634765625 450 407.28515625 406.650390625 c 0
 397.934570312 363.299804688 391.985351562 337.799804688 389.434570312 329.299804688 c 0
 386.884765625 320.799804688 382.634765625 308.049804688 379.235351562 290.200195312 c 0
362.235351562 121.049804688 m 0
 362.235351562 116.799804688 361.384765625 111.700195312 360.53515625 105.75 c 0
 357.134765625 90.4501953125 350.334960938 77.7001953125 337.584960938 66.650390625 c 0
 324.834960938 55.599609375 309.53515625 48.7998046875 291.684570312 47.099609375 c 0
 289.985351562 47.099609375 287.434570312 46.25 285.735351562 46.25 c 0
 272.985351562 46.25 263.634765625 51.349609375 257.684570312 59.849609375 c 0
 252.584960938 67.5 250.884765625 76 250.884765625 85.349609375 c 0
 250.884765625 89.599609375 251.735351562 94.7001953125 252.584960938 100.650390625 c 0
 256.834960938 115.099609375 264.485351562 127.849609375 278.934570312 138.900390625 c 0
 295.084960938 150.799804688 310.384765625 156.75 326.53515625 156.75 c 0
 339.28515625 156.75 350.334960938 152.5 356.28515625 144 c 0
 360.53515625 138.049804688 362.235351562 130.400390625 362.235351562 121.049804688 c 0
EndSplineSet
Validated: 524289
EndChar

StartChar: quotedbl
Encoding: 34 34 12
Width: 570
VWidth: 941
GlyphClass: 2
Flags: HMW
HStem: 472.225 274.55<309.664 384.889 313.489 384.889 379.789 440.139 379.789 440.989>
LayerCount: 2
Fore
SplineSet
384.888671875 746.775390625 m 2
 391.688476562 746.775390625 397.638671875 745.075195312 402.739257812 741.674804688 c 0
 403.588867188 739.974609375 405.2890625 737.424804688 406.138671875 734.025390625 c 0
 406.989257812 730.625 406.989257812 727.224609375 406.138671875 721.275390625 c 0
 401.0390625 698.325195312 391.688476562 660.075195312 378.088867188 607.375 c 0
 364.489257812 554.674804688 355.138671875 518.125 348.338867188 498.575195312 c 0
 344.938476562 489.224609375 339.838867188 483.275390625 333.0390625 479.025390625 c 0
 326.239257812 474.775390625 320.2890625 472.224609375 314.338867188 472.224609375 c 2
 313.489257812 472.224609375 l 2
 305.838867188 472.224609375 299.0390625 475.625 293.938476562 479.875 c 0
 292.239257812 481.575195312 290.5390625 484.125 290.5390625 487.525390625 c 0
 290.5390625 490.924804688 291.388671875 494.325195312 292.239257812 497.724609375 c 0
 301.588867188 526.625 310.938476562 564.025390625 320.2890625 609.075195312 c 0
 329.638671875 654.125 337.2890625 691.525390625 343.239257812 721.275390625 c 0
 344.088867188 727.224609375 346.638671875 731.474609375 349.188476562 734.875 c 0
 351.739257812 739.125 355.138671875 741.674804688 358.5390625 742.525390625 c 0
 366.188476562 745.075195312 373.838867188 746.775390625 379.7890625 746.775390625 c 2
 384.888671875 746.775390625 l 2
505.588867188 607.375 m 0
 492.838867188 554.674804688 482.638671875 518.125 475.838867188 498.575195312 c 0
 472.438476562 489.224609375 467.338867188 483.275390625 460.5390625 479.025390625 c 0
 453.739257812 474.775390625 446.938476562 472.224609375 440.989257812 472.224609375 c 2
 440.138671875 472.224609375 l 2
 432.489257812 472.224609375 425.688476562 475.625 420.588867188 479.875 c 0
 418.888671875 481.575195312 418.0390625 484.974609375 418.0390625 487.525390625 c 0
 418.0390625 490.075195312 418.888671875 493.474609375 419.739257812 497.724609375 c 0
 428.239257812 526.625 437.588867188 564.025390625 446.938476562 609.075195312 c 0
 456.2890625 654.125 463.938476562 691.525390625 469.888671875 721.275390625 c 0
 470.739257812 727.224609375 473.2890625 731.474609375 476.688476562 734.875 c 0
 480.088867188 738.275390625 482.638671875 741.674804688 486.0390625 742.525390625 c 0
 493.688476562 745.075195312 500.489257812 746.775390625 506.438476562 746.775390625 c 2
 511.5390625 746.775390625 l 2
 515.7890625 746.775390625 519.188476562 746.775390625 521.739257812 745.924804688 c 0
 524.2890625 745.075195312 527.688476562 743.375 530.239257812 741.674804688 c 0
 532.7890625 739.974609375 533.638671875 735.724609375 533.638671875 729.775390625 c 0
 533.638671875 722.974609375 524.2890625 682.174804688 505.588867188 607.375 c 0
EndSplineSet
Validated: 524289
EndChar

StartChar: numbersign
Encoding: 35 35 13
Width: 570
VWidth: 904
GlyphClass: 2
Flags: HMW
HStem: 228.4 48.45<448.017 480.317 428.467 496.467> 442.6 51<363.867 457.367 343.467 477.767 363.867 549.167 363.867 512.617>
LayerCount: 2
Fore
SplineSet
261.8671875 226.700195312 m 1
 254.217773438 226.700195312 l 1
 227.017578125 161.25 208.317382812 117.049804688 198.1171875 94.099609375 c 0
 192.16796875 84.75 184.517578125 76.25 173.467773438 69.4501953125 c 0
 165.817382812 65.2001953125 159.017578125 62.650390625 153.91796875 62.650390625 c 0
 152.217773438 62.650390625 148.817382812 63.5 147.1171875 64.349609375 c 0
 143.717773438 64.349609375 142.017578125 66.0498046875 141.16796875 67.75 c 0
 139.467773438 71.150390625 137.767578125 76.25 137.767578125 83.0498046875 c 0
 137.767578125 91.5498046875 139.467773438 100.900390625 144.567382812 111.099609375 c 0
 152.217773438 127.25 170.91796875 165.5 197.267578125 225.849609375 c 1
 157.317382812 225.849609375 l 2
 147.1171875 225.849609375 140.317382812 227.549804688 136.91796875 230.950195312 c 0
 135.217773438 232.650390625 132.66796875 236.049804688 132.66796875 238.599609375 c 0
 132.66796875 239.450195312 133.517578125 242 133.517578125 243.700195312 c 0
 135.217773438 251.349609375 139.467773438 259 145.41796875 264.099609375 c 0
 151.3671875 269.200195312 161.567382812 272.599609375 172.6171875 272.599609375 c 0
 176.8671875 272.599609375 182.817382812 273.450195312 191.317382812 273.450195312 c 0
 199.817382812 273.450195312 207.467773438 275.150390625 216.817382812 275.150390625 c 1
 286.517578125 441.75 l 1
 270.3671875 441.75 l 1
 238.067382812 440.900390625 l 1
 234.66796875 440.900390625 l 2
 226.16796875 440.900390625 220.217773438 442.599609375 217.66796875 446 c 0
 215.967773438 448.549804688 215.1171875 451.950195312 215.1171875 456.200195312 c 2
 215.1171875 462.150390625 l 2
 215.967773438 469.799804688 220.217773438 476.599609375 227.017578125 481.700195312 c 0
 233.817382812 486.799804688 242.317382812 491.049804688 253.3671875 491.049804688 c 2
 254.217773438 491.049804688 l 2
 264.41796875 491.049804688 280.567382812 491.900390625 300.967773438 491.900390625 c 2
 306.91796875 491.900390625 l 1
 363.017578125 629.599609375 l 2
 368.967773438 642.349609375 377.467773438 650.849609375 385.1171875 655.099609375 c 0
 391.067382812 657.650390625 395.317382812 659.349609375 399.567382812 659.349609375 c 0
 401.267578125 659.349609375 405.517578125 658.5 407.217773438 658.5 c 0
 414.8671875 656.799804688 419.967773438 653.400390625 421.66796875 647.450195312 c 0
 422.517578125 645.75 423.3671875 642.349609375 423.3671875 639.799804688 c 0
 423.3671875 634.700195312 420.817382812 627.900390625 417.41796875 620.25 c 2
 363.8671875 493.599609375 l 1
 477.767578125 493.599609375 l 1
 529.6171875 623.650390625 l 2
 535.567382812 636.400390625 542.3671875 644.900390625 550.8671875 649.150390625 c 0
 555.967773438 651.700195312 561.067382812 653.400390625 566.16796875 653.400390625 c 0
 567.8671875 653.400390625 570.41796875 652.549804688 572.967773438 652.549804688 c 0
 580.6171875 650.849609375 586.567382812 647.450195312 588.267578125 641.5 c 0
 588.267578125 639.799804688 589.1171875 637.25 589.1171875 635.549804688 c 0
 589.1171875 629.599609375 588.267578125 622.799804688 584.017578125 614.299804688 c 0
 572.967773438 592.200195312 555.967773438 552.25 533.8671875 495.299804688 c 1
 550.017578125 495.299804688 l 1
 558.517578125 495.299804688 l 2
 567.8671875 495.299804688 576.3671875 491.900390625 580.6171875 486.799804688 c 0
 584.8671875 482.549804688 586.567382812 479.150390625 586.567382812 474.900390625 c 0
 586.567382812 474.049804688 585.717773438 472.349609375 585.717773438 471.5 c 0
 584.017578125 463.849609375 578.91796875 456.200195312 572.967773438 451.099609375 c 0
 567.017578125 446 559.3671875 442.599609375 549.16796875 442.599609375 c 2
 512.6171875 442.599609375 l 1
 448.017578125 276.849609375 l 1
 496.467773438 276.849609375 l 2
 504.967773438 276.849609375 510.067382812 275.150390625 510.91796875 273.450195312 c 0
 512.6171875 270.049804688 513.467773438 264.950195312 512.6171875 257.299804688 c 0
 510.91796875 247.950195312 505.817382812 240.299804688 501.567382812 236.049804688 c 0
 496.467773438 230.950195312 489.66796875 228.400390625 480.317382812 228.400390625 c 2
 428.467773438 228.400390625 l 1
 402.1171875 159.549804688 384.267578125 113.650390625 374.067382812 90.7001953125 c 0
 368.1171875 80.5 359.6171875 72.849609375 349.41796875 67.75 c 0
 342.6171875 64.349609375 336.66796875 62.650390625 331.567382812 62.650390625 c 0
 329.8671875 62.650390625 325.6171875 63.5 323.067382812 64.349609375 c 0
 317.967773438 65.2001953125 315.41796875 69.4501953125 314.567382812 75.400390625 c 0
 314.567382812 77.9501953125 313.717773438 81.349609375 313.717773438 83.0498046875 c 0
 313.717773438 90.7001953125 316.267578125 98.349609375 320.517578125 107.700195312 c 0
 331.567382812 130.650390625 348.567382812 170.599609375 371.517578125 227.549804688 c 1
 355.3671875 227.549804688 l 1
 261.8671875 226.700195312 l 1
457.3671875 442.599609375 m 1
 343.467773438 442.599609375 l 1
 273.767578125 276 l 1
 306.067382812 276.849609375 343.467773438 277.700195312 384.267578125 277.700195312 c 2
 391.067382812 277.700195312 l 1
 412.317382812 328.700195312 434.41796875 383.099609375 457.3671875 442.599609375 c 1
EndSplineSet
Validated: 524289
EndChar

StartChar: dollar
Encoding: 36 36 14
Width: 570
VWidth: 901
GlyphClass: 2
Flags: HMW
HStem: 36.775 51<248.822 277.722 257.322 277.722 260.722 277.722>
VStem: 230.972 53.55 457.072 58.65<250.975 295.175>
LayerCount: 2
Fore
SplineSet
211.421875 44.4248046875 m 0
 196.971679688 49.525390625 185.921875 54.625 176.571289062 62.275390625 c 0
 158.721679688 77.5751953125 146.821289062 95.4248046875 140.872070312 115.825195312 c 0
 140.021484375 120.924804688 139.171875 126.875 139.171875 131.974609375 c 0
 139.171875 137.075195312 140.872070312 142.174804688 142.571289062 146.424804688 c 0
 145.971679688 154.075195312 151.071289062 159.174804688 158.721679688 162.575195312 c 0
 164.671875 165.125 169.771484375 167.674804688 172.321289062 167.674804688 c 0
 174.872070312 167.674804688 178.271484375 168.525390625 179.122070312 168.525390625 c 2
 183.372070312 168.525390625 l 2
 184.221679688 168.525390625 185.921875 165.974609375 187.622070312 164.275390625 c 0
 189.321289062 162.575195312 192.721679688 157.474609375 195.271484375 151.525390625 c 0
 202.921875 132.825195312 212.271484375 116.674804688 225.021484375 105.625 c 0
 237.771484375 93.724609375 254.771484375 87.775390625 276.021484375 87.775390625 c 2
 277.721679688 87.775390625 l 1
 284.521484375 87.775390625 l 1
 307.471679688 188.075195312 327.021484375 279.025390625 344.021484375 361.474609375 c 1
 334.671875 362.325195312 327.021484375 364.025390625 321.921875 364.875 c 0
 316.821289062 365.724609375 311.721679688 366.575195312 308.321289062 366.575195312 c 0
 293.021484375 368.275390625 280.271484375 372.525390625 269.221679688 380.174804688 c 0
 258.171875 387.825195312 249.671875 396.325195312 243.721679688 407.375 c 0
 235.221679688 423.525390625 230.971679688 440.525390625 230.971679688 459.224609375 c 0
 230.971679688 465.174804688 231.821289062 471.125 233.521484375 478.775390625 c 0
 237.771484375 498.325195312 244.571289062 517.025390625 253.921875 534.875 c 0
 262.421875 552.724609375 273.471679688 569.724609375 287.071289062 585.025390625 c 0
 300.671875 600.325195312 317.671875 613.075195312 336.372070312 624.125 c 0
 355.071289062 635.174804688 376.321289062 643.674804688 399.271484375 647.924804688 c 2
 405.221679688 649.625 l 1
 409.471679688 667.474609375 414.571289062 686.174804688 418.821289062 704.875 c 0
 421.372070312 717.625 425.622070312 726.974609375 430.721679688 733.775390625 c 0
 435.821289062 740.575195312 440.921875 743.974609375 448.571289062 743.974609375 c 2
 450.271484375 743.974609375 l 2
 456.221679688 743.974609375 460.471679688 743.125 462.171875 740.575195312 c 0
 463.872070312 738.025390625 464.721679688 733.775390625 464.721679688 728.674804688 c 0
 464.721679688 723.575195312 463.021484375 718.474609375 462.171875 712.525390625 c 2
 450.271484375 655.575195312 l 1
 461.321289062 654.724609375 l 2
 472.372070312 654.724609375 487.671875 651.325195312 506.372070312 646.224609375 c 0
 525.071289062 641.125 538.671875 636.875 548.021484375 632.625 c 0
 553.971679688 630.075195312 558.221679688 625.825195312 559.921875 620.724609375 c 0
 559.921875 619.025390625 560.771484375 615.625 560.771484375 612.224609375 c 0
 560.771484375 608.825195312 559.071289062 604.575195312 557.372070312 598.625 c 0
 556.521484375 594.375 554.821289062 590.125 551.421875 587.575195312 c 0
 548.021484375 585.025390625 544.622070312 583.325195312 542.071289062 583.325195312 c 2
 534.421875 583.325195312 l 2
 529.321289062 583.325195312 524.221679688 584.174804688 519.122070312 585.875 c 0
 514.872070312 586.724609375 509.771484375 590.125 503.821289062 593.525390625 c 0
 497.872070312 596.924804688 490.221679688 600.325195312 480.872070312 602.875 c 0
 471.521484375 605.424804688 459.622070312 607.974609375 446.872070312 607.974609375 c 2
 439.221679688 608.825195312 l 1
 428.171875 557.825195312 412.872070312 491.525390625 395.021484375 409.075195312 c 1
 405.221679688 407.375 l 2
 425.622070312 403.974609375 442.622070312 398.025390625 457.071289062 390.375 c 0
 472.372070312 381.875 483.421875 372.525390625 491.921875 362.325195312 c 0
 500.421875 352.125 506.372070312 341.075195312 509.771484375 328.325195312 c 0
 513.171875 315.575195312 515.721679688 301.974609375 515.721679688 288.375 c 0
 515.721679688 274.775390625 514.021484375 261.174804688 509.771484375 244.174804688 c 0
 503.821289062 219.525390625 495.321289062 195.724609375 481.721679688 173.625 c 0
 468.122070312 151.525390625 453.671875 132.825195312 436.671875 115.825195312 c 0
 419.671875 98.8251953125 401.821289062 85.224609375 382.271484375 73.3251953125 c 0
 362.721679688 61.4248046875 342.321289062 52.0751953125 321.071289062 46.125 c 2
 315.971679688 44.4248046875 l 1
 308.321289062 7.025390625 303.221679688 -18.474609375 301.521484375 -30.375 c 0
 298.122070312 -39.724609375 293.021484375 -48.224609375 286.221679688 -53.3251953125 c 0
 279.421875 -58.4248046875 272.622070312 -60.974609375 264.971679688 -60.974609375 c 2
 264.122070312 -60.974609375 l 2
 262.421875 -60.974609375 259.872070312 -60.125 258.171875 -60.125 c 0
 255.622070312 -58.4248046875 253.921875 -55.025390625 253.921875 -49.0751953125 c 0
 253.921875 -44.8251953125 254.771484375 -38.875 256.471679688 -31.224609375 c 0
 260.721679688 -17.625 265.821289062 5.3251953125 272.622070312 36.775390625 c 1
 260.721679688 36.775390625 l 1
 257.321289062 36.775390625 l 2
 240.321289062 36.775390625 225.872070312 39.3251953125 211.421875 44.4248046875 c 0
296.421875 449.025390625 m 0
 307.471679688 433.724609375 323.622070312 422.674804688 345.721679688 415.875 c 2
 355.071289062 413.325195312 l 1
 365.271484375 459.224609375 378.872070312 522.974609375 395.872070312 604.575195312 c 1
 380.571289062 599.474609375 l 2
 356.771484375 591.825195312 336.372070312 580.775390625 319.372070312 563.775390625 c 0
 302.372070312 546.775390625 291.321289062 527.224609375 287.071289062 504.275390625 c 0
 285.372070312 498.325195312 284.521484375 493.224609375 284.521484375 487.275390625 c 0
 284.521484375 472.825195312 288.771484375 460.075195312 296.421875 449.025390625 c 0
457.071289062 256.075195312 m 0
 457.071289062 266.275390625 455.372070312 277.325195312 451.122070312 290.075195312 c 0
 447.721679688 301.125 440.921875 311.325195312 430.721679688 320.674804688 c 0
 420.521484375 330.025390625 407.771484375 338.525390625 391.622070312 345.325195312 c 2
 381.421875 350.424804688 l 1
 378.872070312 338.525390625 l 1
 378.872070312 338.525390625 369.521484375 295.174804688 351.671875 211.025390625 c 0
 341.471679688 164.275390625 332.971679688 126.025390625 326.171875 96.275390625 c 1
 343.171875 103.924804688 l 2
 370.372070312 115.825195312 394.171875 131.974609375 414.571289062 153.224609375 c 0
 434.971679688 174.474609375 447.721679688 198.275390625 453.671875 225.474609375 c 0
 455.372070312 235.674804688 457.071289062 245.875 457.071289062 256.075195312 c 0
EndSplineSet
Validated: 524289
EndChar

StartChar: percent
Encoding: 37 37 15
Width: 570
VWidth: 899
GlyphClass: 2
Flags: HMW
HStem: 35.45 44.2<372.115 402.29 379.34 402.29> 205.45 41.65<425.665 426.515> 426.45 43.35<259.915 289.24 267.14 289.24> 597.3 40.8<314.315 318.14>
VStem: 211.89 34.85<493.175 513.575> 324.09 34.85<103.025 122.575> 350.44 34.85<550.125 582.85> 461.79 29.75<133.2 170.6> 461.79 38.25<159.125 192.7>
LayerCount: 2
Fore
SplineSet
231.439453125 440.900390625 m 0xfa
 222.088867188 450.25 215.2890625 462.150390625 213.588867188 476.599609375 c 0
 212.739257812 482.549804688 211.888671875 489.349609375 211.888671875 497 c 0
 211.888671875 504.650390625 212.739257812 514.849609375 215.2890625 525.900390625 c 0
 222.939453125 559.049804688 236.5390625 585.400390625 256.088867188 606.650390625 c 0
 275.638671875 627.900390625 300.2890625 638.099609375 328.338867188 638.099609375 c 0
 350.439453125 638.099609375 366.588867188 629.599609375 376.7890625 613.450195312 c 0
 382.739257812 604.099609375 385.2890625 591.349609375 385.2890625 574.349609375 c 0
 385.2890625 559.900390625 382.739257812 542.900390625 377.638671875 524.200195312 c 0
 369.989257812 491.900390625 356.388671875 468.099609375 338.5390625 451.099609375 c 0
 320.689453125 434.099609375 297.739257812 426.450195312 267.989257812 426.450195312 c 2
 267.138671875 426.450195312 l 2
 252.689453125 426.450195312 240.7890625 431.549804688 231.439453125 440.900390625 c 0xfa
126.888671875 59.25 m 0
 145.588867188 86.4501953125 182.989257812 137.450195312 238.239257812 212.25 c 2
 403.989257812 448.549804688 l 2
 460.088867188 527.599609375 499.189453125 583.700195312 521.2890625 618.549804688 c 0
 528.088867188 627.049804688 535.739257812 632.150390625 544.239257812 633.849609375 c 0
 546.7890625 633.849609375 550.189453125 634.700195312 551.888671875 634.700195312 c 0
 556.138671875 634.700195312 559.5390625 633 563.7890625 630.450195312 c 0
 566.338867188 629.599609375 568.0390625 627.900390625 568.888671875 627.049804688 c 0
 569.739257812 626.200195312 570.588867188 622.799804688 570.588867188 621.099609375 c 0
 570.588867188 614.299804688 567.189453125 604.950195312 557.838867188 593.900390625 c 0
 529.7890625 559.049804688 465.189453125 471.5 364.888671875 329.549804688 c 0
 267.138671875 187.599609375 199.989257812 92.400390625 164.2890625 41.400390625 c 0
 156.638671875 31.2001953125 149.838867188 24.400390625 143.888671875 20.150390625 c 0
 139.638671875 17.599609375 135.388671875 15.900390625 131.989257812 15.900390625 c 0
 128.588867188 15.900390625 126.0390625 16.75 123.489257812 18.4501953125 c 0
 120.939453125 20.150390625 117.5390625 22.7001953125 116.689453125 24.400390625 c 0
 115.838867188 26.099609375 114.989257812 28.650390625 114.989257812 31.2001953125 c 0
 114.989257812 38.849609375 119.239257812 48.2001953125 126.888671875 59.25 c 0
287.5390625 469.799804688 m 2
 289.239257812 469.799804688 l 2
 303.689453125 469.799804688 315.588867188 474.900390625 324.939453125 485.950195312 c 0
 334.2890625 497 341.939453125 510.599609375 347.0390625 527.599609375 c 0
 348.739257812 536.950195312 350.439453125 546.299804688 350.439453125 553.950195312 c 0
 350.439453125 563.299804688 349.588867188 571.799804688 345.338867188 578.599609375 c 0
 337.689453125 591.349609375 326.638671875 597.299804688 309.638671875 597.299804688 c 0
 295.189453125 597.299804688 282.439453125 591.349609375 272.239257812 578.599609375 c 0
 262.888671875 567.549804688 255.239257812 552.25 250.138671875 533.549804688 c 0
 248.439453125 525.049804688 246.739257812 517.400390625 246.739257812 509.75 c 0
 246.739257812 502.099609375 247.588867188 496.150390625 250.138671875 490.200195312 c 0
 256.088867188 478.299804688 268.838867188 471.5 287.5390625 469.799804688 c 2
343.638671875 49.900390625 m 0
 334.2890625 59.25 328.338867188 71.150390625 325.7890625 85.599609375 c 0
 324.939453125 91.5498046875 324.088867188 99.2001953125 324.088867188 106.849609375 c 0xfc80
 324.088867188 114.5 325.7890625 123.849609375 327.489257812 134.900390625 c 0
 334.2890625 168.049804688 348.739257812 194.400390625 368.2890625 215.650390625 c 0
 387.838867188 236.900390625 411.638671875 247.099609375 439.689453125 247.099609375 c 0
 450.739257812 247.099609375 460.939453125 245.400390625 468.588867188 241.150390625 c 0
 477.088867188 236.900390625 484.739257812 230.950195312 490.689453125 222.450195312 c 0
 496.638671875 213.950195312 500.0390625 201.200195312 500.0390625 184.200195312 c 0
 500.0390625 169.75 497.489257812 152.75 491.5390625 134.049804688 c 1xfd
 491.5390625 133.200195312 l 1
 482.189453125 100.900390625 468.588867188 76.25 450.739257812 59.25 c 0
 432.888671875 43.099609375 409.939453125 35.4501953125 381.888671875 35.4501953125 c 2
 379.338867188 35.4501953125 l 2
 364.888671875 35.4501953125 352.989257812 40.5498046875 343.638671875 49.900390625 c 0
399.739257812 79.650390625 m 2
 402.2890625 79.650390625 l 2
 415.888671875 79.650390625 427.7890625 84.75 437.138671875 95.7998046875 c 0
 446.489257812 106.849609375 454.138671875 119.599609375 458.388671875 136.599609375 c 0
 460.088867188 145.950195312 461.7890625 155.299804688 461.7890625 162.950195312 c 0
 461.7890625 178.25 458.388671875 189.299804688 449.0390625 196.950195312 c 0
 441.388671875 202.900390625 432.0390625 205.450195312 420.989257812 205.450195312 c 0
 406.5390625 205.450195312 394.638671875 198.650390625 384.439453125 186.75 c 0
 374.239257812 175.700195312 366.588867188 160.400390625 362.338867188 142.549804688 c 0
 360.638671875 134.049804688 358.939453125 126.400390625 358.939453125 118.75 c 0
 358.939453125 111.099609375 360.638671875 105.150390625 363.189453125 99.2001953125 c 0
 369.138671875 87.2998046875 381.0390625 80.5 399.739257812 79.650390625 c 2
EndSplineSet
Validated: 524289
EndChar

StartChar: ampersand
Encoding: 38 38 16
Width: 570
VWidth: 901
GlyphClass: 2
Flags: HMW
HStem: 26.5751 58.65 609.675 46.75
VStem: 124.738 60.35<140.476 172.351> 276.038 54.4<511.076 511.926> 417.988 60.35<58.026 80.1251>
LayerCount: 2
Fore
SplineSet
474.9375 55.4755859375 m 0
 470.6875 41.875 464.73828125 33.3759765625 457.9375 30.826171875 c 0
 453.6875 29.1259765625 450.288085938 27.42578125 446.887695312 27.42578125 c 0
 442.637695312 27.42578125 439.23828125 29.1259765625 435.837890625 30.826171875 c 0
 428.1875 35.92578125 422.23828125 45.2763671875 417.98828125 58.0263671875 c 0
 417.98828125 61.42578125 416.288085938 69.92578125 414.587890625 83.5263671875 c 0
 412.887695312 97.1259765625 411.1875 106.475585938 409.48828125 113.276367188 c 2
 405.23828125 133.67578125 l 1
 391.637695312 118.375976562 l 2
 389.9375 116.67578125 385.6875 110.725585938 378.887695312 103.92578125 c 2
 363.587890625 88.6259765625 l 2
 347.4375 72.4755859375 336.387695312 62.2763671875 329.587890625 58.0263671875 c 0
 324.48828125 54.6259765625 317.6875 51.2255859375 310.038085938 46.1259765625 c 0
 302.387695312 41.0263671875 294.73828125 36.7763671875 287.9375 35.076171875 c 0
 281.137695312 33.3759765625 273.48828125 30.826171875 264.137695312 29.1259765625 c 0
 254.788085938 27.42578125 246.288085938 26.576171875 237.788085938 26.576171875 c 0
 210.587890625 26.576171875 187.637695312 34.2255859375 168.9375 48.67578125 c 0
 150.23828125 63.1259765625 136.637695312 82.67578125 129.837890625 107.326171875 c 0
 126.4375 120.076171875 124.73828125 133.67578125 124.73828125 147.276367188 c 0
 124.73828125 160.875976562 126.4375 174.475585938 129.837890625 188.92578125 c 0
 153.637695312 292.625976562 208.887695312 363.17578125 297.288085938 400.576171875 c 2
 306.637695312 404.826171875 l 1
 293.038085938 442.225585938 285.387695312 464.326171875 283.6875 468.576171875 c 0
 281.98828125 473.67578125 280.288085938 480.475585938 278.587890625 487.276367188 c 0
 276.887695312 494.076171875 276.038085938 500.026367188 276.038085938 504.276367188 c 0
 276.038085938 519.576171875 277.73828125 534.875976562 281.137695312 550.17578125 c 0
 285.387695312 568.875976562 294.73828125 588.42578125 310.038085938 606.276367188 c 0
 317.6875 615.625976562 327.038085938 624.975585938 337.23828125 631.776367188 c 0
 347.4375 638.576171875 360.1875 644.526367188 375.48828125 649.625976562 c 0
 390.788085938 654.725585938 406.087890625 656.42578125 423.9375 656.42578125 c 0
 438.387695312 656.42578125 451.98828125 654.725585938 463.887695312 649.625976562 c 0
 475.788085938 644.526367188 485.98828125 637.725585938 494.48828125 629.225585938 c 0
 502.98828125 620.725585938 508.087890625 609.67578125 511.48828125 595.225585938 c 0
 513.09375 588.403320312 513.940429688 581.012695312 513.940429688 573.142578125 c 0
 513.940429688 564.34375 512.881835938 554.946289062 510.637695312 545.075195312 c 0
 506.387695312 528.075195312 500.4375 511.924804688 492.788085938 497.475585938 c 0
 485.137695312 483.025390625 477.48828125 470.275390625 468.98828125 460.075195312 c 0
 460.48828125 449.875 450.288085938 440.525390625 438.387695312 431.174804688 c 0
 426.48828125 421.825195312 415.4375 414.174804688 406.087890625 409.075195312 c 0
 396.73828125 403.975585938 386.538085938 398.875 373.788085938 392.924804688 c 2
 366.137695312 388.674804688 l 1
 368.6875 380.174804688 l 2
 374.637695312 362.325195312 384.837890625 335.975585938 399.288085938 301.125 c 0
 413.73828125 266.275390625 423.087890625 244.174804688 427.337890625 233.125 c 2
 434.137695312 213.575195312 l 1
 446.887695312 232.275390625 457.087890625 248.424804688 463.887695312 258.625 c 0
 470.6875 268.825195312 476.637695312 277.325195312 480.887695312 283.275390625 c 0
 485.137695312 289.225585938 488.538085938 294.325195312 490.23828125 296.875 c 0
 502.137695312 310.475585938 511.48828125 318.975585938 519.137695312 321.525390625 c 0
 520.837890625 322.375 524.23828125 323.225585938 525.9375 323.225585938 c 0
 529.337890625 323.225585938 532.73828125 321.525390625 536.98828125 319.825195312 c 0
 541.23828125 317.275390625 542.9375 312.174804688 542.9375 306.225585938 c 0
 542.9375 295.174804688 536.98828125 282.424804688 527.637695312 267.975585938 c 0
 524.23828125 262.875 514.038085938 251.825195312 497.038085938 233.975585938 c 0
 480.038085938 216.125 463.887695312 199.125 449.4375 181.275390625 c 1
 453.6875 167.674804688 459.637695312 149.825195312 465.587890625 130.275390625 c 0
 471.538085938 110.725585938 474.9375 97.9755859375 475.788085938 93.7255859375 c 0
 476.637695312 89.4755859375 478.337890625 83.525390625 478.337890625 76.7255859375 c 0
 478.337890625 69.9248046875 476.637695312 63.125 474.9375 55.4755859375 c 0
406.087890625 609.67578125 m 0
 384.837890625 609.67578125 367.837890625 602.026367188 355.087890625 587.576171875 c 0
 344.887695312 575.67578125 337.23828125 559.526367188 332.98828125 539.975585938 c 0
 331.288085938 532.326171875 330.4375 523.826171875 330.4375 515.326171875 c 0
 330.4375 506.826171875 331.288085938 498.326171875 332.98828125 488.975585938 c 0
 335.538085938 470.276367188 341.48828125 454.125976562 349.137695312 440.526367188 c 2
 353.387695312 433.725585938 l 1
 361.887695312 436.276367188 l 2
 374.637695312 440.526367188 386.538085938 444.776367188 395.887695312 449.026367188 c 0
 405.23828125 453.276367188 414.587890625 459.225585938 423.9375 466.875976562 c 0
 433.288085938 474.526367188 441.788085938 483.026367188 447.73828125 494.076171875 c 0
 453.6875 505.125976562 458.788085938 518.725585938 462.1875 533.17578125 c 0
 463.887695312 540.826171875 465.587890625 548.475585938 465.587890625 555.276367188 c 0
 465.587890625 569.725585938 461.337890625 580.776367188 453.6875 590.125976562 c 0
 441.788085938 602.875976562 425.637695312 609.67578125 406.087890625 609.67578125 c 0
196.137695312 120.92578125 m 0
 208.887695312 97.1259765625 230.137695312 85.2255859375 258.1875 85.2255859375 c 0
 270.9375 85.2255859375 285.387695312 87.7763671875 302.387695312 92.8759765625 c 0
 308.337890625 94.576171875 315.137695312 98.826171875 321.9375 103.076171875 c 0
 328.73828125 107.326171875 332.98828125 109.875976562 337.23828125 112.42578125 c 0
 341.48828125 114.975585938 345.73828125 119.225585938 351.6875 125.17578125 c 0
 357.637695312 131.125976562 362.73828125 135.375976562 364.4375 137.92578125 c 0
 366.137695312 140.475585938 370.387695312 143.875976562 375.48828125 149.826171875 c 0
 380.587890625 155.776367188 383.98828125 159.17578125 384.837890625 160.026367188 c 2
 389.087890625 164.276367188 l 1
 383.98828125 189.776367188 379.73828125 209.326171875 376.337890625 222.076171875 c 0
 372.087890625 235.67578125 363.587890625 256.92578125 351.6875 286.67578125 c 0
 339.788085938 316.42578125 331.288085938 337.67578125 326.1875 352.125976562 c 2
 321.9375 362.326171875 l 1
 311.73828125 358.076171875 l 2
 293.887695312 350.42578125 277.73828125 341.076171875 263.288085938 329.17578125 c 0
 248.837890625 317.276367188 236.9375 304.526367188 227.587890625 290.92578125 c 0
 218.23828125 277.326171875 210.587890625 262.875976562 204.637695312 248.42578125 c 0
 198.6875 233.975585938 194.4375 218.67578125 190.1875 201.67578125 c 0
 186.788085938 188.92578125 185.087890625 177.875976562 185.087890625 166.826171875 c 0
 185.087890625 148.975585938 188.48828125 133.67578125 196.137695312 120.92578125 c 0
EndSplineSet
Validated: 524289
EndChar

StartChar: quotesingle
Encoding: 39 39 17
Width: 570
VWidth: 941
GlyphClass: 2
Flags: HMW
HStem: 480.65 256.7<378.334 445.484 378.334 445.484>
LayerCount: 2
Fore
SplineSet
446.334960938 737.349609375 m 2
 453.134765625 737.349609375 459.084960938 735.650390625 464.184570312 732.25 c 0
 465.03515625 731.400390625 466.735351562 728.849609375 467.584960938 725.450195312 c 0
 468.434570312 722.049804688 467.584960938 717.799804688 466.735351562 711.849609375 c 0
 461.634765625 689.75 453.985351562 654.900390625 442.084960938 608.150390625 c 0
 430.184570312 561.400390625 420.834960938 527.400390625 414.03515625 507.849609375 c 0
 410.634765625 498.5 405.53515625 490.849609375 398.735351562 486.599609375 c 0
 391.934570312 482.349609375 385.985351562 480.650390625 380.03515625 480.650390625 c 2
 378.334960938 480.650390625 l 2
 369.834960938 481.5 363.03515625 484.900390625 358.78515625 489.150390625 c 0
 357.084960938 490.849609375 356.235351562 493.400390625 356.235351562 496.799804688 c 0
 356.235351562 500.200195312 357.084960938 502.75 357.934570312 507 c 0
 366.434570312 536.75 374.934570312 569.900390625 383.434570312 609 c 0
 391.934570312 648.099609375 399.584960938 682.950195312 405.53515625 712.700195312 c 0
 405.53515625 717.799804688 407.235351562 722.900390625 410.634765625 726.299804688 c 0
 414.03515625 729.700195312 417.434570312 732.25 420.834960938 733.099609375 c 0
 428.485351562 735.650390625 435.28515625 737.349609375 441.235351562 737.349609375 c 2
 445.485351562 737.349609375 l 1
 446.334960938 737.349609375 l 2
EndSplineSet
Validated: 524289
EndChar

StartChar: parenleft
Encoding: 40 40 18
Width: 570
VWidth: 901
GlyphClass: 2
Flags: HMW
HStem: -49.925 51<329.439 365.564> 684.475 48.45<506.239 534.289>
VStem: 221.064 60.35<170.65 176.6>
LayerCount: 2
Fore
SplineSet
362.165039062 1.0751953125 m 0
 368.96484375 1.0751953125 373.21484375 -0.625 374.915039062 -3.1748046875 c 0
 375.764648438 -4.025390625 377.46484375 -5.724609375 377.46484375 -9.125 c 0
 377.46484375 -12.525390625 375.764648438 -17.625 374.915039062 -25.275390625 c 0
 373.21484375 -32.0751953125 369.814453125 -37.1748046875 363.014648438 -42.275390625 c 0
 356.21484375 -47.375 350.264648438 -49.9248046875 345.165039062 -49.9248046875 c 0
 313.71484375 -49.9248046875 287.365234375 -38.025390625 266.96484375 -13.375 c 0
 245.71484375 12.974609375 232.115234375 48.6748046875 225.314453125 95.4248046875 c 0
 222.764648438 116.674804688 221.064453125 138.775390625 221.064453125 161.724609375 c 0
 221.064453125 191.474609375 222.764648438 223.775390625 227.865234375 258.625 c 0
 233.814453125 300.275390625 247.415039062 353.825195312 267.814453125 419.275390625 c 0
 288.21484375 484.724609375 310.314453125 539.125 334.96484375 580.775390625 c 0
 346.014648438 598.625 358.764648438 617.325195312 374.064453125 635.174804688 c 0
 389.365234375 653.025390625 405.514648438 669.174804688 423.365234375 683.625 c 0
 441.21484375 698.075195312 459.915039062 709.974609375 478.615234375 719.325195312 c 0
 497.314453125 728.674804688 514.314453125 732.924804688 531.314453125 732.924804688 c 0
 537.264648438 732.924804688 541.514648438 732.075195312 543.21484375 730.375 c 0
 544.915039062 728.674804688 546.615234375 725.275390625 546.615234375 721.025390625 c 0
 546.615234375 718.474609375 546.615234375 715.075195312 545.764648438 710.825195312 c 0
 544.064453125 701.474609375 539.814453125 694.674804688 533.865234375 690.424804688 c 0
 527.915039062 686.174804688 521.96484375 684.474609375 514.314453125 684.474609375 c 0
 498.165039062 684.474609375 483.71484375 680.224609375 468.415039062 670.875 c 0
 453.115234375 661.525390625 438.665039062 648.775390625 425.915039062 633.474609375 c 0
 401.264648438 604.575195312 380.014648438 568.875 361.314453125 525.525390625 c 0
 346.865234375 495.775390625 332.415039062 454.974609375 317.96484375 403.125 c 0
 303.514648438 351.275390625 294.165039062 309.625 289.064453125 279.025390625 c 0
 283.96484375 248.424804688 281.415039062 218.674804688 281.415039062 190.625 c 0
 281.415039062 150.674804688 285.665039062 115.825195312 293.314453125 86.0751953125 c 0
 299.264648438 61.4248046875 308.615234375 41.875 319.665039062 26.5751953125 c 0
 332.415039062 9.5751953125 346.014648438 1.0751953125 362.165039062 1.0751953125 c 0
EndSplineSet
Validated: 524289
EndChar

StartChar: parenright
Encoding: 41 41 19
Width: 570
VWidth: 901
GlyphClass: 2
Flags: HMW
HStem: -49.925 51<194.599 197.999> 684.475 48.45<349.299 374.799>
VStem: 436.424 55.25<520 536.575>
LayerCount: 2
Fore
SplineSet
491.673828125 536.575195312 m 0
 491.673828125 503.424804688 488.274414062 466.025390625 482.32421875 423.525390625 c 0
 472.974609375 358.075195312 461.07421875 304.525390625 447.474609375 263.724609375 c 0
 427.923828125 201.674804688 404.124023438 147.275390625 375.224609375 99.6748046875 c 0
 346.32421875 52.0751953125 315.724609375 15.525390625 281.724609375 -10.8251953125 c 0
 247.724609375 -37.1748046875 214.57421875 -49.9248046875 181.423828125 -49.9248046875 c 0
 177.173828125 -49.9248046875 172.923828125 -48.224609375 169.524414062 -43.974609375 c 0
 167.82421875 -42.275390625 166.974609375 -38.875 166.974609375 -35.474609375 c 2
 166.974609375 -30.375 l 2
 169.524414062 -17.625 173.774414062 -9.125 178.874023438 -4.875 c 0
 183.974609375 -0.625 190.774414062 1.0751953125 198.423828125 1.0751953125 c 0
 212.874023438 1.0751953125 229.874023438 8.724609375 248.57421875 24.875 c 0
 266.423828125 39.3251953125 283.423828125 59.724609375 301.274414062 83.525390625 c 0
 319.124023438 107.325195312 335.274414062 135.375 352.274414062 169.375 c 0
 369.274414062 203.375 382.024414062 236.525390625 393.07421875 271.375 c 0
 403.274414062 303.674804688 413.474609375 347.025390625 422.82421875 399.724609375 c 0
 432.173828125 452.424804688 436.423828125 494.924804688 436.423828125 527.224609375 c 0
 436.423828125 545.924804688 435.57421875 563.775390625 433.024414062 581.625 c 0
 430.474609375 599.474609375 426.224609375 614.775390625 420.274414062 630.924804688 c 0
 414.32421875 647.075195312 405.82421875 659.825195312 393.923828125 670.025390625 c 0
 382.024414062 680.224609375 368.423828125 684.474609375 352.274414062 684.474609375 c 0
 346.32421875 684.474609375 341.224609375 686.174804688 337.82421875 689.575195312 c 0
 336.124023438 691.275390625 335.274414062 692.974609375 335.274414062 696.375 c 0
 335.274414062 699.775390625 336.124023438 704.025390625 336.974609375 708.275390625 c 0
 337.82421875 712.525390625 340.374023438 717.625 342.923828125 721.025390625 c 0
 345.474609375 724.424804688 348.024414062 726.974609375 349.724609375 727.825195312 c 0
 355.673828125 731.224609375 360.774414062 732.924804688 366.724609375 732.924804688 c 0
 382.874023438 732.924804688 398.173828125 728.674804688 412.624023438 720.174804688 c 0
 427.07421875 711.674804688 438.974609375 700.625 449.173828125 686.174804688 c 0
 459.374023438 671.724609375 468.724609375 655.575195312 475.524414062 637.724609375 c 0
 482.32421875 619.875 487.423828125 602.025390625 489.124023438 584.174804688 c 0
 490.82421875 569.724609375 491.673828125 554.424804688 491.673828125 536.575195312 c 0
EndSplineSet
Validated: 524289
EndChar

StartChar: asterisk
Encoding: 42 42 20
Width: 570
VWidth: 902
GlyphClass: 2
Flags: HMW
HStem: 311.3 68<186.989 206.114> 318.1 60.35<517.214 534.639> 323.2 44.2<435.189 443.689 399.914 458.564>
VStem: 287.714 52.7 372.714 56.1<175.3 199.1>
LayerCount: 2
Fore
SplineSet
394.814453125 161.700195312 m 0x98
 388.864257812 161.700195312 383.763671875 163.400390625 379.513671875 165.950195312 c 0
 377.814453125 166.799804688 375.263671875 168.5 374.4140625 170.200195312 c 0
 373.564453125 171.900390625 372.713867188 174.450195312 372.713867188 176.150390625 c 0
 371.864257812 199.099609375 365.9140625 233.099609375 354.864257812 276.450195312 c 2
 348.9140625 298.549804688 l 1
 336.1640625 279.849609375 l 2
 298.763671875 227.150390625 274.963867188 192.299804688 265.614257812 175.299804688 c 0
 263.064453125 170.200195312 258.814453125 165.950195312 254.564453125 163.400390625 c 0
 250.314453125 161.700195312 245.213867188 159.150390625 240.963867188 159.150390625 c 2
 235.864257812 159.150390625 l 2
 234.1640625 159.150390625 230.763671875 159.150390625 227.364257812 160 c 0
 223.963867188 160.849609375 219.713867188 162.549804688 218.013671875 164.25 c 0
 216.314453125 165.950195312 213.763671875 168.5 212.9140625 171.900390625 c 0
 212.064453125 175.299804688 211.213867188 177.849609375 211.213867188 180.400390625 c 2
 211.213867188 187.200195312 l 2
 211.213867188 193.150390625 214.614257812 199.099609375 219.713867188 206.75 c 2
 308.114257812 317.25 l 1
 285.1640625 316.400390625 l 2
 241.814453125 313 209.513671875 311.299804688 189.114257812 311.299804688 c 0
 184.864257812 311.299804688 180.614257812 313 178.064453125 313.849609375 c 0
 175.513671875 314.700195312 172.963867188 317.25 171.263671875 319.799804688 c 0
 168.713867188 324.049804688 167.013671875 328.299804688 167.013671875 333.400390625 c 2
 168.713867188 341.900390625 l 2
 168.713867188 346.150390625 170.4140625 350.400390625 172.114257812 354.650390625 c 0
 178.064453125 365.700195312 184.013671875 373.349609375 191.6640625 376.75 c 0
 195.9140625 378.450195312 199.314453125 379.299804688 203.564453125 379.299804688 c 2
 206.114257812 379.299804688 l 2
 229.9140625 377.599609375 269.864257812 374.200195312 326.814453125 369.950195312 c 1
 321.713867188 384.400390625 l 2
 308.963867188 426.049804688 297.064453125 457.5 287.713867188 479.599609375 c 0
 286.013671875 484.700195312 285.1640625 489.799804688 285.1640625 494.900390625 c 0
 285.1640625 500 286.013671875 505.950195312 287.713867188 511.049804688 c 0
 291.114257812 520.400390625 296.213867188 527.200195312 303.013671875 529.75 c 0
 308.114257812 533.150390625 313.213867188 534.849609375 318.314453125 534.849609375 c 0
 322.564453125 534.849609375 327.6640625 533.150390625 331.9140625 529.75 c 0
 336.1640625 526.349609375 339.564453125 521.25 340.4140625 515.299804688 c 0
 342.963867188 501.700195312 352.314453125 462.599609375 369.314453125 397.150390625 c 1
 382.9140625 414.150390625 l 2
 412.6640625 452.400390625 436.463867188 484.700195312 453.463867188 511.049804688 c 0
 457.713867188 518.700195312 463.6640625 524.650390625 469.614257812 528.049804688 c 0
 475.564453125 531.450195312 481.513671875 533.150390625 485.763671875 533.150390625 c 0
 490.013671875 533.150390625 494.263671875 531.450195312 496.814453125 528.900390625 c 2
 497.6640625 528.900390625 l 2
 499.364257812 528.049804688 501.9140625 525.5 502.763671875 521.25 c 0
 502.763671875 519.549804688 503.614257812 516.150390625 503.614257812 513.599609375 c 0
 503.614257812 502.549804688 500.213867188 492.349609375 491.713867188 483 c 0
 468.763671875 456.650390625 441.564453125 423.5 411.814453125 383.549804688 c 2
 399.9140625 367.400390625 l 1x38
 420.314453125 367.400390625 l 2
 467.064453125 367.400390625 501.9140625 370.799804688 524.013671875 376.75 c 0
 527.4140625 377.599609375 530.814453125 378.450195312 532.513671875 378.450195312 c 0x58
 536.763671875 378.450195312 540.1640625 375.900390625 541.864257812 373.349609375 c 0
 545.263671875 369.099609375 547.814453125 364 547.814453125 359.75 c 0
 547.814453125 355.5 546.114257812 349.549804688 542.713867188 341.900390625 c 0
 536.763671875 330.849609375 530.814453125 323.200195312 524.013671875 319.799804688 c 0
 522.314453125 318.950195312 519.763671875 318.099609375 518.064453125 318.099609375 c 0
 516.364257812 318.099609375 514.6640625 318.950195312 513.814453125 318.950195312 c 0
 500.213867188 321.5 476.4140625 323.200195312 440.713867188 323.200195312 c 0x38
 429.6640625 323.200195312 413.513671875 322.349609375 392.263671875 322.349609375 c 1
 427.114257812 211 l 2
 427.963867188 206.75 428.814453125 201.650390625 428.814453125 196.549804688 c 0
 428.814453125 191.450195312 427.963867188 187.200195312 426.263671875 182.950195312 c 0
 423.713867188 175.299804688 419.463867188 169.349609375 414.364257812 165.950195312 c 0
 409.263671875 162.549804688 402.463867188 161.700195312 394.814453125 161.700195312 c 0x98
EndSplineSet
Validated: 524289
EndChar

StartChar: plus
Encoding: 43 43 21
Width: 570
VWidth: 910
GlyphClass: 2
Flags: HMW
HStem: 374.5 50.15<326.979 351.629 326.979 351.629>
LayerCount: 2
Fore
SplineSet
247.079101562 373.650390625 m 2
 237.728515625 373.650390625 230.928710938 375.349609375 229.228515625 379.599609375 c 0
 227.529296875 382.150390625 225.829101562 385.549804688 225.829101562 389.799804688 c 0
 225.829101562 391.5 226.678710938 394.900390625 226.678710938 397.450195312 c 0
 228.37890625 405.950195312 232.62890625 412.75 238.579101562 418.700195312 c 0
 244.529296875 423.799804688 251.329101562 426.349609375 260.678710938 426.349609375 c 2
 263.228515625 426.349609375 l 2
 299.779296875 425.5 326.12890625 424.650390625 343.12890625 424.650390625 c 2
 351.62890625 424.650390625 l 1
 359.279296875 458.650390625 366.928710938 491.799804688 372.87890625 524.950195312 c 0
 373.728515625 533.450195312 377.12890625 540.25 381.37890625 544.5 c 0
 387.329101562 550.450195312 394.978515625 553 405.178710938 553 c 2
 407.728515625 553 l 2
 413.678710938 553 418.779296875 551.299804688 422.178710938 548.75 c 0
 423.029296875 547.900390625 423.87890625 545.349609375 423.87890625 541.950195312 c 0
 423.87890625 538.549804688 423.029296875 535.150390625 421.329101562 530.049804688 c 0
 411.978515625 496.900390625 403.478515625 461.200195312 394.12890625 422.950195312 c 1
 494.428710938 422.950195312 l 2
 502.928710938 422.950195312 508.029296875 421.25 508.87890625 419.549804688 c 0
 509.728515625 417.849609375 511.428710938 415.299804688 511.428710938 411.049804688 c 0
 511.428710938 405.099609375 509.728515625 398.299804688 507.178710938 392.349609375 c 0
 505.478515625 388.950195312 502.928710938 385.549804688 500.37890625 382.150390625 c 0
 496.12890625 377.049804688 490.178710938 374.5 482.529296875 374.5 c 2
 482.529296875 374.5 480.829101562 375.349609375 479.12890625 375.349609375 c 0
 470.62890625 375.349609375 458.728515625 376.200195312 441.728515625 376.200195312 c 0
 424.728515625 376.200195312 405.178710938 375.349609375 382.228515625 375.349609375 c 1
 377.978515625 354.950195312 372.87890625 334.549804688 368.62890625 313.299804688 c 0
 364.37890625 292.049804688 360.978515625 279.299804688 360.12890625 275.049804688 c 0
 357.579101562 264 353.329101562 257.200195312 349.079101562 252.950195312 c 0
 343.978515625 249.549804688 338.029296875 247 331.228515625 247 c 0
 325.279296875 247 321.029296875 247.849609375 318.478515625 249.549804688 c 0
 315.928710938 251.25 315.079101562 254.650390625 315.079101562 259.75 c 0
 315.079101562 263.150390625 315.079101562 266.549804688 315.928710938 270.799804688 c 2
 339.728515625 374.5 l 1
 326.978515625 374.5 l 1
 247.079101562 373.650390625 l 2
EndSplineSet
Validated: 524289
EndChar

StartChar: comma
Encoding: 44 44 22
Width: 570
VWidth: 845
GlyphClass: 2
Flags: HMW
VStem: 178.834 198.9
LayerCount: 2
Fore
SplineSet
178.833984375 -162.125 m 2
 178.833984375 -159.575195312 l 2
 178.833984375 -154.474609375 181.383789062 -148.525390625 187.333984375 -141.724609375 c 0
 202.633789062 -123.875 227.284179688 -85.625 260.434570312 -27.8251953125 c 0
 293.583984375 29.974609375 314.833984375 70.775390625 324.184570312 93.724609375 c 0
 325.883789062 99.6748046875 330.984375 104.775390625 336.083984375 108.174804688 c 0
 341.184570312 111.575195312 346.284179688 113.275390625 350.534179688 113.275390625 c 2
 351.383789062 113.275390625 l 2
 356.484375 113.275390625 361.583984375 112.424804688 365.833984375 111.575195312 c 0
 370.083984375 109.875 374.333984375 106.474609375 376.034179688 101.375 c 0
 376.883789062 99.6748046875 377.734375 97.125 377.734375 94.5751953125 c 0
 377.734375 92.025390625 376.034179688 86.9248046875 374.333984375 80.974609375 c 0
 363.284179688 52.9248046875 342.034179688 11.275390625 311.434570312 -45.6748046875 c 0
 280.833984375 -102.625 259.583984375 -138.325195312 247.684570312 -151.075195312 c 0
 237.484375 -162.125 226.434570312 -170.625 213.684570312 -174.875 c 0
 206.883789062 -176.575195312 200.934570312 -178.275390625 195.833984375 -178.275390625 c 0
 193.284179688 -178.275390625 189.883789062 -177.424804688 188.184570312 -176.575195312 c 0
 185.633789062 -175.724609375 183.083984375 -173.174804688 181.383789062 -171.474609375 c 0
 179.684570312 -168.924804688 178.833984375 -165.525390625 178.833984375 -162.125 c 2
EndSplineSet
Validated: 524289
EndChar

StartChar: hyphen
Encoding: 45 45 23
Width: 570
VWidth: 893
GlyphClass: 2
Flags: HMW
HStem: 259.875 52.7<245.025 279.025> 267.525 47.6<423.1 446.475>
LayerCount: 2
Fore
SplineSet
264.150390625 312.575195312 m 0x80
 293.900390625 312.575195312 329.600585938 312.575195312 371.250976562 313.424804688 c 0
 412.900390625 314.275390625 436.700195312 315.125 442.650390625 315.125 c 0x40
 450.30078125 315.125 455.400390625 313.424804688 457.100585938 311.724609375 c 0
 458.80078125 308.325195312 459.650390625 303.224609375 458.80078125 296.424804688 c 0
 457.100585938 287.075195312 452.000976562 279.424804688 447.750976562 275.174804688 c 0
 442.650390625 270.075195312 435.850585938 267.525390625 426.500976562 267.525390625 c 0
 419.700195312 267.525390625 392.500976562 265.825195312 345.750976562 263.275390625 c 0
 299.000976562 260.724609375 265.850585938 259.875 248.000976562 259.875 c 0
 242.05078125 259.875 236.950195312 260.724609375 234.400390625 262.424804688 c 0
 231.850585938 264.125 231.000976562 267.525390625 231.000976562 272.625 c 0
 231.000976562 276.025390625 231.850585938 279.424804688 232.700195312 283.674804688 c 0
 233.55078125 293.025390625 236.950195312 300.674804688 241.200195312 304.924804688 c 0
 247.150390625 310.025390625 254.80078125 312.575195312 264.150390625 312.575195312 c 0x80
EndSplineSet
Validated: 524289
EndChar

StartChar: period
Encoding: 46 46 24
Width: 570
VWidth: 859
GlyphClass: 2
Flags: HMW
HStem: 7.75 110.5<270.378 324.778 276.753 324.778>
VStem: 242.753 111.35<41.325 86.375>
LayerCount: 2
Fore
SplineSet
354.102539062 81.7001953125 m 0
 354.102539062 77.4501953125 353.252929688 72.349609375 352.40234375 67.25 c 0
 349.002929688 51.099609375 342.203125 38.349609375 329.453125 27.2998046875 c 0
 316.703125 16.25 301.40234375 9.4501953125 283.552734375 7.75 c 2
 276.752929688 7.75 l 2
 264.002929688 7.75 255.502929688 12 249.552734375 20.5 c 0
 245.302734375 28.150390625 242.752929688 36.650390625 242.752929688 46 c 0
 242.752929688 51.099609375 243.602539062 56.2001953125 244.453125 61.2998046875 c 0
 247.852539062 76.599609375 257.203125 89.349609375 271.65234375 100.400390625 c 0
 287.802734375 112.299804688 302.252929688 118.25 318.40234375 118.25 c 0
 331.15234375 118.25 341.352539062 114 347.302734375 105.5 c 0
 351.552734375 98.7001953125 354.102539062 91.0498046875 354.102539062 81.7001953125 c 0
EndSplineSet
Validated: 524289
EndChar

StartChar: slash
Encoding: 47 47 25
Width: 570
VWidth: 901
GlyphClass: 2
Flags: W
LayerCount: 2
Fore
SplineSet
97.7431640625 25.5498046875 m 0
 97.7431640625 28.099609375 98.5927734375 31.5 98.5927734375 34.900390625 c 0
 100.29296875 49.349609375 107.092773438 62.099609375 116.443359375 74.849609375 c 0
 225.243164062 210.849609375 318.743164062 331.549804688 397.79296875 437.799804688 c 0
 447.943359375 502.400390625 501.493164062 576.349609375 558.443359375 658.799804688 c 0
 564.392578125 666.450195312 569.493164062 672.400390625 576.29296875 675.799804688 c 0
 583.092773438 679.200195312 589.04296875 681.75 594.142578125 681.75 c 0
 599.243164062 681.75 603.493164062 680.049804688 608.592773438 678.349609375 c 0
 613.693359375 674.950195312 617.092773438 669.849609375 617.092773438 663.049804688 c 0
 617.092773438 655.400390625 611.142578125 645.200195312 603.493164062 632.450195312 c 0
 583.092773438 603.549804688 528.693359375 533 439.443359375 419.950195312 c 0
 350.193359375 306.900390625 295.79296875 237.200195312 276.243164062 209.150390625 c 0
 263.493164062 191.299804688 243.092773438 161.549804688 214.193359375 119.900390625 c 0
 185.29296875 78.25 167.443359375 52.75 160.642578125 43.400390625 c 0
 149.592773438 28.9501953125 136.842773438 19.599609375 124.092773438 13.650390625 c 0
 118.142578125 11.9501953125 113.892578125 10.25 110.493164062 10.25 c 0
 107.092773438 10.25 103.693359375 11.099609375 101.993164062 12.7998046875 c 2
 101.142578125 12.7998046875 l 2
 99.443359375 14.5 97.7431640625 19.599609375 97.7431640625 25.5498046875 c 0
EndSplineSet
Validated: 524289
EndChar

StartChar: zero
Encoding: 48 48 26
Width: 570
VWidth: 902
GlyphClass: 2
Flags: HMW
HStem: 41.85 51<284.258 284.683> 603.7 48.45<419.408 420.258>
VStem: 158.458 65.45<165.525 231.4>
LayerCount: 2
Fore
SplineSet
167.80859375 231.400390625 m 0
 168.658203125 237.349609375 171.208007812 251.799804688 176.30859375 273.900390625 c 0
 181.408203125 296 185.658203125 313.849609375 189.05859375 327.450195312 c 0
 192.458007812 341.049804688 197.55859375 358.900390625 203.508789062 381.849609375 c 0
 209.458007812 404.799804688 215.408203125 424.349609375 220.508789062 441.349609375 c 0
 225.608398438 458.349609375 232.408203125 477.049804688 240.908203125 495.75 c 0
 249.408203125 514.450195312 257.05859375 532.299804688 264.708007812 546.75 c 0
 283.408203125 581.599609375 307.208007812 607.099609375 336.958007812 624.950195312 c 0
 366.708007812 642.799804688 400.708007812 652.150390625 438.108398438 652.150390625 c 0
 456.80859375 652.150390625 474.658203125 648.75 489.958007812 641.099609375 c 0
 505.258789062 633.450195312 518.008789062 622.400390625 528.208007812 608.799804688 c 0
 538.408203125 595.200195312 545.208007812 577.349609375 549.458007812 554.400390625 c 0
 551.158203125 543.349609375 552.008789062 531.450195312 552.008789062 517.849609375 c 0
 552.008789062 504.25 550.30859375 490.650390625 548.608398438 473.650390625 c 0
 544.358398438 445.599609375 537.55859375 413.299804688 529.908203125 377.599609375 c 0
 522.258789062 341.900390625 512.908203125 305.349609375 502.708007812 269.650390625 c 0
 492.508789062 233.950195312 483.158203125 205.900390625 473.80859375 187.200195312 c 0
 456.80859375 151.5 439.80859375 121.75 422.80859375 100.5 c 0
 415.158203125 90.2998046875 408.358398438 80.9501953125 399.008789062 74.150390625 c 0
 389.658203125 67.349609375 381.158203125 61.400390625 372.658203125 57.150390625 c 0
 364.158203125 52.900390625 354.80859375 49.5 344.608398438 47.7998046875 c 0
 334.408203125 46.099609375 324.208007812 43.5498046875 314.008789062 42.7001953125 c 0
 303.80859375 41.849609375 291.908203125 41.849609375 277.458007812 41.849609375 c 0
 256.208007812 41.849609375 236.658203125 46.099609375 218.80859375 54.599609375 c 0
 200.958007812 63.099609375 188.208007812 75 178.008789062 91.150390625 c 0
 167.80859375 107.299804688 161.008789062 126.849609375 159.30859375 150.650390625 c 0
 159.30859375 156.599609375 158.458007812 162.549804688 158.458007812 168.5 c 0
 158.458007812 187.200195312 161.858398438 208.450195312 167.80859375 231.400390625 c 0
339.508789062 575.650390625 m 0
 319.958007812 556.950195312 302.108398438 527.200195312 285.108398438 486.400390625 c 0
 279.158203125 471.950195312 273.208007812 454.099609375 268.108398438 435.400390625 c 0
 263.008789062 416.700195312 257.05859375 393.75 251.108398438 366.549804688 c 0
 245.158203125 339.349609375 240.908203125 319.799804688 239.208007812 308.75 c 2
 227.30859375 249.25 l 2
 227.30859375 247.549804688 225.608398438 244.150390625 225.608398438 239.900390625 c 0
 225.608398438 235.650390625 223.908203125 232.25 223.908203125 230.549804688 c 2
 211.158203125 188.049804688 l 1
 241.758789062 220.349609375 l 1
 328.458007812 324.900390625 409.208007812 432 486.55859375 541.650390625 c 1
 490.80859375 545.900390625 l 1
 488.258789062 551.849609375 l 2
 480.608398438 568.849609375 470.408203125 580.75 456.80859375 590.099609375 c 0
 444.05859375 599.450195312 428.758789062 603.700195312 411.758789062 603.700195312 c 0
 383.708007812 603.700195312 359.05859375 594.349609375 339.508789062 575.650390625 c 0
329.30859375 97.099609375 m 0
 340.358398438 99.650390625 352.258789062 103.900390625 363.30859375 111.549804688 c 0
 386.258789062 125.150390625 405.80859375 151.5 423.658203125 189.75 c 0
 427.05859375 197.400390625 433.008789062 216.950195312 441.508789062 247.549804688 c 0
 450.858398438 278.150390625 461.05859375 313 471.258789062 352.950195312 c 0
 481.458007812 392.900390625 488.258789062 431.150390625 494.208007812 467.700195312 c 2
 501.008789062 512.75 l 1
 475.508789062 475.349609375 l 1
 396.458007812 351.25 314.008789062 247.549804688 225.608398438 163.400390625 c 1
 221.358398438 160 l 1
 222.208007812 154.049804688 l 2
 226.458007812 131.099609375 235.80859375 114.950195312 250.258789062 104.75 c 0
 261.30859375 97.099609375 275.758789062 92.849609375 292.758789062 92.849609375 c 0
 306.358398438 92.849609375 318.258789062 94.5498046875 329.30859375 97.099609375 c 0
EndSplineSet
Validated: 524289
EndChar

StartChar: one
Encoding: 49 49 27
Width: 570
VWidth: 904
GlyphClass: 2
Flags: HMW
HStem: 56.625 56.95
LayerCount: 2
Fore
SplineSet
475.091796875 94.025390625 m 2
 475.091796875 88.0751953125 l 2
 473.392578125 78.724609375 469.142578125 71.9248046875 463.192382812 65.974609375 c 0
 457.2421875 60.025390625 447.892578125 56.625 435.142578125 56.625 c 0
 262.591796875 58.3251953125 164.841796875 60.025390625 146.142578125 60.025390625 c 0
 138.4921875 60.025390625 134.2421875 61.724609375 132.541992188 65.125 c 0
 130.841796875 67.6748046875 129.142578125 70.224609375 129.142578125 73.625 c 0
 129.142578125 77.025390625 130.841796875 80.4248046875 130.841796875 83.8251953125 c 0
 132.541992188 93.1748046875 135.091796875 100.825195312 141.041992188 106.775390625 c 0
 146.9921875 112.724609375 154.642578125 115.275390625 163.9921875 115.275390625 c 0
 187.791992188 115.275390625 228.591796875 114.424804688 285.541992188 113.575195312 c 1
 291.4921875 141.625 296.591796875 163.724609375 298.291992188 178.174804688 c 0
 298.291992188 182.424804688 300.841796875 196.875 305.942382812 221.525390625 c 2
 317.841796875 276.775390625 l 2
 319.541992188 287.825195312 325.4921875 309.075195312 332.291992188 339.674804688 c 0
 339.091796875 370.275390625 345.041992188 393.224609375 348.442382812 408.525390625 c 0
 361.192382812 462.924804688 373.942382812 520.724609375 390.942382812 581.075195312 c 1
 367.9921875 562.375 l 2
 328.041992188 528.375 299.142578125 507.974609375 282.142578125 500.325195312 c 0
 280.442382812 499.474609375 278.7421875 498.625 277.041992188 498.625 c 0
 273.642578125 498.625 269.392578125 502.025390625 265.9921875 506.275390625 c 0
 261.7421875 512.224609375 260.892578125 517.325195312 260.892578125 522.424804688 c 0
 260.892578125 524.125 261.7421875 525.825195312 261.7421875 527.525390625 c 0
 262.591796875 535.174804688 265.142578125 541.974609375 269.392578125 547.924804688 c 0
 273.642578125 553.875 279.591796875 559.825195312 288.942382812 567.474609375 c 0
 305.091796875 580.224609375 321.2421875 594.674804688 339.091796875 609.125 c 2
 379.041992188 642.275390625 l 2
 388.392578125 648.224609375 396.892578125 653.325195312 404.541992188 657.575195312 c 0
 412.192382812 661.825195312 418.142578125 664.375 422.392578125 664.375 c 0
 430.041992188 664.375 437.692382812 660.125 445.341796875 652.474609375 c 0
 451.291992188 646.525390625 455.541992188 641.424804688 455.541992188 637.174804688 c 2
 455.541992188 636.325195312 l 1
 455.541992188 636.325195312 443.642578125 592.125 420.692382812 503.724609375 c 0
 397.7421875 419.575195312 384.9921875 371.125 382.442382812 357.525390625 c 0
 370.541992188 300.575195312 360.341796875 252.974609375 352.692382812 215.575195312 c 0
 348.442382812 194.325195312 341.642578125 159.474609375 333.9921875 111.025390625 c 1
 355.2421875 111.025390625 384.142578125 110.174804688 418.142578125 109.325195312 c 0
 436.841796875 109.325195312 449.591796875 108.474609375 454.692382812 108.474609375 c 0
 459.791992188 108.474609375 464.892578125 107.625 467.442382812 106.775390625 c 0
 469.9921875 105.924804688 472.541992188 104.224609375 472.541992188 103.375 c 0
 474.2421875 101.674804688 475.091796875 98.275390625 475.091796875 94.025390625 c 2
EndSplineSet
Validated: 524289
EndChar

StartChar: two
Encoding: 50 50 28
Width: 570
VWidth: 902
GlyphClass: 2
Flags: HMW
HStem: 48.475 50.15 52.725 54.4<437.105 442.205> 605.225 51<419.68 429.88>
VStem: 498.305 57.8<544.45 547.425>
LayerCount: 2
Fore
SplineSet
285.805664062 48.474609375 m 0xb0
 262.85546875 47.625 238.206054688 46.775390625 211.85546875 46.775390625 c 0
 185.505859375 46.775390625 165.10546875 47.625 150.655273438 49.3251953125 c 0
 147.255859375 49.3251953125 145.555664062 51.875 143.85546875 53.5751953125 c 0
 141.305664062 56.974609375 138.755859375 62.9248046875 138.755859375 72.275390625 c 0
 138.755859375 85.025390625 143.005859375 101.174804688 147.255859375 121.575195312 c 0
 153.206054688 144.525390625 162.555664062 169.174804688 177.85546875 194.674804688 c 0
 193.155273438 220.174804688 212.706054688 245.674804688 237.35546875 270.325195312 c 0
 260.305664062 294.125 283.255859375 313.674804688 307.905273438 328.125 c 0
 366.555664062 362.974609375 406.505859375 386.775390625 424.35546875 400.375 c 0
 449.005859375 419.075195312 467.706054688 440.325195312 478.755859375 462.424804688 c 0
 484.706054688 474.325195312 490.655273438 489.625 494.905273438 508.325195312 c 0
 496.60546875 519.375 498.305664062 528.724609375 498.305664062 538.075195312 c 0
 498.305664062 556.775390625 493.206054688 571.224609375 483.005859375 582.275390625 c 0
 468.555664062 597.575195312 444.755859375 605.224609375 415.005859375 605.224609375 c 0
 394.60546875 605.224609375 375.055664062 598.424804688 353.805664062 583.974609375 c 0
 332.555664062 569.525390625 315.555664062 554.224609375 301.956054688 536.375 c 0
 290.905273438 522.775390625 282.405273438 515.125 277.305664062 515.125 c 2
 273.905273438 515.125 l 2
 273.055664062 515.125 271.35546875 515.125 269.655273438 515.974609375 c 0
 267.956054688 516.825195312 263.706054688 519.375 259.456054688 521.075195312 c 0
 255.206054688 523.625 254.35546875 527.875 254.35546875 533.825195312 c 0
 254.35546875 538.924804688 259.456054688 549.125 267.10546875 565.275390625 c 0
 273.055664062 575.474609375 281.555664062 585.674804688 292.60546875 595.875 c 0
 303.655273438 606.075195312 316.405273438 615.424804688 330.85546875 624.775390625 c 0
 345.305664062 634.125 361.456054688 641.775390625 378.456054688 647.724609375 c 0
 395.456054688 653.674804688 411.60546875 656.224609375 427.755859375 656.224609375 c 0
 480.456054688 656.224609375 516.155273438 643.474609375 537.405273438 617.125 c 0
 550.155273438 600.974609375 556.10546875 579.724609375 556.10546875 552.525390625 c 0
 556.10546875 536.375 554.405273438 518.525390625 550.155273438 498.974609375 c 0
 539.10546875 453.924804688 519.555664062 418.224609375 492.35546875 391.025390625 c 0
 471.956054688 370.625 439.655273438 347.674804688 396.305664062 323.025390625 c 0
 382.706054688 314.525390625 365.706054688 304.325195312 342.755859375 291.575195312 c 0
 317.255859375 277.974609375 294.305664062 261.825195312 275.60546875 242.275390625 c 0
 256.905273438 222.724609375 242.456054688 202.325195312 231.405273438 181.075195312 c 0
 220.35546875 160.674804688 210.155273438 138.575195312 203.35546875 114.775390625 c 2
 199.956054688 102.025390625 l 1
 239.905273438 100.325195312 273.905273438 98.625 301.956054688 98.625 c 0
 323.206054688 98.625 339.35546875 99.474609375 352.956054688 100.325195312 c 0
 366.555664062 101.174804688 377.60546875 102.025390625 386.956054688 102.875 c 0
 396.305664062 103.724609375 412.456054688 105.424804688 437.10546875 107.125 c 2x70
 444.755859375 107.125 l 2
 448.155273438 107.125 451.555664062 107.974609375 454.956054688 107.974609375 c 0
 458.35546875 107.974609375 461.755859375 107.125 463.456054688 107.125 c 0
 464.305664062 106.275390625 466.005859375 104.575195312 467.706054688 103.724609375 c 2
 467.706054688 100.325195312 l 1
 467.706054688 96.9248046875 l 2
 467.706054688 90.974609375 466.005859375 84.1748046875 463.456054688 77.375 c 0
 460.905273438 70.5751953125 455.805664062 64.625 450.706054688 59.525390625 c 0
 447.305664062 55.275390625 443.905273438 52.724609375 440.505859375 52.724609375 c 0
 406.505859375 52.724609375 356.35546875 51.875 285.805664062 48.474609375 c 0xb0
EndSplineSet
Validated: 524289
EndChar

StartChar: three
Encoding: 51 51 29
Width: 570
VWidth: 902
GlyphClass: 2
Flags: HMW
HStem: 42.15 51<292.5 311.2> 332.85 64.6<318 335.425> 604.85 51<401.3 413.2>
VStem: 434.875 62.9<234.675 282.7> 487.575 58.65<549.175 550.025>
LayerCount: 2
Fore
SplineSet
491.825195312 223.200195312 m 0xf0
 479.075195312 167.950195312 453.575195312 123.75 416.17578125 90.599609375 c 0
 380.475585938 58.2998046875 337.125976562 42.150390625 285.275390625 42.150390625 c 0
 269.125976562 42.150390625 253.825195312 44.7001953125 238.525390625 50.650390625 c 0
 223.225585938 55.75 210.475585938 62.5498046875 199.42578125 71.0498046875 c 0
 188.375976562 79.5498046875 179.025390625 89.75 171.375976562 99.9501953125 c 0
 163.725585938 110.150390625 158.625976562 120.349609375 156.92578125 129.700195312 c 0
 156.075195312 133.950195312 155.225585938 138.200195312 155.225585938 143.299804688 c 0
 155.225585938 148.400390625 156.92578125 153.5 158.625976562 158.599609375 c 0
 162.875976562 167.099609375 167.975585938 173.049804688 174.775390625 176.450195312 c 0
 181.575195312 179.849609375 187.525390625 181.549804688 191.775390625 181.549804688 c 0
 193.475585938 181.549804688 196.025390625 180.700195312 197.725585938 180.700195312 c 0
 203.67578125 179 207.92578125 173.900390625 212.17578125 164.549804688 c 0
 219.825195312 145.849609375 231.725585938 128.849609375 248.725585938 114.400390625 c 0
 264.025390625 99.9501953125 281.875976562 93.150390625 303.125976562 93.150390625 c 0
 333.725585938 93.150390625 360.92578125 103.349609375 384.725585938 123.75 c 0
 408.525390625 144.150390625 424.67578125 171.349609375 431.475585938 204.5 c 0
 433.17578125 217.25 434.875976562 229.150390625 434.875976562 240.200195312 c 0
 434.875976562 263.150390625 429.775390625 282.700195312 417.025390625 298 c 0
 398.325195312 320.950195312 361.775390625 332.849609375 309.075195312 332.849609375 c 0
 306.525390625 332.849609375 303.125976562 334.549804688 301.42578125 335.400390625 c 0
 299.725585938 336.25 297.17578125 338.799804688 295.475585938 342.200195312 c 0
 292.92578125 346.450195312 291.225585938 351.549804688 291.225585938 357.5 c 0
 291.225585938 359.200195312 292.075195312 362.599609375 292.075195312 365.150390625 c 0
 293.775390625 375.349609375 298.025390625 383 303.125976562 388.950195312 c 0
 308.225585938 394.900390625 314.17578125 397.450195312 321.825195312 397.450195312 c 0
 363.475585938 397.450195312 398.325195312 407.650390625 426.375976562 428.049804688 c 0
 456.975585938 448.450195312 476.525390625 478.200195312 484.17578125 516.450195312 c 0
 485.875976562 525.799804688 487.575195312 533.450195312 487.575195312 541.099609375 c 0xe8
 487.575195312 558.950195312 481.625976562 572.549804688 468.875976562 583.599609375 c 0
 451.875976562 598.049804688 428.92578125 604.849609375 397.475585938 604.849609375 c 0
 387.275390625 604.849609375 376.225585938 602.299804688 364.325195312 598.049804688 c 0
 360.075195312 596.349609375 354.975585938 592.950195312 349.875976562 589.549804688 c 0
 344.775390625 586.150390625 340.525390625 582.75 337.975585938 581.049804688 c 0
 335.42578125 579.349609375 332.025390625 574.25 326.92578125 569.150390625 c 2
 315.875976562 558.099609375 l 2
 314.17578125 556.400390625 310.775390625 551.299804688 306.525390625 545.349609375 c 0
 297.17578125 534.299804688 289.525390625 528.349609375 283.575195312 526.650390625 c 0
 281.875976562 526.650390625 280.17578125 525.799804688 278.475585938 525.799804688 c 0
 274.225585938 525.799804688 270.825195312 527.5 266.575195312 530.049804688 c 0
 264.875976562 531.75 262.325195312 533.450195312 261.475585938 535.150390625 c 0
 260.625976562 536.849609375 260.625976562 540.25 260.625976562 542.799804688 c 0
 260.625976562 552.150390625 264.875976562 562.349609375 272.525390625 575.099609375 c 0
 285.275390625 596.349609375 303.125976562 615.049804688 325.225585938 630.349609375 c 0
 336.275390625 638 349.875976562 644.799804688 364.325195312 649.049804688 c 0
 378.775390625 653.299804688 393.225585938 655.849609375 409.375976562 655.849609375 c 0
 463.775390625 655.849609375 502.875976562 643.099609375 524.975585938 618.450195312 c 0
 539.42578125 603.150390625 546.225585938 582.75 546.225585938 556.400390625 c 0
 546.225585938 541.950195312 543.67578125 524.950195312 539.42578125 507.099609375 c 0
 536.025390625 490.950195312 530.92578125 477.349609375 524.125976562 464.599609375 c 0
 517.325195312 451.849609375 509.67578125 441.650390625 501.17578125 433.150390625 c 0
 492.67578125 424.650390625 483.325195312 417 472.275390625 410.200195312 c 0
 461.225585938 403.400390625 451.025390625 399.150390625 440.825195312 394.900390625 c 0
 431.475585938 390.650390625 421.275390625 387.25 410.225585938 385.549804688 c 2
 369.42578125 376.200195312 l 1
 410.225585938 365.150390625 l 2
 428.075195312 360.900390625 442.525390625 354.950195312 454.42578125 348.150390625 c 0
 466.325195312 341.349609375 476.525390625 332.849609375 484.17578125 321.799804688 c 0
 493.525390625 309.049804688 497.775390625 292.900390625 497.775390625 272.5 c 0
 497.775390625 258.049804688 496.075195312 241.049804688 491.825195312 223.200195312 c 0xf0
EndSplineSet
Validated: 524289
EndChar

StartChar: four
Encoding: 52 52 30
Width: 570
VWidth: 902
GlyphClass: 2
Flags: HMW
HStem: 253.25 46.75<319.873 408.698 397.648 398.498>
VStem: 361.098 42.5 361.098 53.55<67.1 105.35 68.8 105.35>
LayerCount: 2
Fore
SplineSet
367.047851562 51.7998046875 m 0xa0
 362.797851562 56.900390625 361.09765625 62 361.09765625 67.099609375 c 2
 361.09765625 68.7998046875 l 1
 365.34765625 86.650390625 372.147460938 118.950195312 381.498046875 166.549804688 c 2
 398.498046875 253.25 l 1
 354.297851562 253.25 l 2
 285.448242188 253.25 234.448242188 249.849609375 199.59765625 242.200195312 c 0
 196.198242188 242.200195312 192.797851562 241.349609375 190.248046875 241.349609375 c 0
 187.698242188 241.349609375 184.297851562 241.349609375 182.59765625 242.200195312 c 0
 179.198242188 243.900390625 176.647460938 246.450195312 174.948242188 249 c 0
 173.248046875 254.950195312 171.547851562 261.75 171.547851562 269.400390625 c 0
 171.547851562 273.650390625 173.248046875 278.75 174.09765625 285.549804688 c 0
 174.948242188 292.349609375 177.498046875 299.150390625 180.897460938 305.099609375 c 0
 190.248046875 320.400390625 209.797851562 345.900390625 241.248046875 381.599609375 c 0
 270.998046875 417.299804688 306.698242188 460.650390625 349.198242188 513.349609375 c 0
 391.698242188 566.049804688 423.998046875 605.150390625 444.397460938 629.799804688 c 0
 452.897460938 639.150390625 461.397460938 646.799804688 469.897460938 651.900390625 c 0
 478.397460938 657 486.047851562 658.700195312 491.998046875 658.700195312 c 2
 492.84765625 658.700195312 l 1
 497.948242188 658.700195312 l 2
 503.897460938 658.700195312 509.84765625 657 514.09765625 654.450195312 c 0
 518.34765625 651.900390625 520.047851562 646.799804688 520.047851562 640 c 2
 520.047851562 640 519.198242188 638.299804688 519.198242188 637.450195312 c 0
 518.34765625 617.900390625 513.248046875 587.299804688 505.59765625 546.5 c 0
 497.948242188 505.700195312 491.147460938 470 485.198242188 441.950195312 c 2
 454.59765625 300 l 1
 472.448242188 300 486.897460938 299.150390625 497.948242188 299.150390625 c 0
 506.448242188 299.150390625 511.547851562 296.599609375 513.248046875 294.900390625 c 0
 514.948242188 291.5 514.948242188 286.400390625 514.09765625 279.599609375 c 0
 512.397460938 270.25 508.147460938 262.599609375 503.897460938 258.349609375 c 0
 498.797851562 252.400390625 491.998046875 249.849609375 481.797851562 249.849609375 c 0
 471.59765625 249.849609375 458.84765625 250.700195312 444.397460938 251.549804688 c 1
 425.698242188 162.299804688 414.647460938 111.299804688 414.647460938 99.400390625 c 0
 414.647460938 83.25 410.397460938 69.650390625 403.59765625 58.599609375 c 0xc0
 397.647460938 48.400390625 390.84765625 43.2998046875 383.198242188 43.2998046875 c 0
 377.248046875 43.2998046875 372.147460938 45.849609375 367.047851562 51.7998046875 c 0xa0
467.34765625 596.650390625 m 1
 443.547851562 571.150390625 l 1
 350.897460938 461.5 284.59765625 375.650390625 245.498046875 314.450195312 c 2
 233.59765625 296.599609375 l 1
 254.84765625 298.299804688 l 2
 282.047851562 300 315.198242188 300.849609375 352.59765625 300.849609375 c 0
 367.897460938 300.849609375 386.59765625 300 408.698242188 300 c 1
 433.34765625 412.200195312 450.34765625 499.75 461.397460938 562.650390625 c 2
 467.34765625 596.650390625 l 1
EndSplineSet
Validated: 524289
EndChar

StartChar: five
Encoding: 53 53 31
Width: 570
VWidth: 902
GlyphClass: 2
Flags: HMW
HStem: 46.95 51<282.297 296.747> 420.1 54.4<385.572 436.997> 590.1 52.7<527.947 577.247 564.072 577.247> 595.2 51.85
VStem: 464.622 59.5<330 374.625>
LayerCount: 2
Fore
SplineSet
518.171875 306.200195312 m 0xd8
 508.822265625 264.549804688 495.221679688 228 478.221679688 194.849609375 c 0
 462.072265625 161.700195312 443.372070312 134.5 423.822265625 113.25 c 0
 404.272460938 92 382.171875 75 358.372070312 63.9501953125 c 0
 334.572265625 52.900390625 309.921875 46.9501953125 283.572265625 46.9501953125 c 0
 263.171875 46.9501953125 243.622070312 49.5 226.622070312 54.599609375 c 0
 208.772460938 59.7001953125 195.171875 66.5 184.971679688 74.150390625 c 0
 174.772460938 81.7998046875 167.971679688 90.2998046875 162.022460938 99.650390625 c 0
 156.072265625 109 150.971679688 118.349609375 148.421875 127.700195312 c 0
 147.572265625 133.650390625 147.572265625 138.75 147.572265625 143.849609375 c 0
 147.572265625 148.950195312 147.572265625 154.900390625 149.272460938 159.150390625 c 0
 152.671875 165.950195312 158.622070312 171.049804688 166.272460938 175.299804688 c 0
 175.622070312 179.549804688 182.421875 181.25 185.822265625 181.25 c 0
 186.671875 181.25 188.372070312 180.400390625 190.072265625 180.400390625 c 0
 191.772460938 180.400390625 194.322265625 179.549804688 195.171875 177.849609375 c 0
 196.872070312 174.450195312 199.421875 169.349609375 201.971679688 163.400390625 c 0
 211.322265625 139.599609375 224.921875 122.599609375 242.772460938 111.549804688 c 0
 257.221679688 102.200195312 273.372070312 97.9501953125 291.221679688 97.9501953125 c 0
 329.471679688 97.9501953125 365.171875 115.799804688 395.772460938 151.5 c 0
 425.522460938 187.200195312 446.772460938 233.099609375 459.522460938 291.75 c 0
 462.921875 308.75 464.622070312 323.200195312 464.622070312 336.799804688 c 0
 464.622070312 354.650390625 461.221679688 369.950195312 455.272460938 382.700195312 c 0
 449.322265625 396.299804688 440.822265625 406.5 428.072265625 412.450195312 c 0
 417.872070312 417.549804688 405.971679688 420.099609375 392.372070312 420.099609375 c 0
 378.772460938 420.099609375 364.322265625 417.549804688 349.872070312 414.150390625 c 0
 341.372070312 412.450195312 331.171875 407.349609375 317.572265625 399.700195312 c 0
 314.171875 398 309.072265625 394.599609375 303.122070312 390.349609375 c 0
 297.171875 386.099609375 292.921875 382.700195312 291.221679688 381 c 0
 289.522460938 379.299804688 281.872070312 371.650390625 269.122070312 360.599609375 c 0
 259.772460938 352.950195312 248.721679688 347.849609375 236.822265625 347 c 0
 235.971679688 347 235.122070312 346.150390625 234.272460938 346.150390625 c 0
 230.022460938 346.150390625 225.772460938 347.849609375 221.522460938 349.549804688 c 0
 215.572265625 352.099609375 213.022460938 361.450195312 213.022460938 377.599609375 c 0
 213.022460938 388.650390625 214.721679688 402.25 218.122070312 419.25 c 0
 221.522460938 436.25 225.772460938 454.099609375 230.872070312 471.950195312 c 0
 235.971679688 489.799804688 241.921875 509.349609375 247.872070312 530.599609375 c 0
 253.822265625 551.849609375 257.221679688 567.150390625 258.921875 578.200195312 c 1
 258.072265625 581.599609375 l 2
 256.372070312 585 255.522460938 589.25 255.522460938 594.349609375 c 0
 255.522460938 596.049804688 256.372070312 599.450195312 256.372070312 601.150390625 c 0
 256.372070312 609.650390625 258.921875 617.299804688 262.322265625 624.099609375 c 0
 265.721679688 630.900390625 269.122070312 636 274.221679688 640.25 c 0
 279.322265625 644.5 284.421875 647.049804688 288.671875 647.049804688 c 0
 306.522460938 647.049804688 347.322265625 646.200195312 413.622070312 645.349609375 c 0
 482.471679688 644.5 536.022460938 643.650390625 573.421875 643.650390625 c 0
 574.272460938 643.650390625 575.971679688 642.799804688 576.822265625 642.799804688 c 0xe8
 577.671875 642.799804688 578.522460938 641.099609375 578.522460938 640.25 c 0
 580.221679688 636 581.921875 631.75 581.921875 626.650390625 c 2
 581.921875 623.25 l 2
 581.921875 616.450195312 579.372070312 610.5 577.671875 604.549804688 c 0
 576.822265625 602 575.122070312 599.450195312 574.272460938 597.75 c 0
 573.421875 596.049804688 571.721679688 593.5 570.022460938 592.650390625 c 0
 568.322265625 591.799804688 566.622070312 590.099609375 564.921875 590.099609375 c 0
 563.221679688 590.099609375 559.822265625 588.400390625 557.272460938 588.400390625 c 2
 551.322265625 588.400390625 l 2
 550.471679688 588.400390625 547.072265625 589.25 542.822265625 589.25 c 0
 538.572265625 589.25 534.322265625 590.099609375 530.072265625 590.099609375 c 0
 525.822265625 590.099609375 514.772460938 590.950195312 496.921875 592.650390625 c 0
 479.072265625 594.349609375 462.921875 596.049804688 449.322265625 596.900390625 c 0
 435.721679688 597.75 417.872070312 598.599609375 393.221679688 598.599609375 c 0
 368.572265625 598.599609375 339.671875 596.900390625 308.221679688 595.200195312 c 1
 305.671875 584.150390625 301.421875 565.450195312 294.622070312 538.25 c 0
 287.822265625 511.049804688 283.572265625 491.5 281.022460938 478.75 c 0
 278.471679688 466 273.372070312 437.950195312 264.872070312 394.599609375 c 1
 286.122070312 417.549804688 l 2
 303.122070312 434.549804688 322.671875 447.299804688 347.322265625 458.349609375 c 0
 371.971679688 469.400390625 399.171875 474.5 427.221679688 474.5 c 0
 446.772460938 474.5 463.772460938 470.25 477.372070312 461.75 c 0
 492.671875 454.099609375 502.022460938 442.200195312 509.671875 427.75 c 0
 519.022460938 409.900390625 524.122070312 387.799804688 524.122070312 361.450195312 c 0
 524.122070312 343.599609375 522.421875 324.900390625 518.171875 306.200195312 c 0xd8
EndSplineSet
Validated: 524289
EndChar

StartChar: six
Encoding: 54 54 32
Width: 570
VWidth: 903
GlyphClass: 2
Flags: HMW
HStem: 45.125 51<280.335 309.66> 397.875 54.4<363.635 420.585>
VStem: 166.86 49.3<212.15 216.825> 458.41 60.35<307.775 357.925>
LayerCount: 2
Fore
SplineSet
508.559570312 264.424804688 m 0
 501.759765625 234.674804688 489.859375 204.924804688 473.709960938 177.724609375 c 0
 457.559570312 150.525390625 439.709960938 126.724609375 420.159179688 108.025390625 c 0
 402.309570312 89.3251953125 382.759765625 73.1748046875 360.659179688 62.125 c 0
 338.559570312 51.0751953125 316.459960938 45.125 294.359375 45.125 c 0
 266.309570312 45.125 241.659179688 51.0751953125 222.109375 63.8251953125 c 0
 202.559570312 76.5751953125 188.959960938 94.4248046875 180.459960938 117.375 c 0
 171.959960938 140.325195312 166.859375 167.525390625 166.859375 198.974609375 c 0
 166.859375 234.674804688 172.809570312 274.625 183.859375 319.674804688 c 0
 194.909179688 368.125 209.359375 411.474609375 227.209960938 448.875 c 0
 245.059570312 486.275390625 263.759765625 518.575195312 282.459960938 544.924804688 c 0
 300.309570312 571.275390625 320.709960938 593.375 342.809570312 611.224609375 c 0
 364.909179688 629.075195312 388.709960938 642.674804688 412.509765625 652.025390625 c 0
 438.009765625 661.375 466.059570312 667.325195312 497.509765625 669.875 c 2
 503.459960938 669.875 l 2
 511.109375 669.875 517.909179688 668.174804688 522.159179688 665.625 c 0
 523.859375 664.775390625 524.709960938 662.224609375 525.559570312 660.525390625 c 0
 526.409179688 658.825195312 527.259765625 656.275390625 527.259765625 655.424804688 c 2
 527.259765625 652.025390625 l 2
 527.259765625 647.775390625 523.009765625 641.825195312 515.359375 635.025390625 c 0
 507.709960938 628.224609375 500.909179688 623.125 493.259765625 621.424804688 c 0
 487.309570312 620.575195312 477.959960938 618.025390625 465.209960938 615.474609375 c 0
 452.459960938 612.924804688 441.409179688 609.525390625 432.059570312 606.974609375 c 0
 423.559570312 604.424804688 413.359375 600.174804688 402.309570312 595.075195312 c 0
 379.359375 584.025390625 353.859375 564.474609375 327.509765625 535.575195312 c 0
 313.909179688 520.275390625 300.309570312 499.875 285.859375 473.525390625 c 0
 271.409179688 447.174804688 260.359375 424.224609375 252.709960938 403.825195312 c 2
 237.409179688 361.325195312 l 1
 269.709960938 392.775390625 l 2
 287.559570312 412.325195312 308.809570312 427.625 332.609375 437.825195312 c 0
 356.409179688 448.025390625 382.759765625 452.275390625 409.959960938 452.275390625 c 0
 431.209960938 452.275390625 449.909179688 449.724609375 466.059570312 442.924804688 c 0
 482.209960938 436.125 493.259765625 425.924804688 502.609375 411.474609375 c 0
 513.659179688 394.474609375 518.759765625 372.375 518.759765625 343.474609375 c 0
 518.759765625 320.525390625 515.359375 294.174804688 508.559570312 264.424804688 c 0
302.009765625 374.924804688 m 0
 277.359375 359.625 254.409179688 340.075195312 234.009765625 316.275390625 c 2
 232.309570312 314.575195312 l 1
 225.509765625 288.224609375 220.409179688 266.974609375 218.709960938 250.825195312 c 0
 217.009765625 241.474609375 216.159179688 231.275390625 216.159179688 221.075195312 c 0
 216.159179688 203.224609375 218.709960938 186.224609375 223.809570312 169.224609375 c 0
 228.059570312 155.625 233.159179688 142.875 240.809570312 131.825195312 c 0
 248.459960938 120.775390625 257.809570312 112.275390625 270.559570312 105.474609375 c 0
 281.609375 99.525390625 294.359375 96.125 307.959960938 96.125 c 2
 309.659179688 96.125 l 2
 328.359375 96.125 348.759765625 103.775390625 367.459960938 119.924804688 c 0
 386.159179688 136.075195312 403.159179688 154.775390625 417.609375 178.575195312 c 0
 433.759765625 202.375 443.959960938 226.174804688 449.909179688 250.825195312 c 0
 455.859375 276.325195312 458.409179688 298.424804688 458.409179688 317.125 c 0
 458.409179688 338.375 454.159179688 355.375 445.659179688 367.275390625 c 0
 437.159179688 378.325195312 426.959960938 386.825195312 415.909179688 391.075195312 c 0
 404.859375 395.325195312 392.109375 397.875 375.959960938 397.875 c 0
 351.309570312 397.875 326.659179688 390.224609375 302.009765625 374.924804688 c 0
EndSplineSet
Validated: 524289
EndChar

StartChar: seven
Encoding: 55 55 33
Width: 570
VWidth: 901
GlyphClass: 2
Flags: HMW
HStem: 590.725 57.8
LayerCount: 2
Fore
SplineSet
569.619140625 588.174804688 m 0
 558.569335938 571.174804688 539.01953125 545.674804688 511.819335938 511.674804688 c 0
 485.469726562 477.674804688 457.418945312 441.974609375 431.069335938 406.275390625 c 0
 404.719726562 370.575195312 370.719726562 322.974609375 330.76953125 263.474609375 c 0
 290.819335938 203.974609375 250.869140625 142.775390625 210.918945312 79.875 c 0
 201.569335938 65.4248046875 192.219726562 55.224609375 182.01953125 49.275390625 c 0
 174.369140625 45.025390625 168.418945312 42.474609375 162.469726562 42.474609375 c 2
 158.219726562 42.474609375 l 2
 154.819335938 43.3251953125 151.418945312 45.875 149.719726562 48.4248046875 c 0
 148.01953125 50.974609375 147.168945312 54.375 147.168945312 59.474609375 c 0
 147.168945312 64.5751953125 149.719726562 72.224609375 154.819335938 83.275390625 c 0
 194.76953125 141.075195312 236.418945312 198.875 278.069335938 256.674804688 c 0
 318.01953125 314.474609375 352.01953125 359.525390625 378.369140625 394.375 c 0
 404.719726562 429.224609375 427.668945312 462.375 450.619140625 495.525390625 c 0
 473.569335938 528.674804688 491.418945312 555.025390625 502.469726562 575.424804688 c 2
 509.26953125 589.875 l 1
 492.26953125 590.724609375 l 2
 471.01953125 591.150390625 449.344726562 591.362304688 426.92578125 591.362304688 c 0
 404.506835938 591.362304688 381.344726562 591.150390625 357.119140625 590.724609375 c 0
 308.668945312 589.875 276.369140625 586.474609375 259.369140625 582.224609375 c 0
 257.668945312 582.224609375 255.969726562 581.375 255.119140625 581.375 c 0
 254.26953125 581.375 252.569335938 582.224609375 251.719726562 582.224609375 c 0
 250.01953125 583.075195312 247.469726562 585.625 246.619140625 587.325195312 c 0
 244.918945312 593.275390625 243.219726562 600.924804688 244.069335938 611.125 c 0
 245.76953125 617.924804688 250.01953125 623.875 254.26953125 628.974609375 c 0
 258.51953125 634.075195312 264.469726562 638.325195312 275.51953125 640.025390625 c 0
 301.869140625 645.974609375 346.069335938 648.525390625 405.569335938 648.525390625 c 0
 424.26953125 648.525390625 462.51953125 646.825195312 518.619140625 644.275390625 c 0
 545.819335938 643.424804688 560.26953125 642.575195312 561.969726562 642.575195312 c 0
 570.469726562 642.575195312 576.418945312 639.174804688 580.668945312 631.525390625 c 0
 581.51953125 629.825195312 583.219726562 626.424804688 583.219726562 623.875 c 0
 583.219726562 621.325195312 582.369140625 618.775390625 582.369140625 617.075195312 c 0
 581.51953125 609.424804688 577.26953125 599.224609375 569.619140625 588.174804688 c 0
EndSplineSet
Validated: 524289
EndChar

StartChar: eight
Encoding: 56 56 34
Width: 570
VWidth: 901
GlyphClass: 2
Flags: HMW
HStem: 38.15 51.85<292.756 296.581> 611.05 40.8<392.206 426.206 404.531 426.206>
VStem: 150.381 49.3<155.875 191.15> 241.331 51 453.831 56.95<236.625 263.825> 486.981 52.7<519.25 549.85>
LayerCount: 2
Fore
SplineSet
510.78125 259.150390625 m 0xf8
 510.78125 249.799804688 509.081054688 239.599609375 506.53125 227.700195312 c 0
 498.03125 190.299804688 481.03125 155.450195312 454.681640625 124 c 0
 440.231445312 107 426.630859375 93.400390625 410.481445312 80.650390625 c 0
 394.331054688 67.900390625 375.630859375 57.7001953125 353.53125 50.0498046875 c 0
 331.431640625 42.400390625 308.481445312 38.150390625 284.681640625 38.150390625 c 0
 260.03125 38.150390625 237.931640625 41.5498046875 220.081054688 49.2001953125 c 0
 202.231445312 56.849609375 187.78125 65.349609375 178.431640625 76.400390625 c 0
 169.081054688 87.4501953125 161.431640625 101.049804688 157.181640625 117.200195312 c 0
 152.931640625 133.349609375 150.380859375 147.799804688 150.380859375 163.950195312 c 0
 150.380859375 180.099609375 152.081054688 197.950195312 156.331054688 216.650390625 c 0
 160.581054688 234.5 169.081054688 253.200195312 182.681640625 274.450195312 c 0
 196.28125 295.700195312 214.130859375 315.25 234.53125 333.099609375 c 0
 253.231445312 351.799804688 273.630859375 364.549804688 292.331054688 371.349609375 c 2
 312.731445312 378.150390625 l 1
 294.03125 390.049804688 l 2
 273.630859375 402.799804688 259.181640625 418.950195312 250.681640625 440.200195312 c 0
 244.731445312 453.799804688 241.331054688 467.400390625 241.331054688 481 c 0
 241.331054688 488.650390625 242.181640625 496.299804688 243.880859375 503.099609375 c 0
 245.581054688 509.900390625 248.130859375 516.700195312 250.681640625 524.349609375 c 0
 252.380859375 532 256.630859375 539.650390625 261.731445312 549.849609375 c 0
 266.831054688 560.049804688 271.081054688 569.400390625 277.03125 578.75 c 0
 282.981445312 588.099609375 291.481445312 596.599609375 300.831054688 605.950195312 c 0
 310.181640625 615.299804688 319.53125 622.950195312 330.581054688 629.75 c 0
 341.630859375 636.549804688 354.380859375 641.650390625 369.681640625 645.900390625 c 0
 384.981445312 650.150390625 400.28125 651.849609375 417.28125 651.849609375 c 0
 435.130859375 651.849609375 450.431640625 650.150390625 465.731445312 645.900390625 c 0
 481.03125 641.650390625 492.931640625 636.549804688 501.431640625 630.599609375 c 0
 509.931640625 624.650390625 516.731445312 616.150390625 522.681640625 607.650390625 c 0
 528.630859375 599.150390625 533.731445312 590.650390625 535.431640625 582.150390625 c 0
 537.981445312 571.099609375 539.681640625 557.5 539.681640625 542.200195312 c 0xf4
 539.681640625 530.299804688 537.981445312 517.549804688 535.431640625 504.799804688 c 0
 534.581054688 498.849609375 532.03125 492.900390625 529.481445312 486.950195312 c 0
 526.931640625 481 523.53125 475.900390625 520.130859375 470.799804688 c 0
 516.731445312 465.700195312 511.630859375 460.599609375 506.53125 455.5 c 0
 501.431640625 450.400390625 496.331054688 446.150390625 492.081054688 441.900390625 c 0
 485.28125 435.950195312 471.681640625 426.599609375 452.130859375 413.849609375 c 2
 413.880859375 388.349609375 l 1
 429.181640625 379.849609375 l 2
 445.331054688 371.349609375 458.931640625 362 469.981445312 350.950195312 c 0
 481.03125 339.900390625 489.53125 329.700195312 495.481445312 319.5 c 0
 501.431640625 309.299804688 505.681640625 299.950195312 507.380859375 288.900390625 c 0
 509.081054688 277.849609375 510.78125 268.5 510.78125 259.150390625 c 0xf8
452.981445312 594.049804688 m 0
 438.53125 605.099609375 423.231445312 611.049804688 405.380859375 611.049804688 c 2
 404.53125 611.049804688 l 2
 379.880859375 611.049804688 357.78125 600.849609375 335.681640625 580.450195312 c 0
 313.581054688 560.049804688 299.981445312 536.25 294.880859375 511.599609375 c 0
 293.181640625 505.650390625 292.331054688 499.700195312 292.331054688 494.599609375 c 0
 292.331054688 478.450195312 297.431640625 464.849609375 307.630859375 452.099609375 c 0
 320.380859375 436.799804688 342.481445312 421.5 373.931640625 406.200195312 c 2
 377.331054688 404.5 l 1
 380.731445312 405.349609375 l 1
 403.681640625 415.549804688 424.931640625 429.150390625 445.331054688 447 c 0
 468.28125 464.849609375 481.03125 481.849609375 484.431640625 498.849609375 c 0
 486.130859375 506.5 486.981445312 515 486.981445312 523.5 c 0
 486.981445312 532 485.28125 541.349609375 482.731445312 550.700195312 c 0
 477.630859375 568.549804688 467.431640625 583 452.981445312 594.049804688 c 0
208.181640625 148.650390625 m 0
 217.53125 129.950195312 230.28125 114.650390625 248.130859375 105.299804688 c 0
 265.130859375 95.099609375 282.981445312 90 302.53125 90 c 0
 316.981445312 90 331.431640625 93.400390625 346.731445312 98.5 c 0
 362.03125 103.599609375 376.481445312 111.25 390.081054688 120.599609375 c 0
 403.681640625 129.950195312 415.581054688 142.700195312 426.630859375 158.849609375 c 0
 437.681640625 175 445.331054688 192 449.581054688 209.849609375 c 0
 452.130859375 220.900390625 453.831054688 231.950195312 453.831054688 241.299804688 c 0xf8
 453.831054688 249.799804688 452.130859375 259.150390625 449.581054688 270.200195312 c 0
 447.03125 281.25 442.78125 291.450195312 435.981445312 301.650390625 c 0
 430.03125 311.849609375 420.681640625 322.049804688 408.78125 332.25 c 0
 396.880859375 342.450195312 382.431640625 351.799804688 364.581054688 360.299804688 c 2
 362.03125 362 l 1
 358.630859375 361.150390625 l 2
 321.231445312 350.099609375 288.081054688 330.549804688 260.03125 302.5 c 0
 229.431640625 274.450195312 209.880859375 244.700195312 202.231445312 212.400390625 c 0
 200.53125 203.900390625 199.681640625 195.400390625 199.681640625 186.900390625 c 0
 199.681640625 173.299804688 202.231445312 160.549804688 208.181640625 148.650390625 c 0
EndSplineSet
Validated: 524289
EndChar

StartChar: nine
Encoding: 57 57 35
Width: 570
VWidth: 903
GlyphClass: 2
Flags: HMW
HStem: 264.5 54.4<308.487 362.887> 620.65 51<400.287 438.962 409.637 438.962>
VStem: 206.487 57.8<404.325 416.65> 503.137 48.45<497.825 504.625>
LayerCount: 2
Fore
SplineSet
532.037109375 378.400390625 m 0
 520.987304688 334.200195312 506.537109375 294.25 488.686523438 258.549804688 c 0
 470.836914062 222.849609375 450.436523438 191.400390625 430.037109375 166.75 c 0
 410.487304688 142.099609375 388.38671875 120.849609375 364.586914062 103 c 0
 340.787109375 85.150390625 316.13671875 72.400390625 290.63671875 63.0498046875 c 0
 263.436523438 53.7001953125 234.537109375 47.75 203.086914062 45.2001953125 c 0
 201.38671875 45.2001953125 199.686523438 44.349609375 197.987304688 44.349609375 c 0
 190.336914062 44.349609375 184.38671875 46.900390625 179.287109375 49.4501953125 c 0
 177.586914062 50.2998046875 175.037109375 52 174.186523438 53.7001953125 c 0
 173.336914062 55.400390625 173.336914062 58.7998046875 173.336914062 62.2001953125 c 0
 173.336914062 67.2998046875 177.586914062 72.400390625 184.38671875 79.2001953125 c 0
 191.186523438 86 199.686523438 91.099609375 207.336914062 92.7998046875 c 0
 213.287109375 94.5 222.63671875 97.0498046875 236.237304688 100.450195312 c 0
 249.836914062 103.849609375 263.436523438 106.400390625 274.487304688 108.950195312 c 0
 283.836914062 111.5 295.737304688 115.75 308.487304688 120.849609375 c 0
 336.537109375 131.900390625 362.037109375 150.599609375 386.686523438 176.950195312 c 0
 401.987304688 193.950195312 415.586914062 213.5 430.037109375 235.599609375 c 0
 444.487304688 258.549804688 456.38671875 278.950195312 464.037109375 296.799804688 c 2
 482.737304688 343.549804688 l 1
 447.037109375 308.700195312 l 2
 430.88671875 291.700195312 413.037109375 279.799804688 392.63671875 273.849609375 c 0
 372.237304688 267.900390625 347.586914062 264.5 317.836914062 264.5 c 0
 299.13671875 264.5 281.287109375 268.75 265.987304688 279.799804688 c 0
 248.987304688 290.849609375 236.237304688 304.450195312 226.88671875 322.299804688 c 0
 217.537109375 340.150390625 210.737304688 361.400390625 208.186523438 385.200195312 c 0
 207.336914062 392.849609375 206.487304688 400.5 206.487304688 408.150390625 c 0
 206.487304688 425.150390625 208.186523438 441.299804688 212.436523438 458.299804688 c 0
 220.086914062 488.900390625 230.287109375 517.799804688 246.436523438 544.150390625 c 0
 262.586914062 570.5 279.586914062 593.450195312 298.287109375 612.150390625 c 0
 316.13671875 630.849609375 335.686523438 645.299804688 357.787109375 655.5 c 0
 379.88671875 665.700195312 403.686523438 671.650390625 426.63671875 671.650390625 c 0
 451.287109375 671.650390625 472.537109375 666.549804688 490.38671875 657.200195312 c 0
 512.487304688 645.299804688 528.63671875 625.75 538.836914062 599.400390625 c 0
 547.336914062 576.450195312 551.586914062 549.25 551.586914062 517.799804688 c 0
 551.586914062 477.849609375 544.787109375 431.099609375 532.037109375 378.400390625 c 0
495.487304688 547.549804688 m 0
 491.237304688 561.150390625 486.13671875 573.049804688 478.487304688 584.099609375 c 0
 470.836914062 595.150390625 460.63671875 603.650390625 447.88671875 610.450195312 c 0
 436.836914062 617.25 424.086914062 620.650390625 410.487304688 620.650390625 c 2
 409.63671875 620.650390625 l 2
 390.936523438 620.650390625 370.537109375 613.849609375 350.987304688 599.400390625 c 0
 331.436523438 584.950195312 315.287109375 566.25 300.836914062 544.150390625 c 0
 286.38671875 522.049804688 276.186523438 498.25 271.086914062 473.599609375 c 0
 265.987304688 451.5 264.287109375 431.950195312 264.287109375 414.950195312 c 0
 264.287109375 393.700195312 268.537109375 375 276.186523438 360.549804688 c 0
 290.63671875 332.5 316.13671875 318.900390625 351.836914062 318.900390625 c 0
 373.936523438 318.900390625 396.88671875 324.849609375 419.836914062 336.75 c 0
 443.63671875 348.650390625 464.037109375 364.799804688 482.737304688 386.049804688 c 1
 485.287109375 387.75 l 1
 489.537109375 406.450195312 493.787109375 431.950195312 499.737304688 465.950195312 c 0
 501.436523438 475.299804688 503.13671875 485.5 503.13671875 495.700195312 c 0
 503.13671875 513.549804688 500.586914062 530.549804688 495.487304688 547.549804688 c 0
EndSplineSet
Validated: 524289
EndChar

StartChar: colon
Encoding: 58 58 36
Width: 570
VWidth: 887
GlyphClass: 2
Flags: HMW
HStem: 81.85 111.35<290.546 328.371 294.371 328.371> 308.8 111.35<349.621 380.221 349.621 380.221>
VStem: 265.471 91.8<105.65 166.425 109.05 166.425> 317.321 92.65<329.2 398.05 336 398.05>
LayerCount: 2
Fore
SplineSet
317.321289062 336 m 2xd0
 319.021484375 351.299804688 324.122070312 370.849609375 330.071289062 393.799804688 c 0
 330.921875 399.75 333.471679688 404.849609375 336.872070312 408.25 c 0
 340.271484375 411.650390625 345.372070312 414.200195312 350.471679688 415.900390625 c 0
 358.971679688 418.450195312 366.622070312 420.150390625 374.271484375 420.150390625 c 2
 380.221679688 420.150390625 l 2
 388.721679688 420.150390625 396.372070312 418.450195312 403.171875 414.200195312 c 0
 407.421875 411.650390625 409.971679688 405.700195312 409.971679688 398.049804688 c 2
 409.971679688 393.799804688 l 1
 406.571289062 375.950195312 399.771484375 357.25 390.421875 336.849609375 c 0
 386.171875 327.5 380.221679688 319.849609375 371.721679688 315.599609375 c 0
 363.221679688 311.349609375 357.271484375 308.799804688 351.321289062 308.799804688 c 2
 349.622070312 308.799804688 l 2
 339.421875 309.650390625 331.771484375 312.200195312 325.821289062 315.599609375 c 0
 322.421875 317.299804688 319.872070312 319 319.021484375 321.549804688 c 0
 318.171875 324.099609375 317.321289062 326.650390625 317.321289062 329.200195312 c 2
 317.321289062 336 l 2xd0
265.471679688 105.650390625 m 2xe0
 265.471679688 109.049804688 l 1
 269.721679688 131.150390625 l 2
 269.721679688 132.849609375 272.271484375 137.099609375 273.122070312 141.349609375 c 0
 273.971679688 145.599609375 276.521484375 154.099609375 280.771484375 166.849609375 c 0
 281.622070312 171.950195312 284.171875 176.200195312 287.571289062 179.599609375 c 0
 290.971679688 183 295.221679688 186.400390625 299.471679688 188.099609375 c 0
 308.821289062 191.5 316.471679688 193.200195312 323.271484375 193.200195312 c 2
 328.372070312 193.200195312 l 2
 333.471679688 193.200195312 338.571289062 192.349609375 342.821289062 190.650390625 c 0
 347.071289062 188.950195312 349.622070312 186.400390625 353.021484375 182.150390625 c 0
 356.421875 177.900390625 358.122070312 173.650390625 358.122070312 167.700195312 c 2
 358.122070312 167.700195312 357.271484375 166.849609375 357.271484375 166 c 0
 356.421875 147.299804688 350.471679688 127.75 341.122070312 108.200195312 c 0
 336.872070312 99.7001953125 330.071289062 92.900390625 320.721679688 88.650390625 c 0
 311.372070312 84.400390625 303.721679688 81.849609375 296.921875 81.849609375 c 2
 294.372070312 81.849609375 l 2
 286.721679688 81.849609375 279.071289062 85.25 272.271484375 90.349609375 c 0
 268.021484375 94.599609375 265.471679688 99.7001953125 265.471679688 105.650390625 c 2xe0
EndSplineSet
Validated: 524289
EndChar

StartChar: semicolon
Encoding: 59 59 37
Width: 570
VWidth: 864
GlyphClass: 2
Flags: HMW
HStem: 250.075 111.35<363.589 392.489 363.589 392.489>
VStem: 330.439 92.65<274.725 339.325 278.125 339.325>
LayerCount: 2
Fore
SplineSet
392.48828125 361.424804688 m 2
 400.138671875 361.424804688 408.638671875 359.724609375 416.2890625 355.474609375 c 0
 417.98828125 354.625 420.5390625 352.924804688 421.388671875 349.525390625 c 0
 422.23828125 346.125 423.088867188 342.724609375 423.088867188 339.325195312 c 2
 423.088867188 335.075195312 l 1
 419.688476562 317.224609375 412.888671875 298.525390625 403.5390625 278.125 c 0
 399.2890625 268.775390625 392.48828125 261.125 384.838867188 256.875 c 0
 377.188476562 252.625 370.388671875 250.075195312 364.438476562 250.075195312 c 2
 363.588867188 250.075195312 l 2
 349.98828125 251.775390625 339.7890625 256.875 333.838867188 264.525390625 c 0
 332.138671875 267.075195312 330.438476562 270.474609375 330.438476562 274.724609375 c 2
 330.438476562 278.125 l 2
 332.138671875 293.424804688 336.388671875 312.974609375 342.338867188 335.924804688 c 0
 344.0390625 341.025390625 347.438476562 346.125 350.838867188 349.525390625 c 0
 354.23828125 352.924804688 359.338867188 355.474609375 364.438476562 357.174804688 c 0
 369.5390625 358.875 373.7890625 360.575195312 378.0390625 360.575195312 c 0
 382.2890625 360.575195312 386.5390625 361.424804688 388.23828125 361.424804688 c 2
 392.48828125 361.424804688 l 2
348.2890625 80.0751953125 m 0
 343.188476562 62.224609375 309.188476562 -10.875 246.2890625 -140.075195312 c 0
 242.0390625 -149.424804688 236.088867188 -156.224609375 229.2890625 -160.474609375 c 0
 222.48828125 -164.724609375 216.5390625 -166.424804688 210.588867188 -166.424804688 c 2
 208.888671875 -166.424804688 l 2
 201.23828125 -166.424804688 194.438476562 -163.875 189.338867188 -158.775390625 c 0
 187.638671875 -157.075195312 185.938476562 -153.674804688 185.938476562 -150.275390625 c 0
 185.938476562 -146.875 186.7890625 -144.325195312 187.638671875 -140.924804688 c 0
 191.888671875 -128.174804688 204.638671875 -95.025390625 226.73828125 -42.3251953125 c 0
 248.838867188 10.375 265.838867188 49.474609375 278.588867188 77.525390625 c 0
 281.98828125 85.1748046875 284.5390625 91.125 287.938476562 95.375 c 0
 291.338867188 99.625 295.588867188 102.174804688 297.2890625 103.025390625 c 0
 303.23828125 104.724609375 308.338867188 105.575195312 312.588867188 105.575195312 c 0
 313.438476562 105.575195312 315.98828125 104.724609375 317.688476562 104.724609375 c 0
 327.0390625 104.724609375 335.5390625 103.025390625 343.188476562 98.775390625 c 0
 347.438476562 97.0751953125 349.98828125 92.8251953125 349.98828125 88.5751953125 c 0
 349.98828125 86.875 349.138671875 83.474609375 348.2890625 80.0751953125 c 0
EndSplineSet
Validated: 524289
EndChar

StartChar: less
Encoding: 60 60 38
Width: 570
VWidth: 902
GlyphClass: 2
Flags: HMW
HStem: 630.5 17G<576.506 581.606>
LayerCount: 2
Fore
SplineSet
601.15625 621.150390625 m 0
 601.15625 616.049804688 598.606445312 610.950195312 594.356445312 605 c 0
 586.706054688 595.650390625 572.256835938 584.599609375 552.706054688 571.849609375 c 0
 518.706054688 549.75 465.15625 514.049804688 393.756835938 463.049804688 c 0
 322.356445312 412.049804688 272.206054688 378.049804688 245.856445312 360.200195312 c 1
 254.356445312 351.700195312 l 2
 271.356445312 334.700195312 289.206054688 313.450195312 308.756835938 289.650390625 c 0
 328.306640625 265.849609375 345.306640625 244.599609375 359.756835938 225.049804688 c 0
 374.206054688 205.5 389.506835938 184.25 407.356445312 163.849609375 c 0
 425.206054688 143.450195312 441.356445312 127.299804688 455.806640625 115.400390625 c 0
 472.806640625 101.799804688 480.456054688 90.75 480.456054688 82.25 c 0
 480.456054688 79.7001953125 478.756835938 75.4501953125 476.206054688 69.5 c 0
 473.65625 65.25 470.256835938 61 465.15625 58.4501953125 c 0
 460.056640625 55.900390625 453.256835938 53.349609375 445.606445312 52.5 c 2
 440.506835938 52.5 l 2
 434.556640625 52.5 427.756835938 54.2001953125 420.106445312 56.75 c 0
 409.056640625 61 396.306640625 70.349609375 381.006835938 84.7998046875 c 0
 365.706054688 99.25 349.556640625 117.950195312 331.706054688 139.200195312 c 0
 313.856445312 160.450195312 297.706054688 181.700195312 280.706054688 203.799804688 c 0
 263.706054688 225.900390625 245.006835938 248 225.456054688 271.799804688 c 0
 205.90625 295.599609375 189.756835938 314.299804688 175.306640625 327.900390625 c 0
 172.756835938 330.450195312 171.056640625 335.549804688 171.056640625 342.349609375 c 0
 171.056640625 350.849609375 172.756835938 359.349609375 177.006835938 367 c 0
 181.256835938 374.650390625 185.506835938 379.75 191.456054688 383.150390625 c 0
 227.15625 407.799804688 269.65625 438.400390625 318.106445312 474.099609375 c 0
 366.556640625 509.799804688 411.606445312 542.099609375 451.556640625 571 c 0
 491.506835938 599.900390625 526.356445312 622.849609375 556.106445312 639.849609375 c 0
 565.456054688 644.950195312 573.106445312 647.5 579.90625 647.5 c 0
 583.306640625 647.5 586.706054688 647.5 588.40625 645.799804688 c 0
 595.206054688 640.700195312 599.456054688 633.900390625 600.306640625 626.25 c 0
 600.306640625 624.549804688 601.15625 622.849609375 601.15625 621.150390625 c 0
EndSplineSet
Validated: 524289
EndChar

StartChar: equal
Encoding: 61 61 39
Width: 570
VWidth: 908
GlyphClass: 2
Flags: HMW
HStem: 278.275 42.5 278.275 49.3 444.875 51.85<272.987 277.237>
LayerCount: 2
Fore
SplineSet
277.662109375 496.725585938 m 2x20
 279.362304688 496.725585938 l 2
 310.233398438 495.729492188 344.020507812 495.317382812 380.724609375 495.317382812 c 0
 406.678710938 495.317382812 434.091796875 495.5234375 462.961914062 495.875 c 0
 490.162109375 495.875 505.461914062 496.725585938 511.412109375 496.725585938 c 0
 519.912109375 496.725585938 525.862304688 495.875 526.711914062 494.174804688 c 0
 527.5625 492.475585938 528.412109375 489.075195312 528.412109375 484.825195312 c 0
 528.412109375 478.875 526.711914062 472.075195312 524.162109375 465.275390625 c 0
 520.762695312 457.625 516.512695312 451.674804688 510.5625 449.975585938 c 0
 508.012695312 449.125 505.461914062 448.275390625 503.762695312 448.275390625 c 2
 497.8125 448.275390625 l 2
 485.912109375 448.275390625 474.862304688 449.125 464.662109375 449.125 c 2
 435.762695312 449.125 l 1
 348.211914062 446.575195312 l 2
 312.512695312 445.725585938 286.162109375 444.875 268.3125 444.875 c 0
 258.961914062 444.875 251.3125 447.424804688 247.0625 451.674804688 c 0
 244.512695312 454.225585938 242.8125 457.625 242.8125 461.875 c 0
 242.8125 463.575195312 243.662109375 466.125 243.662109375 467.825195312 c 0
 245.362304688 476.325195312 250.461914062 483.125 256.412109375 489.075195312 c 0
 262.362304688 494.174804688 268.3125 496.725585938 277.662109375 496.725585938 c 2x20
243.662109375 327.576171875 m 2x60
 260.662109375 327.576171875 280.211914062 326.725585938 304.012695312 326.725585938 c 0
 327.8125 326.725585938 355.862304688 328.42578125 389.862304688 328.42578125 c 2
 473.162109375 330.125976562 l 2
 482.512695312 330.125976562 487.612304688 328.42578125 488.461914062 326.725585938 c 0
 490.162109375 324.17578125 490.162109375 319.076171875 489.3125 311.42578125 c 0
 487.612304688 302.92578125 485.0625 296.125976562 480.8125 290.17578125 c 0
 479.112304688 286.776367188 475.711914062 284.225585938 472.3125 283.375976562 c 0
 468.912109375 282.526367188 466.362304688 282.526367188 464.662109375 282.526367188 c 2
 458.711914062 282.526367188 l 2
 445.961914062 282.526367188 431.512695312 283.375976562 414.512695312 283.375976562 c 0
 397.512695312 283.375976562 362.662109375 281.67578125 308.262695312 279.975585938 c 0
 270.862304688 279.125976562 242.8125 278.276367188 225.8125 278.276367188 c 0
 216.461914062 278.276367188 209.662109375 279.975585938 207.112304688 284.225585938 c 0
 205.412109375 286.776367188 204.5625 290.17578125 204.5625 294.42578125 c 0
 204.5625 296.975585938 205.412109375 300.375976562 205.412109375 302.92578125 c 0
 206.262695312 309.725585938 210.512695312 315.67578125 217.3125 320.776367188 c 0xa0
 224.112304688 325.875976562 231.762695312 327.576171875 241.961914062 327.576171875 c 2
 243.662109375 327.576171875 l 2x60
EndSplineSet
Validated: 524289
EndChar

StartChar: greater
Encoding: 62 62 40
Width: 570
VWidth: 903
GlyphClass: 2
Flags: HMW
HStem: 637.5 17G<272.093 277.193 277.193 280.168>
LayerCount: 2
Fore
SplineSet
277.192382812 654.5 m 2
 283.142578125 654.5 289.942382812 652.799804688 297.592773438 650.25 c 0
 308.642578125 646 321.392578125 636.650390625 337.54296875 622.200195312 c 0
 353.692382812 607.75 368.993164062 589.900390625 385.993164062 568.650390625 c 0
 402.993164062 547.400390625 419.993164062 525.299804688 436.993164062 503.200195312 c 0
 453.993164062 481.099609375 472.692382812 459 491.392578125 435.200195312 c 0
 510.092773438 411.400390625 527.942382812 392.700195312 542.392578125 379.099609375 c 0
 544.942382812 376.549804688 546.642578125 371.450195312 546.642578125 364.650390625 c 0
 546.642578125 356.150390625 544.942382812 347.650390625 540.692382812 340 c 0
 536.442382812 332.349609375 532.192382812 327.25 526.243164062 323.849609375 c 0
 490.54296875 300.049804688 448.04296875 269.450195312 399.592773438 233.75 c 0
 351.142578125 198.049804688 306.942382812 164.900390625 266.993164062 136 c 0
 227.04296875 107.099609375 191.342773438 84.150390625 161.592773438 67.150390625 c 0
 152.243164062 62.0498046875 144.592773438 59.5 137.79296875 59.5 c 0
 133.54296875 59.5 130.993164062 59.5 129.29296875 61.2001953125 c 0
 125.892578125 63.75 122.493164062 67.150390625 120.79296875 70.5498046875 c 0
 119.092773438 73.9501953125 117.392578125 75.650390625 117.392578125 79.0498046875 c 0
 117.392578125 82.4501953125 116.54296875 85 116.54296875 85.849609375 c 0
 116.54296875 90.9501953125 119.092773438 96.0498046875 123.342773438 102 c 0
 130.993164062 111.349609375 144.592773438 122.400390625 164.993164062 135.150390625 c 0
 199.842773438 157.25 253.392578125 192.950195312 324.79296875 243.950195312 c 0
 396.192382812 294.950195312 446.342773438 328.950195312 472.692382812 346.799804688 c 1
 463.342773438 355.299804688 l 2
 446.342773438 372.299804688 429.342773438 393.549804688 409.79296875 417.349609375 c 0
 390.243164062 441.150390625 373.243164062 462.400390625 358.79296875 481.950195312 c 0
 344.342773438 501.5 328.192382812 522.75 310.342773438 543.150390625 c 0
 292.493164062 563.549804688 277.192382812 579.700195312 261.892578125 591.599609375 c 0
 244.892578125 605.200195312 237.243164062 616.25 237.243164062 624.75 c 0
 237.243164062 629 238.942382812 633.25 241.493164062 637.5 c 0
 244.04296875 641.75 248.29296875 646 253.392578125 648.549804688 c 0
 258.493164062 651.099609375 264.442382812 653.650390625 272.092773438 654.5 c 2
 277.192382812 654.5 l 2
EndSplineSet
Validated: 524289
EndChar

StartChar: question
Encoding: 63 63 41
Width: 570
VWidth: 903
GlyphClass: 2
Flags: HMW
HStem: 51.4 110.5<253.255 307.655 259.63 307.655> 605.6 51<409.23 420.28>
VStem: 224.78 112.2<84.975 130.025> 490.83 58.65<544.825 547.8>
LayerCount: 2
Fore
SplineSet
549.479492188 552.900390625 m 0
 549.479492188 536.75 546.9296875 518.900390625 542.6796875 499.349609375 c 0
 539.280273438 484.900390625 533.330078125 472.150390625 526.530273438 460.25 c 0
 519.729492188 448.349609375 512.080078125 438.150390625 503.580078125 429.650390625 c 0
 495.080078125 421.150390625 484.879882812 413.5 473.830078125 405.849609375 c 0
 462.780273438 398.200195312 451.729492188 389.700195312 439.830078125 382.049804688 c 0
 427.9296875 374.400390625 417.729492188 365.900390625 406.6796875 356.549804688 c 0
 395.629882812 347.200195312 386.280273438 336.150390625 376.080078125 323.400390625 c 0
 365.879882812 310.650390625 358.229492188 296.200195312 352.280273438 280.049804688 c 0
 347.1796875 267.299804688 340.379882812 257.099609375 332.729492188 250.299804688 c 0
 328.479492188 246.049804688 323.379882812 244.349609375 317.4296875 244.349609375 c 0
 315.729492188 244.349609375 312.330078125 246.049804688 308.080078125 246.049804688 c 0
 303.830078125 246.900390625 299.580078125 249.450195312 297.030273438 251.150390625 c 0
 292.780273438 254.549804688 291.080078125 258.799804688 291.080078125 264.75 c 0
 291.080078125 273.25 294.479492188 284.299804688 300.4296875 297.049804688 c 0
 307.229492188 311.5 315.729492188 325.099609375 325.9296875 337.849609375 c 0
 336.129882812 350.599609375 344.629882812 362.5 354.830078125 371.849609375 c 0
 365.030273438 381.200195312 376.080078125 390.549804688 387.129882812 399.049804688 c 0
 398.1796875 407.549804688 409.229492188 416.049804688 419.4296875 423.700195312 c 0
 429.629882812 431.349609375 439.830078125 439 449.1796875 447.5 c 0
 458.530273438 456 466.1796875 465.349609375 472.979492188 475.549804688 c 0
 479.780273438 485.75 484.879882812 496.799804688 487.4296875 507.849609375 c 0
 489.979492188 518.900390625 490.830078125 529.099609375 490.830078125 538.450195312 c 0
 490.830078125 557.150390625 485.729492188 571.599609375 475.530273438 582.650390625 c 0
 460.229492188 597.950195312 436.4296875 605.599609375 404.129882812 605.599609375 c 0
 395.629882812 605.599609375 387.129882812 603.900390625 377.780273438 599.650390625 c 0
 368.4296875 595.400390625 359.9296875 591.150390625 353.129882812 586.049804688 c 0
 346.330078125 580.950195312 338.6796875 574.150390625 330.1796875 566.5 c 0
 321.6796875 558.849609375 314.879882812 552.049804688 310.629882812 546.950195312 c 0
 306.379882812 541.849609375 300.4296875 535.049804688 293.629882812 527.400390625 c 0
 282.580078125 514.650390625 274.080078125 507 268.129882812 507 c 0
 267.280273438 507 264.729492188 506.150390625 263.879882812 506.150390625 c 0
 263.030273438 506.150390625 260.479492188 507 258.780273438 507.849609375 c 0
 257.080078125 508.700195312 252.830078125 510.400390625 248.580078125 512.099609375 c 0
 244.330078125 514.650390625 241.780273438 518.900390625 241.780273438 524.849609375 c 0
 241.780273438 532.5 246.030273438 542.700195312 255.379882812 556.299804688 c 0
 272.379882812 579.25 294.479492188 601.349609375 320.830078125 621.75 c 0
 334.4296875 631.950195312 349.729492188 640.450195312 366.729492188 647.25 c 0
 383.729492188 654.049804688 400.729492188 656.599609375 417.729492188 656.599609375 c 0
 471.280273438 656.599609375 508.6796875 643.849609375 529.9296875 617.5 c 0
 542.6796875 601.349609375 549.479492188 580.099609375 549.479492188 552.900390625 c 0
336.979492188 125.349609375 m 0
 336.979492188 121.099609375 336.129882812 116 335.280273438 110.900390625 c 0
 331.879882812 94.75 324.229492188 82 311.479492188 70.9501953125 c 0
 298.729492188 59.900390625 283.4296875 53.099609375 266.4296875 51.400390625 c 2
 259.629882812 51.400390625 l 2
 246.879882812 51.400390625 238.379882812 55.650390625 232.4296875 64.150390625 c 0
 227.330078125 71.7998046875 224.780273438 80.2998046875 224.780273438 89.650390625 c 0
 224.780273438 93.900390625 225.629882812 99 226.479492188 104.950195312 c 0
 230.729492188 120.25 239.229492188 133 253.6796875 144.049804688 c 0
 268.979492188 155.950195312 284.280273438 161.900390625 301.280273438 161.900390625 c 0
 314.030273438 161.900390625 324.229492188 157.650390625 330.1796875 149.150390625 c 0
 334.4296875 142.349609375 336.979492188 134.700195312 336.979492188 125.349609375 c 0
EndSplineSet
Validated: 524289
EndChar

StartChar: at
Encoding: 64 64 42
Width: 570
VWidth: 892
GlyphClass: 2
Flags: HMW
HStem: -56.475 51.85<245.377 285.752 258.127 285.752> 139.875 45.05<426.852 453.202> 153.475 47.6<312.102 318.902> 377.875 44.2<370.327 395.402 370.327 395.402> 574.225 55.25<414.952 445.977 426.427 440.027>
VStem: 127.227 51<127.975 143.7> 238.577 45.05<211.275 237.625> 395.827 28.05 524.177 43.35<433.975 496.45>
LayerCount: 2
Fore
SplineSet
458.7265625 84.625 m 2xdf80
 458.7265625 82.9248046875 457.02734375 78.6748046875 455.327148438 73.5751953125 c 0
 453.626953125 68.474609375 450.2265625 61.6748046875 445.126953125 53.1748046875 c 0
 440.876953125 45.525390625 436.626953125 37.875 432.376953125 31.9248046875 c 0
 428.126953125 25.974609375 423.02734375 19.1748046875 416.2265625 10.6748046875 c 0
 409.426757812 2.1748046875 402.626953125 -3.775390625 395.827148438 -9.724609375 c 0
 389.02734375 -15.6748046875 381.376953125 -22.474609375 371.176757812 -28.4248046875 c 0
 360.9765625 -34.375 350.77734375 -39.474609375 340.577148438 -43.724609375 c 0
 330.376953125 -47.974609375 317.626953125 -51.375 304.02734375 -53.0751953125 c 0
 290.426757812 -54.775390625 276.827148438 -56.474609375 262.376953125 -56.474609375 c 2
 258.126953125 -56.474609375 l 2
 232.626953125 -56.474609375 209.676757812 -49.6748046875 190.9765625 -36.0751953125 c 0
 172.27734375 -22.474609375 156.9765625 -3.775390625 145.926757812 20.875 c 0
 133.176757812 49.775390625 127.2265625 85.474609375 127.2265625 127.125 c 0
 127.2265625 160.275390625 130.626953125 195.974609375 139.9765625 234.224609375 c 0
 151.876953125 283.525390625 166.327148438 330.275390625 183.327148438 372.775390625 c 0
 200.327148438 415.275390625 218.176757812 451.825195312 237.7265625 483.275390625 c 0
 257.27734375 514.724609375 280.2265625 541.075195312 302.327148438 563.174804688 c 0
 324.426757812 585.275390625 347.376953125 602.275390625 370.327148438 613.325195312 c 0
 393.27734375 624.375 415.376953125 629.474609375 437.4765625 629.474609375 c 0
 454.4765625 629.474609375 469.77734375 628.625 482.52734375 626.075195312 c 0
 495.27734375 623.525390625 508.02734375 618.424804688 518.2265625 611.625 c 0
 528.426757812 604.825195312 536.926757812 597.174804688 543.7265625 586.974609375 c 0
 550.52734375 576.775390625 556.4765625 562.325195312 560.7265625 545.325195312 c 0
 564.9765625 528.325195312 567.52734375 507.924804688 567.52734375 484.974609375 c 0
 567.52734375 436.525390625 558.176757812 372.775390625 540.327148438 293.724609375 c 0
 530.9765625 253.775390625 517.376953125 218.075195312 499.52734375 188.325195312 c 0
 490.176757812 173.025390625 479.9765625 161.125 468.926757812 152.625 c 0
 457.876953125 144.125 445.9765625 139.875 434.077148438 139.875 c 0
 419.626953125 139.875 409.426757812 144.125 403.4765625 151.775390625 c 0
 398.376953125 158.575195312 395.827148438 168.775390625 395.827148438 181.525390625 c 0
 395.827148438 186.625 395.827148438 192.575195312 396.676757812 199.375 c 2
 404.327148438 256.325195312 l 1
 377.126953125 206.174804688 l 2
 358.426757812 170.474609375 333.77734375 153.474609375 304.02734375 153.474609375 c 0xbf80
 276.827148438 153.474609375 258.126953125 161.974609375 247.926757812 179.825195312 c 0
 241.9765625 190.025390625 238.577148438 202.775390625 238.577148438 219.775390625 c 0
 238.577148438 234.224609375 241.126953125 251.224609375 245.376953125 270.775390625 c 0
 249.626953125 290.325195312 256.426757812 308.174804688 264.926757812 326.025390625 c 0
 273.426757812 343.875 281.926757812 357.474609375 292.126953125 369.375 c 0
 302.327148438 381.275390625 313.376953125 391.474609375 324.426757812 399.974609375 c 0
 335.4765625 408.474609375 347.376953125 413.575195312 358.426757812 416.974609375 c 0
 369.4765625 420.375 379.676757812 422.075195312 389.02734375 422.075195312 c 0
 401.77734375 422.075195312 414.52734375 419.525390625 426.426757812 413.575195312 c 0
 435.77734375 409.325195312 442.577148438 404.224609375 446.827148438 397.424804688 c 0
 447.676757812 394.875 448.52734375 392.325195312 448.52734375 390.625 c 0
 448.52734375 388.924804688 447.676757812 387.224609375 446.827148438 385.525390625 c 0
 441.7265625 377.875 436.626953125 373.625 431.52734375 371.924804688 c 0
 427.27734375 371.075195312 423.02734375 370.224609375 420.4765625 370.224609375 c 0
 416.2265625 370.224609375 406.876953125 371.924804688 393.27734375 376.174804688 c 0
 387.327148438 377.025390625 382.2265625 377.875 378.827148438 377.875 c 2
 370.327148438 377.875 l 2
 361.827148438 377.025390625 353.327148438 373.625 344.827148438 368.525390625 c 0
 336.327148438 363.424804688 328.676757812 358.325195312 321.876953125 350.674804688 c 0
 315.077148438 343.025390625 308.27734375 334.525390625 302.327148438 322.625 c 0
 296.376953125 310.724609375 292.126953125 297.974609375 288.7265625 283.525390625 c 0
 285.327148438 269.075195312 283.626953125 257.174804688 283.626953125 247.825195312 c 2
 283.626953125 237.625 l 2
 283.626953125 227.424804688 287.02734375 218.924804688 292.126953125 212.125 c 0
 298.077148438 204.474609375 306.577148438 201.075195312 317.626953125 201.075195312 c 0
 337.176757812 201.075195312 353.327148438 208.724609375 366.077148438 225.724609375 c 0
 377.126953125 241.025390625 387.327148438 264.825195312 395.827148438 298.825195312 c 0
 396.676757812 303.924804688 403.4765625 309.025390625 414.52734375 313.275390625 c 0
 423.02734375 316.674804688 429.827148438 318.375 435.77734375 318.375 c 0
 439.176757812 318.375 442.577148438 317.525390625 444.27734375 316.674804688 c 2
 445.126953125 315.825195312 l 1
 445.126953125 315.825195312 444.27734375 314.125 444.27734375 312.424804688 c 0
 434.077148438 281.825195312 427.27734375 258.025390625 425.577148438 240.174804688 c 0
 424.7265625 231.674804688 423.876953125 224.025390625 423.876953125 217.224609375 c 0
 423.876953125 210.424804688 424.7265625 205.325195312 426.426757812 201.075195312 c 0
 428.126953125 195.125 432.376953125 190.875 436.626953125 188.325195312 c 0
 440.876953125 186.625 445.126953125 184.924804688 449.376953125 184.924804688 c 0xdf80
 457.02734375 184.924804688 464.676757812 190.025390625 471.4765625 201.075195312 c 0xbf80
 476.577148438 209.575195312 481.676757812 219.775390625 485.926757812 232.525390625 c 0
 493.577148438 253.775390625 499.52734375 274.174804688 503.77734375 292.025390625 c 0
 509.7265625 320.924804688 515.676757812 348.974609375 519.077148438 375.325195312 c 0
 522.4765625 401.674804688 524.176757812 424.625 524.176757812 443.325195312 c 0
 524.176757812 458.625 522.4765625 473.075195312 519.926757812 486.674804688 c 0
 517.376953125 500.275390625 514.827148438 512.174804688 511.426757812 521.525390625 c 0
 508.02734375 530.875 502.926757812 539.375 496.126953125 546.174804688 c 0
 489.327148438 552.974609375 483.376953125 558.924804688 477.426757812 562.325195312 c 0
 471.4765625 565.724609375 465.52734375 569.125 457.876953125 570.825195312 c 0
 450.2265625 572.525390625 444.27734375 574.224609375 440.02734375 574.224609375 c 2
 426.426757812 574.224609375 l 2
 403.4765625 574.224609375 380.52734375 567.424804688 357.577148438 552.125 c 0
 334.626953125 536.825195312 312.52734375 516.424804688 292.126953125 490.075195312 c 0
 271.7265625 463.724609375 253.02734375 431.424804688 236.02734375 394.025390625 c 0
 219.02734375 356.625 205.426757812 314.974609375 195.2265625 269.924804688 c 0
 184.176757812 219.775390625 178.2265625 175.575195312 178.2265625 138.174804688 c 0
 178.2265625 117.775390625 179.926757812 100.775390625 183.327148438 86.3251953125 c 0
 188.426757812 65.9248046875 196.077148438 48.0751953125 205.426757812 33.625 c 0
 214.77734375 19.1748046875 225.827148438 9.8251953125 237.7265625 3.875 c 0
 249.626953125 -2.0751953125 264.077148438 -4.625 278.52734375 -4.625 c 0
 292.9765625 -4.625 307.426757812 -2.9248046875 320.176757812 -0.375 c 0
 332.926757812 2.1748046875 343.126953125 6.4248046875 352.4765625 10.6748046875 c 0
 361.827148438 14.9248046875 370.327148438 20.875 379.676757812 27.6748046875 c 0
 389.02734375 34.474609375 395.827148438 42.125 400.926757812 48.0751953125 c 0
 406.02734375 54.025390625 412.827148438 61.6748046875 419.626953125 70.1748046875 c 0
 423.876953125 76.125 427.27734375 80.375 430.676757812 83.775390625 c 0
 434.926757812 88.875 438.327148438 92.275390625 440.02734375 93.125 c 0
 441.7265625 93.125 443.426757812 94.8251953125 445.126953125 95.6748046875 c 0
 446.827148438 96.525390625 449.376953125 96.525390625 451.077148438 95.6748046875 c 0
 452.77734375 94.8251953125 455.327148438 93.125 456.176757812 92.275390625 c 0
 457.02734375 91.4248046875 458.7265625 88.025390625 458.7265625 86.3251953125 c 2
 458.7265625 84.625 l 2xdf80
445.126953125 315.825195312 m 1024
EndSplineSet
Validated: 524289
EndChar

StartChar: A
Encoding: 65 65 43
Width: 570
VWidth: 905
GlyphClass: 2
Flags: HMW
HStem: 290.4 36.55<432.884 432.884 432.884 441.384>
VStem: 437.134 61.2<111.9 162.9> 441.384 48.45 453.284 52.7
LayerCount: 2
Fore
SplineSet
430.334960938 290.400390625 m 1xa0
 366.584960938 287.849609375 307.084960938 281.049804688 254.384765625 270.849609375 c 1
 226.334960938 222.400390625 197.434570312 167.150390625 167.684570312 105.099609375 c 0
 160.034179688 89.7998046875 152.384765625 79.599609375 143.034179688 75.349609375 c 0
 138.784179688 73.650390625 133.684570312 71.9501953125 130.284179688 71.9501953125 c 0
 126.884765625 71.9501953125 124.334960938 72.7998046875 121.784179688 73.650390625 c 0
 119.234375 74.5 116.684570312 77.0498046875 115.834960938 79.599609375 c 0
 114.984375 82.150390625 114.134765625 85.5498046875 114.134765625 88.9501953125 c 0
 114.134765625 97.4501953125 118.384765625 109.349609375 125.184570312 124.650390625 c 0
 132.834960938 142.5 158.334960938 189.25 204.234375 264.049804688 c 1
 202.534179688 273.400390625 199.984375 275.099609375 198.284179688 270 c 1
 194.034179688 272.549804688 192.334960938 275.950195312 192.334960938 279.349609375 c 0
 192.334960938 280.200195312 193.184570312 281.900390625 193.184570312 283.599609375 c 0
 194.034179688 289.549804688 197.434570312 295.5 205.084960938 301.450195312 c 0
 212.734375 307.400390625 222.084960938 311.650390625 231.434570312 315.049804688 c 1
 232.284179688 322.700195312 233.984375 323.549804688 234.834960938 316.75 c 1
 327.484375 479.950195312 396.334960938 588.75 441.384765625 643.150390625 c 0
 450.734375 654.200195312 459.234375 661 465.184570312 665.25 c 0
 471.134765625 669.5 477.084960938 672.049804688 482.184570312 672.049804688 c 2
 483.034179688 672.049804688 l 1
 486.434570312 672.049804688 l 2
 492.384765625 672.049804688 496.634765625 670.349609375 500.884765625 667.799804688 c 0
 504.284179688 666.099609375 505.984375 661 505.984375 655.049804688 c 2x90
 505.984375 650.799804688 l 1
 500.034179688 580.25 496.634765625 480.799804688 493.234375 351.599609375 c 0
 491.534179688 301.450195312 489.834960938 260.650390625 489.834960938 226.650390625 c 0xa0
 489.834960938 172.25 492.384765625 139.099609375 495.784179688 127.200195312 c 0
 497.484375 122.099609375 498.334960938 117 498.334960938 113.599609375 c 0xc0
 498.334960938 110.200195312 497.484375 106.799804688 496.634765625 103.400390625 c 0
 494.084960938 95.75 488.984375 90.650390625 484.734375 85.5498046875 c 0
 480.484375 80.4501953125 475.384765625 76.2001953125 469.434570312 74.5 c 0
 465.184570312 72.7998046875 462.634765625 71.9501953125 460.084960938 71.9501953125 c 0
 456.684570312 71.9501953125 452.434570312 72.7998046875 449.884765625 74.5 c 0
 443.934570312 77.900390625 439.684570312 87.25 437.984375 101.700195312 c 0
 437.984375 108.5 437.134765625 124.650390625 437.134765625 150.150390625 c 0
 437.134765625 175.650390625 439.684570312 223.25 441.384765625 290.400390625 c 1
 437.984375 298.049804688 434.584960938 298.049804688 430.334960938 290.400390625 c 1xa0
433.734375 574.299804688 m 2
 402.284179688 536.049804688 354.684570312 455.299804688 290.934570312 331.200195312 c 1
 282.434570312 313.349609375 l 1
 301.134765625 315.900390625 l 2
 350.434570312 321.849609375 393.784179688 326.099609375 432.884765625 326.950195312 c 2
 443.084960938 327.799804688 l 1
 453.284179688 597.25 l 1
 433.734375 574.299804688 l 2
EndSplineSet
Validated: 524289
EndChar

StartChar: B
Encoding: 66 66 44
Width: 570
VWidth: 899
GlyphClass: 2
Flags: HMW
HStem: 313.03 39.95<307.428 310.828 310.828 311.678> 595.23 36.55<372.028 386.478 386.478 389.028>
VStem: 443.428 61.2<228.88 232.705 228.88 232.705> 479.128 52.7<503.005 507.255>
LayerCount: 2
Fore
SplineSet
502.927734375 220.380859375 m 2xd0
 498.677734375 199.98046875 489.328125 179.580078125 474.877929688 160.030273438 c 0
 460.427734375 140.48046875 441.728515625 121.780273438 420.478515625 104.780273438 c 0
 400.078125 87.7802734375 374.578125 73.330078125 345.677734375 61.4306640625 c 0
 316.778320312 49.5302734375 286.177734375 41.0302734375 253.028320312 37.630859375 c 1
 247.768554688 33.3271484375 242.509765625 31.17578125 237.25 31.17578125 c 2
 224.978515625 35.080078125 l 1
 219.71875 30.77734375 214.728515625 28.6259765625 209.705078125 28.6259765625 c 0
 205.796875 28.6259765625 201.869140625 29.927734375 197.778320312 32.5302734375 c 0
 180.778320312 30.830078125 168.877929688 29.98046875 160.377929688 29.98046875 c 0
 155.278320312 29.98046875 150.177734375 30.830078125 145.078125 31.6806640625 c 2
 143.377929688 31.6806640625 l 1
 140.828125 31.6806640625 l 2
 134.028320312 31.6806640625 128.927734375 34.23046875 126.377929688 38.48046875 c 0
 124.677734375 40.1806640625 123.828125 43.580078125 123.828125 47.830078125 c 0
 123.828125 52.080078125 124.677734375 56.330078125 126.377929688 61.4306640625 c 0
 134.028320312 85.23046875 145.078125 130.280273438 159.528320312 197.430664062 c 0
 173.978515625 264.580078125 188.427734375 334.280273438 202.028320312 405.680664062 c 0
 209.677734375 443.080078125 215.627929688 468.580078125 218.177734375 481.330078125 c 0
 220.728515625 494.080078125 224.978515625 511.930664062 230.927734375 534.030273438 c 0
 235.177734375 541.680664062 238.578125 556.98046875 242.828125 579.080078125 c 0
 245.377929688 592.680664062 250.478515625 602.880859375 257.278320312 608.830078125 c 0
 264.078125 614.780273438 270.877929688 618.180664062 278.528320312 618.180664062 c 2
 281.927734375 618.180664062 l 1
 282.778320312 618.180664062 l 2
 292.127929688 620.73046875 300.627929688 623.280273438 309.127929688 624.98046875 c 0
 325.278320312 628.380859375 339.728515625 630.930664062 354.177734375 630.930664062 c 0
 361.828125 630.930664062 367.778320312 631.780273438 372.028320312 631.780273438 c 2
 386.478515625 631.780273438 l 1
 394.978515625 631.780273438 l 2
 426.427734375 631.780273438 453.627929688 625.830078125 476.578125 612.23046875 c 0
 499.528320312 598.630859375 514.828125 579.930664062 524.177734375 555.280273438 c 0
 529.278320312 540.830078125 531.828125 526.380859375 531.828125 509.380859375 c 0
 531.828125 496.630859375 530.127929688 482.180664062 526.728515625 467.73046875 c 0
 519.927734375 436.280273438 507.177734375 409.080078125 488.478515625 386.98046875 c 0
 469.778320312 364.880859375 447.677734375 348.73046875 423.028320312 338.530273438 c 1
 415.377929688 329.180664062 408.578125 325.780273438 400.927734375 329.180664062 c 1
 406.418945312 321.859375 411.47265625 318.041015625 416.715820312 318.041015625 c 0
 418.778320312 318.041015625 420.869140625 318.630859375 423.028320312 319.830078125 c 0
 437.478515625 313.880859375 451.927734375 304.530273438 465.528320312 293.48046875 c 0
 479.127929688 282.430664062 489.328125 269.680664062 496.978515625 255.23046875 c 0
 502.078125 245.880859375 504.627929688 236.530273438 504.627929688 228.880859375 c 2xe0
 502.927734375 220.380859375 l 2xd0
298.927734375 584.180664062 m 2
 293.828125 582.48046875 l 1
 278.528320312 519.580078125 268.328125 475.380859375 262.377929688 449.030273438 c 0
 256.427734375 422.680664062 250.478515625 391.23046875 242.828125 355.530273438 c 1
 272.578125 353.830078125 297.228515625 352.98046875 317.627929688 352.98046875 c 0
 332.927734375 352.98046875 347.377929688 354.680664062 360.127929688 357.23046875 c 0
 372.877929688 359.780273438 384.778320312 363.180664062 394.127929688 368.280273438 c 0
 403.478515625 373.380859375 412.828125 379.330078125 421.328125 386.98046875 c 0
 429.828125 394.630859375 437.478515625 401.430664062 443.427734375 409.080078125 c 0
 449.377929688 416.73046875 454.478515625 424.380859375 458.728515625 432.880859375 c 0
 462.978515625 441.380859375 466.377929688 449.880859375 468.927734375 456.680664062 c 0
 471.478515625 463.48046875 474.877929688 471.130859375 476.578125 479.630859375 c 0
 478.278320312 488.130859375 479.127929688 495.780273438 479.127929688 503.430664062 c 0xd0
 479.127929688 511.080078125 478.278320312 517.030273438 477.427734375 522.98046875 c 0
 474.877929688 537.430664062 469.778320312 548.48046875 462.127929688 557.830078125 c 0
 454.478515625 567.180664062 445.978515625 573.98046875 434.927734375 579.930664062 c 0
 417.927734375 590.130859375 399.228515625 595.23046875 378.828125 595.23046875 c 0
 352.478515625 595.23046875 325.278320312 591.830078125 298.927734375 584.180664062 c 2
416.228515625 271.380859375 m 0
 406.877929688 279.880859375 393.278320312 287.530273438 375.427734375 295.180664062 c 0
 357.578125 302.830078125 336.328125 308.780273438 311.677734375 313.030273438 c 1
 310.828125 313.030273438 l 2
 275.127929688 313.030273438 250.478515625 311.330078125 234.328125 311.330078125 c 1
 215.627929688 214.430664062 201.177734375 142.180664062 191.828125 95.4306640625 c 1
 206.278320312 96.2802734375 219.877929688 97.130859375 232.627929688 97.130859375 c 0
 245.377929688 97.130859375 254.728515625 97.98046875 260.677734375 97.98046875 c 0
 283.627929688 98.830078125 305.728515625 103.930664062 327.828125 112.430664062 c 0
 349.927734375 120.930664062 368.627929688 129.430664062 383.927734375 141.330078125 c 0
 399.228515625 153.23046875 411.978515625 165.98046875 422.177734375 178.73046875 c 0
 433.228515625 191.48046875 440.028320312 204.23046875 442.578125 216.130859375 c 0
 442.578125 218.680664062 443.427734375 222.080078125 443.427734375 224.630859375 c 0xe0
 443.427734375 240.780273438 434.078125 256.080078125 416.228515625 271.380859375 c 0
EndSplineSet
Validated: 524289
EndChar

StartChar: C
Encoding: 67 67 45
Width: 570
VWidth: 903
GlyphClass: 2
Flags: HMW
HStem: 26.9 56.95<254.904 297.404 264.254 297.404> 609.15 50.15<478.454 482.279> 649.1 17.85G
VStem: 140.154 65.45<160.775 215.175>
LayerCount: 2
Fore
SplineSet
270.203125 26.900390625 m 2xd0
 264.25390625 26.900390625 l 2
 245.553710938 26.900390625 228.553710938 30.2998046875 212.403320312 37.9501953125 c 0
 196.25390625 45.599609375 183.50390625 54.9501953125 173.303710938 67.7001953125 c 0
 163.103515625 80.4501953125 155.453125 94.900390625 149.50390625 112.75 c 0
 143.553710938 130.599609375 140.153320312 150.150390625 140.153320312 171.400390625 c 0
 140.153320312 188.400390625 141.853515625 205.400390625 146.103515625 223.25 c 0
 155.453125 264.900390625 168.203125 305.700195312 185.203125 344.799804688 c 0
 202.203125 383.900390625 220.053710938 420.450195312 240.453125 451.900390625 c 0
 259.153320312 483.349609375 279.553710938 512.25 301.653320312 538.599609375 c 0
 323.75390625 564.950195312 345.853515625 586.200195312 367.103515625 604.049804688 c 0
 388.353515625 621.900390625 410.453125 635.5 430.853515625 644.849609375 c 0
 451.25390625 654.200195312 469.953125 659.299804688 486.953125 659.299804688 c 0
 504.803710938 659.299804688 520.103515625 656.75 534.553710938 652.5 c 1
 537.103515625 657.599609375 540.50390625 656.75 543.053710938 649.099609375 c 1xb0
 544.75390625 658.450195312 546.453125 661.849609375 547.303710938 657.599609375 c 1
 550.703125 665.25 554.953125 671.200195312 560.903320312 675.450195312 c 0
 566.853515625 679.700195312 571.953125 682.25 577.903320312 682.25 c 2
 582.153320312 683.099609375 l 2
 586.403320312 683.099609375 590.653320312 681.400390625 594.903320312 678 c 0
 600.00390625 673.75 602.553710938 667.799804688 602.553710938 659.299804688 c 0
 602.553710938 645.700195312 600.853515625 629.549804688 597.453125 610.849609375 c 0
 596.603515625 603.200195312 594.903320312 593 591.50390625 581.099609375 c 0
 588.103515625 569.200195312 585.553710938 561.549804688 585.553710938 559.849609375 c 0
 583.853515625 548.799804688 577.053710938 537.75 567.703125 526.700195312 c 0
 558.353515625 515.650390625 550.703125 509.700195312 544.75390625 509.700195312 c 2
 540.50390625 509.700195312 l 2
 534.553710938 509.700195312 529.453125 511.400390625 525.203125 515.650390625 c 0
 521.803710938 518.200195312 520.103515625 522.450195312 520.103515625 527.549804688 c 0
 520.103515625 528.400390625 520.953125 530.950195312 520.953125 533.5 c 0
 521.803710938 538.599609375 526.053710938 553.049804688 532.00390625 576.849609375 c 0
 531.153320312 582.799804688 529.453125 584.5 527.75390625 581.099609375 c 1
 525.203125 582.799804688 520.103515625 587.900390625 512.453125 594.700195312 c 0
 510.75390625 596.400390625 507.353515625 598.950195312 503.103515625 601.5 c 0
 495.453125 606.599609375 486.953125 609.150390625 477.603515625 609.150390625 c 0
 460.603515625 609.150390625 441.053710938 603.200195312 420.653320312 590.450195312 c 0
 400.25390625 577.700195312 379.853515625 559.849609375 359.453125 537.75 c 0
 339.053710938 515.650390625 317.803710938 490.150390625 299.103515625 462.099609375 c 0
 280.403320312 434.049804688 262.553710938 400.900390625 247.25390625 365.200195312 c 0
 230.25390625 329.5 218.353515625 292.099609375 210.703125 256.400390625 c 0
 207.303710938 239.400390625 205.603515625 223.25 205.603515625 207.099609375 c 0
 205.603515625 196.900390625 206.453125 186.700195312 208.153320312 176.5 c 0
 211.553710938 150.150390625 220.053710938 128.049804688 235.353515625 111.049804688 c 0
 249.803710938 93.2001953125 267.653320312 83.849609375 288.903320312 83.849609375 c 0
 305.903320312 83.849609375 321.203125 85.5498046875 338.203125 89.7998046875 c 0
 355.203125 94.0498046875 369.653320312 99.150390625 383.25390625 105.950195312 c 0
 396.853515625 112.75 408.75390625 117.849609375 418.953125 124.650390625 c 0
 429.153320312 131.450195312 438.50390625 138.25 447.853515625 145.900390625 c 0
 454.653320312 150.150390625 460.603515625 154.400390625 464.853515625 156.099609375 c 0
 469.103515625 157.799804688 473.353515625 159.5 477.603515625 159.5 c 0
 480.153320312 159.5 482.703125 158.650390625 484.403320312 156.950195312 c 0
 487.803710938 152.700195312 489.50390625 149.299804688 489.50390625 145.049804688 c 0
 489.50390625 135.700195312 482.703125 122.950195312 468.25390625 107.650390625 c 0
 417.25390625 54.099609375 351.803710938 26.900390625 270.203125 26.900390625 c 2xd0
EndSplineSet
Validated: 524289
EndChar

StartChar: D
Encoding: 68 68 46
Width: 570
VWidth: 902
GlyphClass: 2
Flags: HMW
HStem: 26.1031 51.85<295.584 335.109 306.209 335.109> 657.653 17.85G<292.609 296.009 292.609 292.609>
VStem: 292.609 3.4<637.253 637.253 657.653 657.653> 478.759 55.25<342.303 374.603>
LayerCount: 2
Fore
SplineSet
296.0078125 657.653320312 m 1
 292.608398438 657.653320312 l 1
 293.458007812 669.552734375 295.158203125 674.653320312 296.0078125 672.953125 c 2
 296.0078125 657.653320312 l 1
296.0078125 636.403320312 m 1
 305.358398438 635.552734375 316.408203125 633.002929688 327.458007812 630.453125 c 0
 341.908203125 627.052734375 355.5078125 622.802734375 369.958007812 616.853515625 c 0
 384.408203125 610.903320312 398.858398438 602.403320312 415.0078125 592.203125 c 0
 431.158203125 582.002929688 445.608398438 570.103515625 460.05859375 556.502929688 c 0
 474.5078125 542.903320312 486.408203125 525.903320312 498.30859375 505.502929688 c 0
 510.208007812 485.103515625 518.708007812 463.853515625 524.658203125 440.903320312 c 0
 530.608398438 417.953125 534.0078125 390.752929688 534.0078125 361.002929688 c 0
 534.0078125 323.603515625 529.7578125 283.653320312 519.55859375 241.153320312 c 0
 514.458007812 222.453125 507.658203125 202.052734375 498.30859375 182.502929688 c 0
 488.958007812 162.953125 477.908203125 143.403320312 463.458007812 124.703125 c 0
 449.0078125 106.002929688 434.55859375 89.0029296875 418.408203125 74.552734375 c 0
 403.108398438 60.103515625 386.108398438 47.353515625 368.2578125 38.853515625 c 0
 350.408203125 30.353515625 330.858398438 26.103515625 313.0078125 26.103515625 c 2
 306.208007812 26.103515625 l 2
 284.958007812 26.103515625 263.708007812 27.802734375 242.458007812 29.5029296875 c 0
 221.208007812 31.203125 204.208007812 34.603515625 190.608398438 38.0029296875 c 0
 177.0078125 41.4033203125 164.2578125 44.802734375 153.208007812 48.203125 c 0
 142.158203125 51.603515625 135.358398438 52.453125 132.80859375 52.453125 c 0
 126.0078125 52.453125 120.908203125 55.0029296875 118.358398438 59.2529296875 c 0
 116.658203125 60.953125 115.80859375 65.203125 115.80859375 69.453125 c 0
 115.80859375 73.703125 116.658203125 77.953125 118.358398438 83.052734375 c 0
 126.0078125 110.252929688 137.908203125 158.703125 154.05859375 228.403320312 c 0
 170.208007812 298.103515625 184.658203125 372.903320312 200.80859375 453.653320312 c 0
 206.7578125 485.103515625 211.858398438 505.502929688 214.408203125 515.703125 c 0
 216.958007812 525.903320312 220.358398438 541.203125 225.458007812 562.453125 c 0
 230.55859375 583.703125 233.958007812 596.453125 234.80859375 600.703125 c 0
 237.358398438 613.453125 242.458007812 623.653320312 249.2578125 629.603515625 c 0
 256.05859375 635.552734375 262.858398438 638.953125 270.5078125 638.953125 c 0
 277.30859375 638.953125 284.958007812 638.103515625 292.608398438 637.252929688 c 1
 288.358398438 608.353515625 283.2578125 586.252929688 278.158203125 571.802734375 c 0
 260.30859375 498.703125 244.158203125 420.502929688 229.708007812 339.752929688 c 0
 222.908203125 296.403320312 216.108398438 259.002929688 208.458007812 229.252929688 c 0
 198.2578125 180.802734375 190.608398438 140.853515625 184.658203125 111.103515625 c 0
 186.358398438 103.453125 189.7578125 101.752929688 191.458007812 107.703125 c 1
 211.0078125 96.6533203125 231.408203125 89.0029296875 252.658203125 84.7529296875 c 0
 273.908203125 80.5029296875 299.408203125 77.953125 327.458007812 77.953125 c 0
 342.7578125 77.953125 358.05859375 83.052734375 373.358398438 94.953125 c 0
 388.658203125 106.853515625 402.2578125 121.302734375 414.158203125 139.153320312 c 0
 426.05859375 157.002929688 436.2578125 175.703125 446.458007812 196.103515625 c 0
 456.658203125 216.502929688 464.30859375 237.752929688 468.55859375 257.302734375 c 0
 475.358398438 286.203125 478.7578125 313.403320312 478.7578125 338.903320312 c 0
 478.7578125 410.302734375 454.108398438 468.103515625 403.108398438 511.453125 c 0
 381.858398438 530.153320312 348.708007812 550.552734375 305.358398438 571.802734375 c 1
 305.358398438 576.052734375 l 1
 302.80859375 576.052734375 l 1
 302.80859375 576.903320312 l 1
 301.108398438 576.903320312 l 1
 301.108398438 577.752929688 l 1
 299.408203125 577.752929688 l 1
 299.408203125 578.603515625 l 1
 296.0078125 578.603515625 l 1
 296.0078125 636.403320312 l 1
EndSplineSet
Validated: 524289
EndChar

StartChar: E
Encoding: 69 69 47
Width: 570
VWidth: 899
GlyphClass: 2
Flags: HMW
HStem: 32.5 53.55<189.687 258.112> 44.4 56.1<418.762 458.287 424.287 458.287> 314.7 52.7<238.137 270.437> 331.7 48.45<485.912 510.987> 572.25 50.15<445.537 463.812 425.137 469.337>
VStem: 123.387 65.45<72.875 112.825>
LayerCount: 2
Fore
SplineSet
434.487304688 44.400390625 m 2x4c
 424.287109375 44.400390625 l 2
 413.237304688 44.400390625 395.38671875 43.5498046875 369.037109375 41.849609375 c 0
 288.287109375 35.900390625 230.487304688 32.5 198.186523438 32.5 c 0xac
 181.186523438 32.5 169.287109375 33.349609375 158.237304688 34.2001953125 c 0
 148.88671875 34.2001953125 141.237304688 40.150390625 133.586914062 49.5 c 0
 127.63671875 57.150390625 123.38671875 67.349609375 123.38671875 78.400390625 c 0
 123.38671875 89.4501953125 129.336914062 118.349609375 140.38671875 165.099609375 c 0
 148.88671875 202.5 158.237304688 243.299804688 169.287109375 286.650390625 c 0
 180.336914062 330 189.686523438 379.299804688 200.737304688 432.849609375 c 0
 207.537109375 466.849609375 212.63671875 488.950195312 215.186523438 500 c 0
 217.737304688 511.049804688 221.987304688 527.200195312 227.936523438 548.450195312 c 0
 233.88671875 569.700195312 236.436523438 582.450195312 237.287109375 588.400390625 c 0
 240.686523438 601.150390625 245.787109375 610.5 252.586914062 617.299804688 c 0
 259.38671875 624.099609375 267.037109375 627.5 274.686523438 627.5 c 1
 275.537109375 620.700195312 277.237304688 620.700195312 278.086914062 627.5 c 0
 281.487304688 627.5 284.037109375 626.650390625 286.586914062 625.799804688 c 0
 289.13671875 624.950195312 291.686523438 622.400390625 292.537109375 619 c 0
 293.38671875 609.650390625 295.086914062 607.099609375 295.936523438 611.349609375 c 1
 297.63671875 605.400390625 300.186523438 605.400390625 301.88671875 613.049804688 c 1
 342.686523438 619 394.537109375 622.400390625 455.737304688 622.400390625 c 0
 471.88671875 622.400390625 485.487304688 621.549804688 499.936523438 621.549804688 c 0
 530.537109375 620.700195312 554.336914062 618.150390625 572.186523438 616.450195312 c 0
 581.537109375 614.75 587.487304688 612.200195312 589.186523438 609.650390625 c 0
 589.186523438 608.799804688 590.037109375 606.25 590.037109375 604.549804688 c 0
 590.037109375 602.849609375 589.186523438 599.450195312 589.186523438 596.049804688 c 0
 589.186523438 592.650390625 587.487304688 588.400390625 585.787109375 585 c 0
 581.537109375 577.349609375 577.287109375 571.400390625 571.336914062 569.700195312 c 0
 568.787109375 568 566.237304688 567.150390625 564.537109375 567.150390625 c 0
 562.836914062 567.150390625 561.13671875 568 559.436523438 568 c 0
 522.88671875 570.549804688 487.186523438 572.25 451.487304688 572.25 c 0
 439.586914062 572.25 426.836914062 571.400390625 414.086914062 571.400390625 c 0
 367.336914062 570.549804688 327.38671875 567.150390625 291.686523438 561.200195312 c 1
 289.987304688 553.549804688 286.586914062 553.549804688 284.88671875 560.349609375 c 1
 267.88671875 496.599609375 254.287109375 432 240.686523438 366.549804688 c 1
 244.936523438 360.599609375 248.336914062 360.599609375 252.586914062 367.400390625 c 1
 288.287109375 367.400390625 338.436523438 369.099609375 400.487304688 373.349609375 c 0
 463.38671875 377.599609375 498.237304688 380.150390625 506.737304688 380.150390625 c 0x1c
 515.237304688 380.150390625 520.336914062 377.599609375 522.037109375 375.900390625 c 0
 523.737304688 372.5 523.737304688 367.400390625 522.88671875 360.599609375 c 0
 521.186523438 351.25 516.936523438 343.599609375 512.686523438 339.349609375 c 0
 507.586914062 334.25 499.936523438 331.700195312 490.586914062 331.700195312 c 0
 481.237304688 331.700195312 442.13671875 329.150390625 374.987304688 323.200195312 c 0
 307.836914062 317.25 262.787109375 314.700195312 238.13671875 314.700195312 c 1xac
 235.586914062 307.049804688 231.336914062 307.049804688 229.63671875 313.849609375 c 1
 221.13671875 276.450195312 214.336914062 240.75 206.686523438 205.900390625 c 0
 194.787109375 153.200195312 188.836914062 119.200195312 188.836914062 106.450195312 c 0
 188.836914062 103.049804688 189.686523438 97.9501953125 189.686523438 92 c 0
 191.38671875 84.349609375 193.936523438 84.349609375 195.63671875 90.2998046875 c 1
 199.88671875 88.599609375 205.836914062 86.900390625 214.336914062 86.900390625 c 0
 221.987304688 86.900390625 233.88671875 86.0498046875 250.037109375 86.0498046875 c 0
 266.186523438 86.0498046875 288.287109375 86.900390625 315.487304688 87.75 c 0
 379.237304688 91.150390625 421.737304688 94.5498046875 441.287109375 98.7998046875 c 0
 448.086914062 99.650390625 453.186523438 100.5 456.586914062 100.5 c 0
 459.987304688 100.5 463.38671875 99.650390625 465.086914062 98.7998046875 c 0
 466.787109375 97.9501953125 468.487304688 96.25 469.336914062 95.400390625 c 0
 470.186523438 94.5498046875 471.037109375 92 471.037109375 89.4501953125 c 0
 471.037109375 86.900390625 471.88671875 84.349609375 471.88671875 82.650390625 c 0
 471.88671875 80.9501953125 471.037109375 77.5498046875 471.037109375 75.849609375 c 0
 469.336914062 66.5 465.086914062 58.849609375 458.287109375 52.0498046875 c 0
 454.037109375 46.099609375 447.237304688 43.5498046875 439.586914062 43.5498046875 c 0
 437.88671875 43.5498046875 436.186523438 44.400390625 434.487304688 44.400390625 c 2x4c
EndSplineSet
Validated: 524289
EndChar

StartChar: F
Encoding: 70 70 48
Width: 570
VWidth: 900
GlyphClass: 2
Flags: HMW
HStem: 324.65 51<322.267 333.317> 576.25 53.55
LayerCount: 2
Fore
SplineSet
574.716796875 625.549804688 m 0
 584.067382812 624.700195312 589.166992188 622.150390625 590.016601562 620.450195312 c 0
 591.716796875 617.900390625 592.567382812 612.799804688 591.716796875 606 c 0
 590.016601562 598.349609375 584.916992188 590.700195312 578.966796875 584.75 c 0
 573.8671875 578.799804688 567.067382812 576.25 557.716796875 576.25 c 2
 556.016601562 576.25 l 2
 527.966796875 577.950195312 499.067382812 578.799804688 469.317382812 578.799804688 c 0
 414.067382812 578.799804688 352.8671875 575.400390625 285.716796875 569.450195312 c 1
 272.1171875 512.5 262.766601562 473.400390625 257.666992188 451.299804688 c 0
 252.567382812 429.200195312 246.6171875 402 239.817382812 369.700195312 c 1
 244.067382812 363.75 249.166992188 363.75 253.416992188 371.400390625 c 1
 274.666992188 373.950195312 297.6171875 375.650390625 322.266601562 375.650390625 c 2
 340.1171875 375.650390625 l 2
 371.567382812 374.799804688 399.6171875 372.25 425.1171875 369.700195312 c 0
 450.6171875 367.150390625 470.166992188 364.599609375 484.6171875 362.049804688 c 0
 489.716796875 361.200195312 493.1171875 358.650390625 495.666992188 357.799804688 c 0
 498.216796875 356.950195312 500.766601562 355.25 500.766601562 355.25 c 2
 501.6171875 353.549804688 502.466796875 351 502.466796875 347.599609375 c 2
 502.466796875 342.5 l 2
 500.766601562 334.849609375 496.516601562 327.200195312 491.416992188 321.25 c 0
 488.016601562 316.150390625 482.067382812 313.599609375 474.416992188 313.599609375 c 2
 472.716796875 313.599609375 l 2
 458.266601562 316.150390625 436.166992188 319.549804688 408.966796875 321.25 c 0
 381.766601562 322.950195312 350.317382812 324.650390625 316.317382812 324.650390625 c 0
 284.016601562 324.650390625 257.666992188 322.099609375 235.567382812 318.700195312 c 1
 233.8671875 311.049804688 231.317382812 311.049804688 229.6171875 317.849609375 c 1
 212.6171875 226.049804688 195.6171875 141.049804688 178.6171875 62.849609375 c 0
 175.216796875 53.5 169.266601562 45.849609375 160.766601562 39.900390625 c 0
 152.266601562 33.9501953125 143.766601562 31.400390625 135.266601562 31.400390625 c 0
 134.416992188 31.400390625 132.716796875 32.25 132.716796875 32.25 c 2
 125.916992188 32.25 120.817382812 34.7998046875 118.266601562 39.0498046875 c 0
 116.567382812 40.75 115.716796875 44.150390625 115.716796875 48.400390625 c 0
 115.716796875 52.650390625 116.567382812 56.900390625 118.266601562 62 c 0
 125.916992188 86.650390625 136.1171875 135.099609375 152.266601562 205.650390625 c 0
 168.416992188 276.200195312 183.716796875 349.299804688 198.166992188 424.099609375 c 0
 205.817382812 461.5 211.766601562 487.849609375 214.317382812 500.599609375 c 0
 216.8671875 513.349609375 220.266601562 530.349609375 226.216796875 552.450195312 c 0
 230.466796875 560.950195312 234.716796875 576.25 238.966796875 598.349609375 c 0
 241.516601562 611.099609375 246.6171875 621.299804688 253.416992188 627.25 c 0
 260.216796875 633.200195312 267.8671875 636.599609375 275.516601562 636.599609375 c 2
 278.916992188 636.599609375 l 2
 283.166992188 636.599609375 285.716796875 635.75 288.266601562 634.900390625 c 0
 290.817382812 634.049804688 293.3671875 631.5 294.216796875 628.099609375 c 0
 294.216796875 618.75 295.916992188 617.049804688 296.766601562 621.299804688 c 1
 361.3671875 627.25 421.716796875 629.799804688 477.817382812 629.799804688 c 0
 516.067382812 629.799804688 548.3671875 628.099609375 574.716796875 625.549804688 c 0
EndSplineSet
Validated: 524289
EndChar

StartChar: G
Encoding: 71 71 49
Width: 570
VWidth: 901
GlyphClass: 2
Flags: HMW
HStem: 25.625 56.95<253.057 294.707 262.407 294.707> 297.625 50.15<475.332 509.757> 618.075 49.3<479.582 482.982>
VStem: 138.307 66.3<159.5 213.9>
LayerCount: 2
Fore
SplineSet
582.0078125 635.924804688 m 0
 588.807617188 631.674804688 593.057617188 627.424804688 594.7578125 624.875 c 0
 597.307617188 620.625 598.157226562 616.375 598.157226562 611.275390625 c 0
 598.157226562 604.474609375 596.45703125 595.974609375 591.357421875 586.625 c 0
 589.657226562 581.525390625 583.70703125 577.275390625 577.7578125 574.724609375 c 0
 574.357421875 573.875 571.807617188 573.025390625 570.107421875 573.025390625 c 0
 568.407226562 573.025390625 565.0078125 574.724609375 561.607421875 574.724609375 c 0
 559.057617188 575.575195312 553.107421875 579.825195312 543.7578125 587.474609375 c 0
 534.407226562 595.125 523.357421875 601.924804688 511.45703125 607.875 c 0
 499.557617188 614.674804688 488.5078125 618.075195312 477.45703125 618.075195312 c 0
 460.45703125 618.075195312 441.7578125 611.275390625 421.357421875 598.525390625 c 0
 400.95703125 585.775390625 380.557617188 567.924804688 359.307617188 544.974609375 c 0
 338.057617188 522.025390625 316.807617188 495.674804688 298.107421875 465.924804688 c 0
 279.407226562 436.174804688 261.557617188 403.025390625 246.2578125 366.474609375 c 0
 229.2578125 329.924804688 216.5078125 292.525390625 208.857421875 255.125 c 0
 205.45703125 238.125 204.607421875 221.974609375 204.607421875 205.825195312 c 0
 204.607421875 195.625 204.607421875 185.424804688 206.307617188 175.224609375 c 0
 209.70703125 148.875 219.907226562 127.625 234.357421875 109.775390625 c 0
 249.657226562 91.9248046875 266.657226562 82.5751953125 287.907226562 82.5751953125 c 0
 301.5078125 82.5751953125 315.107421875 87.6748046875 330.407226562 97.875 c 0
 345.70703125 108.075195312 361.0078125 119.974609375 373.7578125 134.424804688 c 0
 386.5078125 148.875 399.2578125 164.174804688 412.0078125 182.025390625 c 0
 424.7578125 199.875 435.807617188 217.724609375 445.157226562 234.724609375 c 0
 454.5078125 251.724609375 463.0078125 267.025390625 468.95703125 281.474609375 c 0
 470.657226562 285.724609375 473.20703125 290.825195312 474.907226562 297.625 c 1
 468.95703125 295.924804688 463.857421875 295.924804688 458.7578125 296.775390625 c 0
 427.307617188 295.075195312 396.70703125 291.674804688 365.2578125 286.575195312 c 0
 333.807617188 281.474609375 311.70703125 275.525390625 298.107421875 267.875 c 0
 295.557617188 266.174804688 293.0078125 264.474609375 291.307617188 264.474609375 c 0
 289.607421875 264.474609375 287.907226562 265.325195312 286.20703125 267.025390625 c 0
 282.807617188 270.424804688 280.2578125 274.674804688 280.2578125 279.775390625 c 2
 280.2578125 281.474609375 l 2
 281.107421875 299.325195312 292.157226562 313.775390625 313.407226562 323.974609375 c 0
 327.857421875 331.625 358.45703125 338.424804688 403.5078125 342.674804688 c 0
 437.5078125 346.075195312 464.70703125 347.775390625 485.95703125 347.775390625 c 0
 508.057617188 347.775390625 520.807617188 346.924804688 525.907226562 345.224609375 c 2
 531.0078125 341.825195312 l 2
 532.70703125 340.125 534.407226562 337.575195312 534.407226562 333.325195312 c 2
 534.407226562 330.775390625 l 2
 533.557617188 322.275390625 531.0078125 315.474609375 527.607421875 310.375 c 0
 524.20703125 305.275390625 519.95703125 301.025390625 514.0078125 299.325195312 c 0
 512.307617188 297.625 510.607421875 297.625 508.907226562 297.625 c 0
 508.057617188 291.674804688 506.357421875 285.724609375 503.807617188 278.075195312 c 0
 501.2578125 270.424804688 499.557617188 263.625 498.70703125 259.375 c 0
 494.45703125 247.474609375 488.5078125 233.875 480.857421875 217.724609375 c 0
 473.20703125 201.575195312 463.0078125 185.424804688 451.107421875 167.575195312 c 0
 439.20703125 149.724609375 426.45703125 131.875 411.157226562 114.875 c 0
 395.857421875 97.875 380.557617188 82.5751953125 364.407226562 68.974609375 c 0
 348.2578125 55.375 332.107421875 44.3251953125 314.2578125 36.6748046875 c 0
 296.407226562 29.025390625 280.2578125 25.625 264.107421875 25.625 c 2
 262.407226562 25.625 l 2
 243.70703125 25.625 226.70703125 29.025390625 210.557617188 36.6748046875 c 0
 194.407226562 44.3251953125 182.5078125 53.6748046875 172.307617188 66.4248046875 c 0
 162.107421875 79.1748046875 154.45703125 93.625 148.5078125 111.474609375 c 0
 142.557617188 129.325195312 138.307617188 148.875 138.307617188 170.125 c 0
 138.307617188 187.125 140.857421875 204.125 145.107421875 221.974609375 c 0
 155.307617188 265.325195312 168.057617188 306.974609375 185.057617188 346.924804688 c 0
 202.057617188 386.875 219.907226562 423.424804688 240.307617188 455.724609375 c 0
 259.0078125 488.025390625 279.407226562 517.775390625 301.5078125 544.974609375 c 0
 323.607421875 572.174804688 344.857421875 594.275390625 366.95703125 612.125 c 0
 389.057617188 629.974609375 410.307617188 643.575195312 430.70703125 652.924804688 c 0
 451.107421875 662.275390625 470.657226562 667.375 488.5078125 667.375 c 0
 507.20703125 667.375 530.157226562 662.275390625 553.107421875 651.224609375 c 0
 565.857421875 645.275390625 575.20703125 640.174804688 582.0078125 635.924804688 c 0
EndSplineSet
Validated: 524289
EndChar

StartChar: H
Encoding: 72 72 50
Width: 570
VWidth: 900
GlyphClass: 2
Flags: HMW
HStem: 315.3 52.7<243.528 279.653 243.528 279.653>
LayerCount: 2
Fore
SplineSet
243.528320312 315.299804688 m 1
 241.828125 308.5 240.127929688 302.549804688 239.278320312 299.150390625 c 0
 238.427734375 295.75 236.728515625 292.349609375 236.728515625 289.799804688 c 0
 220.578125 232.849609375 203.578125 157.200195312 184.877929688 62.849609375 c 0
 181.478515625 53.5 175.528320312 45.849609375 167.028320312 39.900390625 c 0
 158.528320312 33.9501953125 149.177734375 31.400390625 141.528320312 31.400390625 c 0
 140.677734375 31.400390625 138.978515625 32.25 138.978515625 32.25 c 2
 133.028320312 32.25 127.927734375 34.7998046875 124.528320312 39.0498046875 c 0
 122.828125 40.75 121.978515625 44.150390625 121.978515625 48.400390625 c 0
 121.978515625 52.650390625 122.828125 56.900390625 124.528320312 62 c 0
 128.778320312 76.4501953125 138.127929688 114.700195312 152.578125 175.900390625 c 0
 160.228515625 208.200195312 172.127929688 260.900390625 190.828125 334 c 0
 200.177734375 369.700195312 206.978515625 396.049804688 211.228515625 413.900390625 c 0
 215.478515625 431.75 220.578125 457.25 228.228515625 492.099609375 c 0
 234.177734375 521 238.427734375 537.150390625 238.427734375 540.549804688 c 0
 240.127929688 548.200195312 241.828125 557.549804688 245.228515625 570.299804688 c 0
 248.627929688 583.049804688 250.328125 592.400390625 252.028320312 598.349609375 c 0
 255.427734375 611.099609375 261.377929688 621.299804688 268.177734375 627.25 c 0
 274.978515625 633.200195312 282.627929688 636.599609375 290.278320312 636.599609375 c 1
 290.278320312 629.799804688 291.978515625 629.799804688 291.978515625 636.599609375 c 1
 298.778320312 636.599609375 303.877929688 634.900390625 307.278320312 630.650390625 c 0
 308.978515625 628.099609375 310.677734375 623.849609375 310.677734375 619.599609375 c 0
 310.677734375 615.349609375 309.828125 610.25 308.978515625 605.150390625 c 0
 308.127929688 600.049804688 303.877929688 588.150390625 298.778320312 569.450195312 c 0
 293.677734375 550.75 289.427734375 533.75 286.028320312 517.599609375 c 0
 282.627929688 501.450195312 278.377929688 480.200195312 272.427734375 449.599609375 c 0
 266.478515625 419 261.377929688 391.799804688 255.427734375 367.150390625 c 1
 259.677734375 361.200195312 262.228515625 361.200195312 266.478515625 368 c 1
 292.828125 368 320.028320312 368.849609375 348.078125 372.25 c 0
 376.127929688 375.650390625 400.778320312 379.900390625 423.728515625 383.299804688 c 0
 446.677734375 386.700195312 464.528320312 389.25 477.278320312 390.099609375 c 1
 478.978515625 399.450195312 480.677734375 407.950195312 481.528320312 415.599609375 c 0
 482.377929688 423.25 484.927734375 428.349609375 485.778320312 432.599609375 c 0
 490.877929688 449.599609375 495.127929688 472.549804688 500.228515625 503.150390625 c 0
 502.778320312 514.200195312 507.877929688 531.200195312 513.828125 555 c 0
 519.778320312 578.799804688 524.877929688 593.25 525.728515625 598.349609375 c 0
 529.127929688 611.099609375 534.228515625 621.299804688 541.877929688 627.25 c 0
 549.528320312 633.200195312 556.328125 636.599609375 563.978515625 636.599609375 c 1
 563.978515625 629.799804688 565.677734375 629.799804688 566.528320312 636.599609375 c 1
 574.177734375 636.599609375 580.127929688 634.900390625 583.528320312 630.650390625 c 0
 585.228515625 628.099609375 586.927734375 623.849609375 586.927734375 619.599609375 c 0
 586.927734375 615.349609375 586.078125 608.549804688 584.377929688 600.900390625 c 0
 582.677734375 593.25 577.578125 573.700195312 569.078125 539.700195312 c 0
 560.578125 505.700195312 553.778320312 476.799804688 547.828125 451.299804688 c 0
 541.877929688 425.799804688 534.228515625 389.25 524.028320312 341.650390625 c 0
 516.377929688 302.549804688 503.627929688 250.700195312 486.627929688 186.950195312 c 0
 470.478515625 122.349609375 461.127929688 80.7001953125 456.877929688 62.849609375 c 0
 454.328125 53.5 448.377929688 45.849609375 440.728515625 39.900390625 c 0
 433.078125 33.9501953125 425.427734375 31.400390625 417.778320312 31.400390625 c 0
 416.927734375 31.400390625 415.228515625 32.25 415.228515625 32.25 c 2
 409.278320312 32.25 404.177734375 34.7998046875 401.627929688 39.0498046875 c 0
 400.778320312 40.75 399.078125 44.150390625 399.078125 48.400390625 c 0
 399.078125 52.650390625 399.927734375 56.900390625 401.627929688 62 c 0
 423.728515625 141.049804688 444.127929688 229.450195312 464.528320312 328.049804688 c 1
 464.528320312 326.349609375 467.078125 330.599609375 467.927734375 341.650390625 c 1
 463.677734375 334 459.427734375 334 455.177734375 340.799804688 c 1
 446.677734375 340.799804688 415.228515625 336.549804688 362.528320312 328.049804688 c 0
 309.828125 319.549804688 270.728515625 315.299804688 249.478515625 315.299804688 c 2
 243.528320312 315.299804688 l 1
EndSplineSet
Validated: 524289
EndChar

StartChar: I
Encoding: 73 73 51
Width: 570
VWidth: 900
GlyphClass: 2
Flags: HMW
HStem: 38.3343 47.6<132.573 152.123> 45.1343 45.05<347.199 348.898 328.073 361.649> 581.484 50.15<273.248 274.523 274.523 278.773 273.248 311.073>
LayerCount: 2
Fore
SplineSet
381.623046875 44.2841796875 m 0x60
 378.22265625 44.2841796875 368.874023438 45.134765625 354.423828125 45.134765625 c 0
 339.973632812 45.134765625 321.2734375 44.2841796875 296.624023438 43.4345703125 c 1
 278.991210938 38.900390625 261.358398438 36.45703125 243.7265625 36.45703125 c 2
 207.373046875 40.0341796875 l 1
 173.373046875 39.1845703125 150.422851562 38.333984375 138.5234375 38.333984375 c 0xa0
 126.623046875 38.333984375 119.823242188 40.0341796875 116.422851562 43.4345703125 c 0
 114.72265625 45.134765625 113.873046875 48.5341796875 113.873046875 51.083984375 c 0
 113.873046875 52.7841796875 114.72265625 55.333984375 114.72265625 57.0341796875 c 0
 115.573242188 64.6845703125 118.97265625 72.333984375 124.922851562 77.4345703125 c 0
 130.873046875 82.5341796875 141.073242188 85.9345703125 152.123046875 85.9345703125 c 0
 175.073242188 86.7841796875 215.0234375 88.484375 272.823242188 90.1845703125 c 1x60
 300.0234375 191.333984375 323.823242188 296.734375 345.073242188 405.534179688 c 0
 350.172851562 431.034179688 352.72265625 445.484375 352.72265625 449.734375 c 0
 354.422851562 459.083984375 358.672851562 476.083984375 364.623046875 502.434570312 c 0
 366.323242188 510.083984375 368.873046875 521.984375 373.123046875 538.984375 c 0
 377.373046875 555.984375 381.623046875 566.184570312 381.623046875 568.734375 c 1
 381.623046875 566.184570312 383.323242188 569.583984375 384.172851562 580.634765625 c 1
 353.573242188 580.634765625 328.922851562 581.484375 311.073242188 581.484375 c 2
 274.5234375 581.484375 l 2
 267.72265625 581.484375 262.623046875 580.634765625 262.623046875 580.634765625 c 2
 254.123046875 580.634765625 248.172851562 582.333984375 245.623046875 586.583984375 c 0
 243.922851562 588.284179688 243.073242188 591.684570312 243.073242188 595.934570312 c 2
 243.073242188 601.884765625 l 2
 243.922851562 609.534179688 248.172851562 616.333984375 254.123046875 622.284179688 c 0
 260.073242188 628.234375 267.72265625 631.634765625 278.7734375 631.634765625 c 0
 320.422851562 632.484375 358.672851562 633.333984375 394.373046875 633.333984375 c 0
 464.922851562 633.333984375 524.422851562 630.784179688 573.72265625 624.833984375 c 0
 580.5234375 624.833984375 585.623046875 622.284179688 589.0234375 619.734375 c 0
 592.422851562 617.184570312 594.123046875 613.784179688 594.123046875 608.684570312 c 0
 594.123046875 606.984375 593.2734375 604.434570312 593.2734375 602.734375 c 0
 591.573242188 595.083984375 586.47265625 586.583984375 579.672851562 578.934570312 c 0
 577.123046875 575.534179688 573.72265625 572.984375 569.47265625 571.284179688 c 0
 566.922851562 570.434570312 564.373046875 569.583984375 562.672851562 569.583984375 c 0
 560.97265625 569.583984375 560.123046875 570.434570312 558.422851562 570.434570312 c 0
 543.97265625 572.134765625 503.172851562 575.534179688 437.72265625 579.784179688 c 1
 433.47265625 556.833984375 430.073242188 541.534179688 426.672851562 533.034179688 c 0
 413.073242188 478.634765625 400.323242188 420.833984375 389.2734375 360.484375 c 0
 381.623046875 320.534179688 370.573242188 269.534179688 356.123046875 210.034179688 c 0
 341.672851562 150.534179688 332.323242188 110.583984375 328.073242188 90.1845703125 c 1
 339.123046875 90.1845703125 l 2
 358.672851562 90.1845703125 398.623046875 89.333984375 457.2734375 89.333984375 c 0
 464.922851562 89.333984375 470.873046875 87.634765625 471.72265625 85.9345703125 c 0xa0
 472.573242188 84.234375 473.422851562 80.833984375 473.422851562 76.583984375 c 2
 473.422851562 69.7841796875 l 2
 471.72265625 61.2841796875 467.47265625 54.484375 463.22265625 48.5341796875 c 0
 461.5234375 45.134765625 458.97265625 43.4345703125 456.422851562 42.583984375 c 0
 453.873046875 41.734375 451.323242188 40.0341796875 449.623046875 40.0341796875 c 0
 447.922851562 40.0341796875 445.373046875 40.884765625 443.672851562 40.884765625 c 0
 430.922851562 42.583984375 411.373046875 44.2841796875 381.623046875 44.2841796875 c 0x60
EndSplineSet
Validated: 524289
EndChar

StartChar: J
Encoding: 74 74 52
Width: 570
VWidth: 898
GlyphClass: 2
Flags: HMW
HStem: 19.075 65.45<273.752 280.127> 568.175 55.25<563.602 578.902> 580.075 50.15<277.152 280.552 280.552 282.252 277.152 329.852>
VStem: 140.302 53.55<176.325 193.75 184.4 186.1>
LayerCount: 2
Fore
SplineSet
300.1015625 93.025390625 m 0xb0
 305.202148438 98.974609375 310.301757812 107.474609375 316.251953125 119.375 c 0
 327.301757812 144.025390625 340.051757812 183.974609375 352.801757812 239.224609375 c 0
 355.3515625 250.275390625 364.702148438 290.224609375 378.301757812 359.924804688 c 0
 391.901367188 427.075195312 406.3515625 500.174804688 424.202148438 578.375 c 1
 384.251953125 580.075195312 353.651367188 580.075195312 329.8515625 580.075195312 c 2
 280.551757812 580.075195312 l 2
 271.202148438 580.075195312 266.952148438 579.224609375 266.952148438 579.224609375 c 2
 258.452148438 579.224609375 252.501953125 580.924804688 249.952148438 585.174804688 c 0
 248.251953125 586.875 245.702148438 590.275390625 245.702148438 594.525390625 c 0
 245.702148438 596.224609375 246.551757812 598.775390625 246.551757812 600.474609375 c 0
 247.401367188 608.125 251.651367188 614.924804688 257.6015625 620.875 c 0
 263.551757812 626.825195312 272.051757812 630.224609375 282.251953125 630.224609375 c 0
 323.901367188 631.075195312 362.151367188 631.924804688 397.001953125 631.924804688 c 0
 466.702148438 631.924804688 526.202148438 629.375 575.501953125 623.424804688 c 0xd0
 582.301757812 623.424804688 587.401367188 620.875 590.801757812 618.325195312 c 0
 594.202148438 615.775390625 595.051757812 612.375 595.051757812 607.275390625 c 0
 595.051757812 605.575195312 594.202148438 603.025390625 594.202148438 601.325195312 c 0
 592.501953125 593.674804688 588.251953125 585.174804688 581.452148438 577.525390625 c 0
 578.051757812 574.125 575.501953125 571.575195312 571.251953125 569.875 c 0
 569.551757812 569.025390625 566.151367188 568.174804688 564.452148438 568.174804688 c 0
 562.751953125 568.174804688 560.202148438 569.025390625 558.501953125 569.025390625 c 0
 540.651367188 571.575195312 511.751953125 574.974609375 468.401367188 576.674804688 c 1
 463.301757812 554.575195312 457.3515625 527.375 451.401367188 493.375 c 0
 446.301757812 455.974609375 440.3515625 425.375 434.401367188 402.424804688 c 0
 429.301757812 375.224609375 423.3515625 345.474609375 416.551757812 311.474609375 c 0
 409.751953125 277.474609375 402.952148438 248.575195312 396.151367188 223.924804688 c 0
 381.702148438 172.924804688 366.401367188 132.125 351.952148438 101.525390625 c 0
 337.501953125 70.9248046875 324.751953125 48.8251953125 312.001953125 36.9248046875 c 0
 299.251953125 25.025390625 286.501953125 19.0751953125 273.751953125 19.0751953125 c 0
 258.452148438 19.0751953125 243.151367188 22.474609375 229.551757812 28.4248046875 c 0
 215.1015625 34.375 203.202148438 42.875 193.8515625 53.0751953125 c 0
 184.501953125 63.275390625 176.001953125 75.1748046875 168.3515625 87.9248046875 c 0
 160.702148438 100.674804688 155.6015625 113.424804688 151.3515625 126.174804688 c 0
 147.1015625 138.924804688 143.702148438 149.125 142.8515625 158.474609375 c 0
 142.001953125 167.825195312 140.301757812 172.924804688 140.301757812 176.325195312 c 2
 140.301757812 183.974609375 l 2
 140.301757812 188.224609375 142.001953125 193.325195312 143.702148438 199.275390625 c 0
 145.401367188 205.224609375 147.952148438 211.174804688 150.501953125 216.275390625 c 0
 153.051757812 221.375 156.452148438 226.474609375 161.551757812 229.875 c 0
 166.651367188 233.275390625 172.6015625 236.674804688 178.551757812 237.525390625 c 0
 181.1015625 237.525390625 183.651367188 238.375 185.3515625 238.375 c 0
 189.6015625 238.375 193.001953125 236.674804688 194.702148438 234.125 c 0
 196.401367188 231.575195312 198.1015625 227.325195312 198.1015625 223.075195312 c 0
 198.1015625 221.375 197.251953125 217.974609375 197.251953125 215.424804688 c 0
 195.551757812 207.775390625 193.8515625 198.424804688 193.8515625 189.075195312 c 0
 193.8515625 179.724609375 195.551757812 169.525390625 198.1015625 157.625 c 0
 200.651367188 145.724609375 204.901367188 133.825195312 210.8515625 122.775390625 c 0
 216.801757812 111.724609375 227.001953125 103.224609375 239.751953125 95.5751953125 c 0
 251.651367188 87.9248046875 265.251953125 84.525390625 282.251953125 84.525390625 c 0
 288.202148438 84.525390625 295.001953125 87.0751953125 300.1015625 93.025390625 c 0xb0
EndSplineSet
Validated: 524289
EndChar

StartChar: K
Encoding: 75 75 53
Width: 570
VWidth: 902
GlyphClass: 2
Flags: HMW
HStem: 33.65 17.85G<144.265 148.94> 643.1 17G<557.79 560.34>
LayerCount: 2
Fore
SplineSet
125.140625 60.849609375 m 0
 125.140625 63.400390625 125.990234375 67.650390625 127.689453125 71.900390625 c 0
 135.33984375 97.400390625 146.389648438 145.849609375 162.540039062 216.400390625 c 0
 177.83984375 287.799804688 192.290039062 360.900390625 207.58984375 436.549804688 c 0
 215.240234375 473.950195312 221.189453125 499.450195312 223.740234375 512.200195312 c 0
 225.439453125 524.950195312 230.540039062 543.650390625 236.490234375 568.299804688 c 0
 242.439453125 592.099609375 246.689453125 607.400390625 247.540039062 613.349609375 c 0
 250.939453125 628.650390625 256.040039062 639.700195312 262.83984375 647.349609375 c 0
 269.639648438 655 276.439453125 659.25 284.08984375 659.25 c 1
 284.939453125 666.049804688 286.639648438 666.049804688 286.639648438 659.25 c 1
 293.439453125 659.25 298.540039062 656.700195312 301.939453125 649.900390625 c 0
 303.639648438 645.650390625 304.490234375 640.549804688 304.490234375 632.900390625 c 0
 304.490234375 628.650390625 303.639648438 625.25 302.790039062 621 c 0
 300.240234375 607.400390625 293.439453125 577.650390625 282.389648438 531.75 c 0
 271.33984375 485 260.290039062 436.549804688 249.240234375 384.700195312 c 1
 369.939453125 502.849609375 l 2
 404.790039062 539.400390625 438.790039062 571.700195312 474.490234375 598.049804688 c 0
 502.540039062 621.849609375 520.389648438 637.150390625 528.040039062 643.099609375 c 0
 535.689453125 650.75 543.33984375 655.849609375 549.290039062 657.549804688 c 0
 553.540039062 659.25 556.939453125 660.099609375 558.639648438 660.099609375 c 0
 562.040039062 660.099609375 565.439453125 656.700195312 567.990234375 649.900390625 c 0
 569.689453125 645.650390625 570.540039062 640.549804688 570.540039062 634.599609375 c 0
 570.540039062 626.950195312 562.889648438 617.599609375 548.439453125 605.700195312 c 0
 538.240234375 595.5 504.240234375 564.900390625 445.58984375 513.049804688 c 1
 391.189453125 458.650390625 340.189453125 408.5 293.439453125 363.450195312 c 1
 297.689453125 355.799804688 l 2
 309.58984375 336.25 330.83984375 303.950195312 361.439453125 260.599609375 c 0
 392.040039062 214.700195312 417.540039062 175.599609375 438.790039062 142.450195312 c 0
 460.021484375 112.725585938 472.772460938 93.18359375 474.491210938 85.51953125 c 0
 474.392578125 76.4482421875 472.665039062 67.423828125 468.541015625 60 c 0
 465.140625 52.349609375 460.890625 45.5498046875 454.940429688 41.2998046875 c 0
 448.991210938 37.0498046875 444.741210938 34.5 440.491210938 34.5 c 0
 433.690429688 34.5 427.741210938 41.2998046875 422.640625 55.75 c 0
 419.241210938 63.400390625 405.640625 82.9501953125 382.690429688 114.400390625 c 0
 359.741210938 145.849609375 335.090820312 181.549804688 308.741210938 218.950195312 c 0
 282.390625 260.599609375 263.690429688 292.900390625 252.640625 315.849609375 c 2
 240.741210938 338.799804688 l 1
 231.390625 295.450195312 l 1
 188.041015625 72.75 l 2
 184.640625 60 178.690429688 50.650390625 170.190429688 43.849609375 c 0
 161.690429688 37.0498046875 153.190429688 33.650390625 144.690429688 33.650390625 c 0
 143.840820312 33.650390625 142.140625 34.5 142.140625 34.5 c 2
 135.340820312 34.5 130.241210938 37.900390625 127.690429688 45.5498046875 c 0
 125.991210938 49.7998046875 125.140625 54.900390625 125.140625 60.849609375 c 0
EndSplineSet
Validated: 524289
EndChar

StartChar: L
Encoding: 76 76 54
Width: 570
VWidth: 900
GlyphClass: 2
Flags: HMW
HStem: 37.275 53.5468
LayerCount: 2
Fore
SplineSet
476.024414062 111.224609375 m 0
 478.575195312 103.575195312 479.423828125 95.9248046875 478.57421875 87.4248046875 c 0
 476.874023438 79.775390625 472.624023438 72.974609375 468.374023438 68.724609375 c 0
 464.124023438 64.474609375 455.624023438 60.224609375 443.723632812 58.525390625 c 0
 407.173828125 50.875 356.173828125 45.775390625 290.723632812 42.375 c 0
 223.57421875 38.974609375 172.57421875 37.275390625 138.57421875 37.275390625 c 0
 131.774414062 37.275390625 126.673828125 39.8251953125 124.124023438 44.0751953125 c 0
 122.423828125 45.775390625 121.57421875 49.1748046875 121.57421875 53.4248046875 c 0
 121.57421875 57.6748046875 122.423828125 61.9248046875 124.124023438 67.025390625 c 0
 135.173828125 93.375 145.374023438 125.674804688 156.423828125 164.775390625 c 0
 175.973632812 225.125 193.82421875 283.775390625 209.124023438 339.875 c 0
 216.774414062 366.224609375 226.973632812 412.974609375 239.723632812 480.125 c 0
 252.473632812 547.275390625 259.274414062 584.674804688 260.124023438 590.625 c 0
 263.524414062 604.224609375 268.624023438 614.424804688 275.423828125 620.375 c 0
 282.223632812 626.325195312 289.024414062 629.724609375 295.82421875 629.724609375 c 1
 296.673828125 622.924804688 298.374023438 622.924804688 298.374023438 629.724609375 c 1
 304.32421875 629.724609375 309.423828125 627.174804688 312.82421875 622.924804688 c 0
 314.524414062 621.224609375 315.374023438 617.825195312 315.374023438 612.724609375 c 0
 315.374023438 607.625 314.524414062 602.525390625 313.673828125 598.275390625 c 0
 310.274414062 582.125 306.024414062 560.025390625 299.223632812 531.974609375 c 0
 291.57421875 489.474609375 283.07421875 453.775390625 274.57421875 424.875 c 0
 265.223632812 380.674804688 256.723632812 343.275390625 248.223632812 312.674804688 c 0
 243.124023438 288.875 234.624023438 254.025390625 221.874023438 208.974609375 c 0
 208.274414062 163.924804688 198.923828125 128.224609375 192.973632812 102.724609375 c 0
 192.474609375 96.2275390625 191.680664062 92.375 190.938476562 90.8212890625 c 1
 202.874023438 90.7646484375 210.12890625 89.974609375 214.224609375 89.974609375 c 0
 251.625 89.974609375 295.825195312 93.375 346.825195312 99.3251953125 c 0
 401.224609375 105.275390625 440.325195312 111.224609375 461.575195312 116.325195312 c 1
 467.524414062 116.325195312 l 2
 471.774414062 116.325195312 474.325195312 114.625 476.024414062 111.224609375 c 0
EndSplineSet
Validated: 524289
EndChar

StartChar: M
Encoding: 77 77 55
Width: 570
VWidth: 901
GlyphClass: 2
Flags: HMW
HStem: 615.944 17G
VStem: 121.293 0.85<39.2187 43.0437> 441.743 52.7<84.6937 122.944 95.3187 111.894>
LayerCount: 2
Fore
SplineSet
288.743164062 45.59375 m 1
 282.793945312 45.59375 278.543945312 47.2939453125 275.993164062 50.693359375 c 0
 273.443359375 54.943359375 270.893554688 60.8935546875 270.893554688 67.693359375 c 0
 270.893554688 94.8935546875 275.143554688 156.943359375 282.793945312 254.693359375 c 0
 290.443359375 352.443359375 297.243164062 445.943359375 304.893554688 536.043945312 c 0
 306.59375 570.043945312 310.84375 602.34375 313.393554688 632.943359375 c 1
 304.893554688 604.893554688 295.543945312 575.143554688 286.193359375 542.84375 c 0
 273.443359375 501.193359375 260.693359375 451.043945312 245.393554688 394.09375 c 0
 236.893554688 360.943359375 225.84375 320.143554688 212.243164062 269.994140625 c 0
 204.59375 241.943359375 196.943359375 216.443359375 190.143554688 193.494140625 c 0
 181.643554688 167.994140625 174.84375 147.59375 170.59375 132.293945312 c 0
 166.34375 117.84375 162.09375 106.793945312 161.243164062 100.84375 c 0
 157.84375 82.994140625 151.893554688 68.5439453125 143.393554688 58.34375 c 0
 135.743164062 48.1435546875 129.793945312 43.0439453125 122.143554688 43.0439453125 c 1
 122.143554688 35.3935546875 121.293945312 35.3935546875 121.293945312 43.0439453125 c 1
 120.443359375 43.0439453125 118.743164062 44.744140625 117.893554688 45.59375 c 0
 114.493164062 47.2939453125 111.943359375 56.6435546875 111.943359375 72.7939453125 c 0
 111.943359375 79.59375 114.493164062 88.943359375 117.043945312 100.84375 c 0
 118.743164062 107.643554688 121.293945312 118.693359375 126.393554688 134.84375 c 0
 131.493164062 151.84375 139.143554688 173.943359375 148.493164062 202.84375 c 0
 157.84375 233.443359375 166.34375 256.393554688 170.59375 272.543945312 c 2
 210.543945312 401.744140625 l 2
 217.34375 426.393554688 224.993164062 456.994140625 236.043945312 492.693359375 c 0
 256.443359375 562.393554688 271.743164062 603.193359375 281.09375 617.643554688 c 0
 287.043945312 628.693359375 293.84375 637.193359375 303.193359375 642.293945312 c 0
 312.543945312 647.393554688 321.043945312 649.943359375 327.84375 649.943359375 c 2
 331.243164062 649.943359375 l 1
 332.09375 649.943359375 l 2
 339.743164062 649.943359375 345.693359375 648.244140625 349.943359375 643.994140625 c 0
 354.193359375 638.893554688 355.043945312 630.393554688 355.043945312 618.494140625 c 2
 355.043945312 611.693359375 l 2
 355.043945312 566.643554688 345.693359375 462.09375 326.993164062 298.893554688 c 0
 318.493164062 219.84375 313.393554688 167.994140625 311.693359375 142.494140625 c 1
 317.643554688 133.994140625 324.443359375 132.293945312 330.393554688 138.244140625 c 1
 352.493164062 222.393554688 372.893554688 297.193359375 392.443359375 364.34375 c 0
 406.893554688 412.793945312 423.043945312 461.244140625 440.893554688 509.693359375 c 0
 458.743164062 557.293945312 472.34375 593.84375 484.243164062 619.34375 c 0
 487.643554688 627.84375 492.743164062 634.643554688 498.693359375 639.744140625 c 0
 505.493164062 644.84375 511.443359375 648.244140625 516.543945312 649.09375 c 0
 521.643554688 649.09375 526.743164062 649.943359375 529.293945312 649.943359375 c 2
 536.09375 649.943359375 l 1
 539.493164062 649.943359375 l 1
 549.693359375 649.943359375 l 2
 551.393554688 649.943359375 555.643554688 649.09375 559.043945312 648.244140625 c 0
 562.443359375 646.543945312 564.993164062 643.994140625 565.84375 642.293945312 c 0
 566.693359375 640.59375 567.543945312 637.193359375 568.393554688 632.09375 c 0
 569.243164062 628.693359375 570.09375 624.443359375 570.09375 619.34375 c 2
 570.09375 616.793945312 l 2
 568.393554688 598.943359375 555.643554688 515.643554688 530.993164062 366.043945312 c 0
 507.193359375 217.293945312 494.443359375 133.143554688 494.443359375 112.744140625 c 0
 494.443359375 77.8935546875 485.09375 56.6435546875 468.09375 48.1435546875 c 0
 464.693359375 46.443359375 462.143554688 45.59375 459.59375 45.59375 c 0
 457.043945312 45.59375 452.793945312 47.2939453125 450.243164062 49.84375 c 0
 444.293945312 54.09375 441.743164062 65.994140625 441.743164062 84.693359375 c 2
 441.743164062 88.943359375 l 2
 441.743164062 134.84375 469.793945312 301.443359375 525.043945312 588.744140625 c 1
 519.09375 597.244140625 511.443359375 598.943359375 504.643554688 594.693359375 c 1
 470.643554688 507.994140625 445.143554688 430.643554688 426.443359375 360.09375 c 0
 407.743164062 294.643554688 389.043945312 231.744140625 369.493164062 173.09375 c 0
 349.943359375 114.443359375 337.193359375 78.744140625 330.393554688 65.994140625 c 0
 324.443359375 52.3935546875 310.84375 45.59375 292.143554688 45.59375 c 1
 291.293945312 38.7939453125 289.59375 38.7939453125 288.743164062 45.59375 c 1
EndSplineSet
Validated: 524289
EndChar

StartChar: N
Encoding: 78 78 56
Width: 570
VWidth: 901
GlyphClass: 2
Flags: HMW
HStem: 41.175 17.85G<131.888 137.413> 633.625 17G<288.713 291.263 569.213 575.163>
LayerCount: 2
Fore
SplineSet
498.23828125 212.875 m 0
 486.337890625 164.424804688 476.98828125 127.875 470.188476562 104.924804688 c 0
 462.538085938 81.125 457.438476562 66.6748046875 454.887695312 60.724609375 c 0
 448.938476562 46.275390625 437.038085938 39.474609375 418.337890625 39.474609375 c 1
 417.48828125 32.6748046875 415.788085938 32.6748046875 414.938476562 39.474609375 c 1
 408.98828125 39.474609375 404.73828125 41.1748046875 402.188476562 45.4248046875 c 0
 398.788085938 49.6748046875 396.23828125 55.625 396.23828125 62.4248046875 c 0
 394.538085938 73.474609375 388.587890625 98.974609375 377.538085938 137.224609375 c 2
 344.387695312 260.474609375 l 2
 333.337890625 302.125 321.438476562 348.025390625 310.387695312 399.875 c 0
 299.337890625 451.724609375 292.538085938 495.924804688 289.137695312 531.625 c 0
 287.438476562 557.125 284.038085938 581.775390625 282.337890625 606.424804688 c 1
 278.087890625 583.474609375 273.837890625 558.825195312 269.587890625 533.325195312 c 0
 259.387695312 471.275390625 248.337890625 412.625 236.438476562 359.075195312 c 0
 223.688476562 304.674804688 210.087890625 249.424804688 195.637695312 193.325195312 c 0
 181.188476562 138.924804688 172.688476562 104.924804688 170.98828125 93.025390625 c 0
 168.438476562 74.3251953125 162.48828125 60.724609375 154.837890625 53.0751953125 c 0
 148.038085938 45.4248046875 141.23828125 41.1748046875 133.587890625 41.1748046875 c 0
 130.188476562 41.1748046875 127.637695312 42.875 125.938476562 44.5751953125 c 0
 124.23828125 46.275390625 122.538085938 53.9248046875 122.538085938 65.8251953125 c 0
 122.538085938 72.625 124.23828125 81.125 126.788085938 92.1748046875 c 0
 128.48828125 104.075195312 140.387695312 148.275390625 159.087890625 224.775390625 c 2
 209.23828125 427.924804688 l 2
 222.837890625 486.575195312 234.73828125 542.674804688 244.087890625 595.375 c 0
 245.788085938 606.424804688 248.337890625 615.775390625 252.587890625 623.424804688 c 0
 255.98828125 631.924804688 260.23828125 637.875 265.337890625 642.125 c 0
 271.288085938 645.525390625 275.538085938 648.075195312 279.788085938 648.924804688 c 0
 284.038085938 649.775390625 287.438476562 650.625 289.98828125 650.625 c 0
 292.538085938 650.625 295.938476562 649.775390625 297.637695312 649.775390625 c 0
 305.288085938 649.775390625 311.23828125 648.075195312 315.48828125 643.825195312 c 0
 318.887695312 639.575195312 321.438476562 631.075195312 321.438476562 619.174804688 c 0
 323.137695312 582.625 337.587890625 512.924804688 363.087890625 410.075195312 c 0
 387.73828125 307.224609375 409.837890625 224.775390625 428.538085938 161.875 c 0
 431.938476562 149.125 435.337890625 138.075195312 438.73828125 129.575195312 c 1
 441.288085938 138.924804688 444.688476562 149.974609375 447.23828125 163.575195312 c 0
 459.98828125 217.125 477.837890625 296.174804688 499.087890625 399.025390625 c 0
 522.038085938 501.875 534.788085938 569.025390625 538.188476562 603.025390625 c 0
 539.887695312 615.775390625 544.137695312 626.825195312 550.938476562 636.174804688 c 0
 558.587890625 645.525390625 565.387695312 650.625 573.038085938 650.625 c 0
 577.288085938 650.625 581.538085938 649.775390625 583.23828125 648.924804688 c 0
 584.938476562 648.075195312 587.48828125 646.375 588.337890625 644.674804688 c 0
 589.188476562 640.424804688 590.038085938 633.625 590.038085938 623.424804688 c 0
 590.038085938 621.724609375 589.188476562 615.775390625 588.337890625 607.275390625 c 0
 588.337890625 597.924804688 578.137695312 552.875 559.438476562 472.125 c 0
 541.587890625 388.825195312 521.188476562 302.125 498.23828125 212.875 c 0
EndSplineSet
Validated: 524289
EndChar

StartChar: O
Encoding: 79 79 57
Width: 570
VWidth: 900
GlyphClass: 2
Flags: HMW
HStem: 29.775 61.2<273.704 274.554> 601.825 37.4<421.604 422.879>
VStem: 153.854 59.5<167.9 204.45> 499.804 55.25<489.625 503.225 489.625 504.075>
LayerCount: 2
Fore
SplineSet
533.803710938 362.125 m 0
 527.00390625 329.825195312 518.50390625 297.525390625 509.154296875 264.375 c 0
 499.803710938 231.224609375 490.454101562 205.724609375 481.104492188 187.025390625 c 0
 469.204101562 160.674804688 456.454101562 138.575195312 442.854492188 119.875 c 0
 430.104492188 102.025390625 416.50390625 86.724609375 403.75390625 74.8251953125 c 0
 391.00390625 62.9248046875 377.404296875 54.4248046875 362.104492188 47.625 c 0
 346.803710938 40.8251953125 331.50390625 35.724609375 316.204101562 33.1748046875 c 0
 300.904296875 30.625 283.904296875 29.775390625 265.204101562 29.775390625 c 0
 237.154296875 29.775390625 212.50390625 39.974609375 193.803710938 58.6748046875 c 0
 175.104492188 77.375 162.354492188 102.875 156.404296875 136.025390625 c 0
 154.704101562 148.775390625 153.854492188 161.525390625 153.854492188 174.275390625 c 0
 153.854492188 187.025390625 157.25390625 210.825195312 163.204101562 246.525390625 c 0
 164.053710938 249.075195312 165.75390625 254.174804688 166.604492188 260.974609375 c 0
 172.553710938 286.474609375 176.803710938 306.875 181.053710938 322.174804688 c 0
 185.303710938 337.474609375 190.404296875 357.875 198.053710938 383.375 c 0
 212.50390625 430.974609375 231.204101562 476.025390625 255.854492188 518.525390625 c 0
 274.553710938 554.224609375 300.053710938 583.125 334.053710938 605.224609375 c 0
 368.053710938 627.325195312 403.75390625 639.224609375 439.454101562 639.224609375 c 0
 457.303710938 639.224609375 474.303710938 634.974609375 490.454101562 627.325195312 c 0
 506.604492188 619.674804688 519.354492188 608.625 530.404296875 593.325195312 c 0
 541.454101562 578.025390625 548.25390625 558.474609375 552.50390625 534.674804688 c 0
 554.204101562 522.775390625 555.053710938 510.025390625 555.053710938 496.424804688 c 0
 555.053710938 482.825195312 553.354492188 468.375 551.654296875 452.224609375 c 0
 547.404296875 424.174804688 540.604492188 394.424804688 533.803710938 362.125 c 0
320.454101562 96.9248046875 m 0
 334.053710938 101.174804688 347.654296875 107.125 361.25390625 115.625 c 0
 374.854492188 124.125 386.75390625 136.025390625 398.654296875 150.474609375 c 0
 410.553710938 164.924804688 420.75390625 181.075195312 430.104492188 199.775390625 c 0
 434.354492188 206.575195312 440.303710938 223.575195312 447.954101562 251.625 c 0
 455.604492188 278.825195312 464.954101562 311.125 474.303710938 348.525390625 c 0
 483.654296875 385.924804688 491.303710938 423.325195312 497.25390625 459.025390625 c 0
 498.954101562 470.075195312 499.803710938 481.125 499.803710938 491.325195312 c 0
 499.803710938 516.825195312 495.553710938 539.775390625 484.50390625 558.474609375 c 0
 475.154296875 574.625 464.104492188 585.674804688 450.50390625 593.325195312 c 0
 441.154296875 599.275390625 429.25390625 601.825195312 416.50390625 601.825195312 c 0
 388.454101562 601.825195312 362.104492188 589.924804688 338.303710938 565.275390625 c 0
 315.354492188 542.325195312 295.803710938 510.025390625 278.803710938 468.375 c 0
 255.854492188 413.974609375 237.154296875 349.375 222.704101562 275.424804688 c 0
 216.75390625 241.424804688 213.354492188 215.075195312 213.354492188 193.825195312 c 0
 213.354492188 169.174804688 216.75390625 148.775390625 222.704101562 132.625 c 0
 226.954101562 120.724609375 234.604492188 110.525390625 244.803710938 102.875 c 0
 255.00390625 95.224609375 266.904296875 90.974609375 280.50390625 90.974609375 c 0
 294.104492188 90.974609375 306.854492188 92.6748046875 320.454101562 96.9248046875 c 0
EndSplineSet
Validated: 524289
EndChar

StartChar: P
Encoding: 80 80 58
Width: 570
VWidth: 900
GlyphClass: 2
Flags: HMW
HStem: 245.6 58.65<303.473 323.023 301.773 334.073> 595.8 38.25<389.748 428.423>
VStem: 246.948 2.55 498.548 52.7<507.825 508.675>
LayerCount: 2
Fore
SplineSet
298.797851562 588.150390625 m 1
 295.397460938 572 290.297851562 549.049804688 282.647460938 518.450195312 c 0
 274.998046875 487.849609375 267.34765625 456.400390625 260.547851562 424.099609375 c 0
 253.748046875 391.799804688 246.09765625 356.950195312 238.447265625 321.25 c 1
 246.09765625 317.849609375 l 2
 264.797851562 308.5 287.748046875 304.25 315.797851562 304.25 c 0
 330.248046875 304.25 342.998046875 305.950195312 355.748046875 308.5 c 0
 368.498046875 311.049804688 379.547851562 314.450195312 389.748046875 318.700195312 c 0
 399.947265625 322.950195312 408.447265625 328.900390625 416.947265625 335.700195312 c 0
 425.447265625 342.5 433.947265625 349.299804688 439.897460938 356.099609375 c 0
 445.84765625 362.900390625 451.797851562 371.400390625 457.748046875 380.75 c 0
 463.697265625 390.099609375 467.947265625 397.75 471.34765625 405.400390625 c 0
 474.748046875 413.049804688 478.147460938 421.549804688 481.547851562 430.900390625 c 0
 484.947265625 440.25 488.34765625 448.75 490.047851562 454.700195312 c 0
 491.748046875 460.650390625 494.297851562 469.150390625 495.998046875 478.5 c 0
 497.697265625 487.849609375 498.547851562 497.200195312 498.547851562 504.849609375 c 0
 498.547851562 512.5 498.547851562 518.450195312 497.697265625 524.400390625 c 0
 495.147460938 538.849609375 489.197265625 549.900390625 481.547851562 559.25 c 0
 473.897460938 568.599609375 466.248046875 575.400390625 455.197265625 581.349609375 c 0
 445.84765625 587.299804688 435.647460938 591.549804688 426.297851562 593.25 c 0
 416.947265625 594.950195312 407.59765625 595.799804688 398.248046875 595.799804688 c 0
 381.248046875 595.799804688 348.947265625 593.25 298.797851562 588.150390625 c 1
161.09765625 169.950195312 m 0
 167.047851562 188.650390625 172.1484375 214.150390625 177.248046875 246.450195312 c 0
 183.198242188 269.400390625 189.998046875 300 195.948242188 336.549804688 c 0
 203.598632812 372.25 208.698242188 402 213.798828125 425.799804688 c 0
 222.965820312 466.63671875 234.583984375 515.64453125 248.654296875 572.823242188 c 0
 248.103515625 573.341796875 247.403320312 575.944335938 246.947265625 580.5 c 1
 246.09765625 574.549804688 244.397460938 576.25 244.397460938 583.900390625 c 0
 244.397460938 585.599609375 243.547851562 587.299804688 243.547851562 589 c 0
 243.547851562 590.700195312 244.397460938 594.099609375 245.248046875 595.799804688 c 0
 246.947265625 601.75 249.498046875 606.849609375 253.748046875 611.099609375 c 0
 257.998046875 615.349609375 262.248046875 617.900390625 265.647460938 618.75 c 0
 283.498046875 623 308.998046875 627.25 342.998046875 629.799804688 c 0
 376.998046875 632.349609375 399.947265625 634.049804688 412.697265625 634.049804688 c 0
 444.147460938 634.049804688 473.047851562 628.099609375 495.998046875 615.349609375 c 0
 518.947265625 602.599609375 535.09765625 583.049804688 544.447265625 558.400390625 c 0
 549.547851562 543.950195312 551.248046875 528.650390625 551.248046875 511.650390625 c 0
 551.248046875 504 550.397460938 488.700195312 546.998046875 465.75 c 0
 539.34765625 435.150390625 528.297851562 407.099609375 512.147460938 379.900390625 c 0
 495.998046875 352.700195312 478.998046875 328.900390625 458.59765625 309.349609375 c 0
 439.897460938 289.799804688 417.797851562 273.650390625 393.998046875 262.599609375 c 0
 370.197265625 251.549804688 346.397460938 245.599609375 321.748046875 245.599609375 c 0
 285.197265625 245.599609375 256.297851562 248.150390625 237.59765625 254.099609375 c 1
 233.34765625 248.150390625 230.797851562 249.849609375 227.397460938 257.5 c 1
 221.447265625 226.049804688 217.197265625 199.700195312 213.797851562 178.450195312 c 0
 210.397460938 157.200195312 204.447265625 118.950195312 195.09765625 62 c 0
 193.397460938 53.5 187.447265625 46.7001953125 178.947265625 41.599609375 c 0
 170.447265625 36.5 162.797851562 33.9501953125 154.297851562 33.9501953125 c 0
 145.797851562 33.9501953125 139.84765625 36.5 135.59765625 40.75 c 0
 133.897460938 42.4501953125 132.197265625 45.849609375 132.197265625 49.25 c 0
 132.197265625 52.650390625 133.897460938 56.0498046875 135.59765625 62 c 0
 141.547851562 85.7998046875 150.047851562 121.5 161.09765625 169.950195312 c 0
EndSplineSet
Validated: 524289
EndChar

StartChar: Q
Encoding: 81 81 59
Width: 570
VWidth: 886
GlyphClass: 2
Flags: HMW
HStem: 2.92507 17G 15.6751 61.2 587.725 37.4
VStem: 153.661 60.35 299.861 39.1<160.6 203.1> 496.211 55.25
LayerCount: 2
Fore
SplineSet
303.26171875 76.875 m 1x7c
 315.162109375 76.875 l 1
 312.611328125 89.625 l 2
 306.662109375 114.275390625 302.412109375 133.825195312 300.711914062 148.275390625 c 0
 300.711914062 153.375 299.861328125 158.474609375 299.861328125 162.724609375 c 0
 299.861328125 183.974609375 305.811523438 200.125 318.561523438 209.474609375 c 0
 322.811523438 212.875 327.061523438 214.575195312 330.461914062 214.575195312 c 0
 332.162109375 214.575195312 333.01171875 214.575195312 334.711914062 212.875 c 0
 336.412109375 211.174804688 338.961914062 206.075195312 338.961914062 200.125 c 0
 340.662109375 172.075195312 348.311523438 140.625 358.51171875 105.775390625 c 2
 361.912109375 93.025390625 l 1
 371.26171875 99.8251953125 l 2
 396.76171875 117.674804688 418.01171875 145.724609375 432.461914062 183.125 c 0
 436.711914062 191.625 441.811523438 208.625 448.611328125 234.974609375 c 0
 456.26171875 261.325195312 463.912109375 293.625 473.26171875 332.724609375 c 0
 482.611328125 371.825195312 489.412109375 409.224609375 493.662109375 444.924804688 c 0
 495.361328125 455.974609375 496.211914062 467.025390625 496.211914062 477.224609375 c 0
 496.211914062 505.275390625 491.111328125 528.224609375 480.061523438 546.924804688 c 0
 471.561523438 561.375 461.361328125 572.424804688 447.76171875 579.224609375 c 0
 438.412109375 585.174804688 426.51171875 587.724609375 413.76171875 587.724609375 c 0
 385.711914062 587.724609375 359.361328125 575.825195312 335.561523438 552.875 c 0
 311.76171875 529.924804688 293.061523438 497.625 276.061523438 455.974609375 c 0
 249.711914062 395.625 231.01171875 331.025390625 219.961914062 260.474609375 c 0
 216.561523438 240.075195312 214.01171875 221.375 214.01171875 203.525390625 c 0
 214.01171875 192.474609375 215.711914062 181.424804688 217.412109375 170.375 c 0
 221.662109375 142.325195312 229.311523438 120.224609375 242.912109375 103.224609375 c 0
 257.361328125 85.375 274.361328125 76.875 295.611328125 76.875 c 2
 303.26171875 76.875 l 1x7c
395.912109375 -143.275390625 m 0
 389.961914062 -141.575195312 385.712890625 -137.32421875 383.162109375 -129.673828125 c 0
 378.912109375 -119.473632812 371.262695312 -99.923828125 361.0625 -72.7236328125 c 0
 350.862304688 -45.5244140625 340.662109375 -14.923828125 329.612304688 19.92578125 c 1xbc
 327.912109375 12.2763671875 323.662109375 12.2763671875 321.112304688 18.2255859375 c 1
 308.362304688 16.5263671875 294.762695312 15.67578125 280.3125 15.67578125 c 0
 260.762695312 15.67578125 242.912109375 19.076171875 225.912109375 26.7255859375 c 0
 208.912109375 34.3759765625 196.162109375 44.576171875 185.962890625 57.326171875 c 0
 175.762695312 70.076171875 167.262695312 87.076171875 161.3125 104.92578125 c 0
 155.362304688 122.776367188 153.662109375 143.17578125 153.662109375 165.276367188 c 0
 153.662109375 187.375976562 155.362304688 210.326171875 159.612304688 233.276367188 c 0
 180.862304688 342.076171875 213.162109375 431.326171875 253.112304688 501.026367188 c 0
 271.8125 536.725585938 298.162109375 565.625976562 332.162109375 589.42578125 c 0
 366.162109375 613.225585938 401.012695312 625.125976562 436.712890625 625.125976562 c 0
 474.962890625 625.125976562 504.712890625 611.526367188 525.962890625 583.475585938 c 0
 537.012695312 569.026367188 543.8125 550.326171875 548.0625 525.67578125 c 0
 549.762695312 512.92578125 551.462890625 499.326171875 551.462890625 484.875976562 c 0
 551.462890625 470.42578125 549.762695312 455.125976562 548.0625 438.125976562 c 0
 542.962890625 399.026367188 533.612304688 352.276367188 520.012695312 297.026367188 c 0
 506.412109375 241.776367188 491.962890625 198.42578125 479.212890625 167.826171875 c 0
 455.412109375 109.17578125 423.962890625 66.67578125 384.012695312 42.0263671875 c 1
 381.825195312 34.736328125 379.012695312 32.447265625 377.184570312 35.6962890625 c 1
 391.360351562 -0.12890625 405.551757812 -35.1357421875 420.561523438 -69.3251953125 c 0
 424.811523438 -86.3251953125 429.912109375 -95.6748046875 434.162109375 -98.224609375 c 0
 434.162109375 -99.9248046875 435.01171875 -102.474609375 435.01171875 -104.174804688 c 0
 435.01171875 -105.875 435.01171875 -108.424804688 434.162109375 -110.974609375 c 0
 432.461914062 -116.924804688 428.211914062 -122.875 423.961914062 -127.974609375 c 0
 419.711914062 -133.075195312 417.162109375 -138.174804688 413.76171875 -139.875 c 0
 409.51171875 -142.424804688 405.26171875 -144.125 401.01171875 -144.125 c 0
 399.311523438 -144.125 397.611328125 -143.275390625 395.912109375 -143.275390625 c 0
EndSplineSet
Validated: 524289
EndChar

